G04 #@! TF.FileFunction,Copper,L2,Bot,Signal*
%FSLAX46Y46*%
G04 Gerber Fmt 4.6, Leading zero omitted, Abs format (unit mm)*
G04 Created by KiCad (PCBNEW (2015-01-02 BZR 5348)-product) date 1/14/2015 2:26:51 AM*
%MOMM*%
G01*
G04 APERTURE LIST*
%ADD10C,0.150000*%
%ADD11R,1.397000X0.889000*%
%ADD12R,1.016000X1.016000*%
%ADD13C,1.016000*%
%ADD14C,1.000760*%
%ADD15R,0.889000X1.397000*%
%ADD16R,4.500000X1.000000*%
%ADD17R,3.400000X1.500000*%
%ADD18R,1.524000X1.524000*%
%ADD19C,1.524000*%
%ADD20C,0.685800*%
%ADD21C,0.889000*%
%ADD22C,0.177800*%
%ADD23C,0.508000*%
%ADD24C,0.254000*%
%ADD25C,0.762000*%
G04 APERTURE END LIST*
D10*
D11*
X100650000Y-101252500D03*
X100650000Y-99347500D03*
D12*
X92270000Y-82365000D03*
D13*
X92270000Y-83635000D03*
X91000000Y-82365000D03*
X91000000Y-83635000D03*
X89730000Y-82365000D03*
X89730000Y-83635000D03*
X88460000Y-82365000D03*
X88460000Y-83635000D03*
X87190000Y-82365000D03*
X87190000Y-83635000D03*
D14*
X99309700Y-95420000D03*
X100808300Y-95420000D03*
D11*
X108000000Y-92952500D03*
X108000000Y-91047500D03*
D15*
X109797500Y-89100000D03*
X111702500Y-89100000D03*
D11*
X102700000Y-101252500D03*
X102700000Y-99347500D03*
X105550000Y-101152500D03*
X105550000Y-99247500D03*
D16*
X89000000Y-93000000D03*
X89000000Y-91000000D03*
D17*
X94100000Y-95350000D03*
X94100000Y-88650000D03*
D11*
X109838000Y-91038500D03*
X109838000Y-92943500D03*
D18*
X120030000Y-98510000D03*
D19*
X122570000Y-98510000D03*
X120030000Y-95970000D03*
X122570000Y-95970000D03*
X120030000Y-93430000D03*
X122570000Y-93430000D03*
X120030000Y-90890000D03*
X122570000Y-90890000D03*
D18*
X122450000Y-101300000D03*
D19*
X119910000Y-101300000D03*
X117370000Y-101300000D03*
X114830000Y-101300000D03*
X112290000Y-101300000D03*
X109750000Y-101300000D03*
D18*
X103750000Y-82700000D03*
D19*
X106290000Y-82700000D03*
X108830000Y-82700000D03*
X111370000Y-82700000D03*
X113910000Y-82700000D03*
X116450000Y-82700000D03*
D18*
X87860000Y-101000000D03*
D19*
X90400000Y-101000000D03*
X92940000Y-101000000D03*
X122284000Y-85895000D03*
X93264500Y-98252100D03*
D18*
X98776300Y-82542200D03*
D19*
X96236300Y-82542200D03*
D20*
X117140500Y-86580800D03*
X117331000Y-91102000D03*
X118093000Y-86530000D03*
X118093000Y-89451000D03*
X108441000Y-98087000D03*
X108060000Y-98849000D03*
X113863900Y-99928500D03*
X93328000Y-84498000D03*
X97773000Y-88181000D03*
X102345000Y-89451000D03*
X109838000Y-91737000D03*
X115400000Y-87725000D03*
X105901000Y-88562000D03*
X102350000Y-87120000D03*
X87359000Y-86530000D03*
X89708500Y-98658500D03*
D21*
X107247200Y-101147700D03*
D20*
X94598000Y-86657000D03*
X109950000Y-89200000D03*
X108000000Y-92800000D03*
X121903000Y-82593000D03*
X91296000Y-88816000D03*
X101075000Y-91610000D03*
X99043000Y-91610000D03*
X99043000Y-86149000D03*
X101075000Y-86149000D03*
X86978000Y-97833000D03*
D21*
X102748340Y-98948860D03*
D20*
X89137000Y-86403000D03*
X101964000Y-96436000D03*
X101964000Y-90582500D03*
X100059000Y-88870000D03*
X111500000Y-89200000D03*
X107950000Y-91250000D03*
X113250000Y-94475000D03*
X116226100Y-95674000D03*
X114700000Y-97150000D03*
X118093000Y-94912000D03*
X99297000Y-101262000D03*
X102345000Y-88435000D03*
X96630000Y-87546000D03*
D22*
X117331000Y-87774600D02*
X117331000Y-86771300D01*
X117331000Y-86771300D02*
X117140500Y-86580800D01*
X117331000Y-91102000D02*
X117331000Y-87774600D01*
X113902000Y-82720000D02*
X113910000Y-82700000D01*
X118093000Y-89451000D02*
X118093000Y-86530000D01*
X116442000Y-82847000D02*
X116450000Y-82700000D01*
X106282000Y-82720000D02*
X106282000Y-84117000D01*
X107552000Y-98087000D02*
X108441000Y-98087000D01*
X107552000Y-98087000D02*
X106790000Y-97325000D01*
X106790000Y-97325000D02*
X105266000Y-95801000D01*
X105266000Y-95801000D02*
X105266000Y-86276000D01*
X105266000Y-85133000D02*
X106282000Y-84117000D01*
X105266000Y-86276000D02*
X105266000Y-85133000D01*
X106282000Y-82720000D02*
X106290000Y-82700000D01*
X103750000Y-82700000D02*
X103750000Y-85014000D01*
X103750000Y-85014000D02*
X104758000Y-86022000D01*
X104758000Y-95928000D02*
X104758000Y-86022000D01*
X107679000Y-98849000D02*
X104758000Y-95928000D01*
X108060000Y-98849000D02*
X107679000Y-98849000D01*
X117370000Y-101300000D02*
X115998500Y-99928500D01*
X115998500Y-99928500D02*
X113863900Y-99928500D01*
X117356400Y-101312800D02*
X117370000Y-101300000D01*
X89730000Y-83635000D02*
X90593000Y-84498000D01*
X90593000Y-84498000D02*
X93328000Y-84498000D01*
X101075000Y-88181000D02*
X97773000Y-88181000D01*
X102345000Y-89451000D02*
X101075000Y-88181000D01*
X109838000Y-91737000D02*
X109838000Y-91102000D01*
X109838000Y-91102000D02*
X109838000Y-91038500D01*
X109838000Y-91102000D02*
X109838000Y-91038500D01*
D23*
X113525000Y-91050000D02*
X113525000Y-91059900D01*
X113525000Y-89600000D02*
X113525000Y-91050000D01*
X115400000Y-87725000D02*
X113525000Y-89600000D01*
D24*
X100870000Y-86960000D02*
X102170000Y-86960000D01*
X102340000Y-87130000D02*
X102340000Y-87120000D01*
X102170000Y-86960000D02*
X102340000Y-87130000D01*
X105901000Y-88562000D02*
X106439000Y-89100000D01*
X106439000Y-89100000D02*
X109554000Y-89100000D01*
X102350000Y-87120000D02*
X102340000Y-87120000D01*
X100870000Y-86960000D02*
X100060000Y-86150000D01*
X85454000Y-88828700D02*
X85454000Y-88435000D01*
X85454000Y-88435000D02*
X87359000Y-86530000D01*
X89708500Y-98277500D02*
X85454000Y-94023000D01*
X89708500Y-98658500D02*
X89708500Y-98277500D01*
D23*
X112085900Y-92499000D02*
X110251000Y-92499000D01*
X113525000Y-91059900D02*
X112085900Y-92499000D01*
X110251000Y-92499000D02*
X109838000Y-92943500D01*
D22*
X107247200Y-101147700D02*
X107247200Y-101152500D01*
X107247200Y-101152500D02*
X107280500Y-101152500D01*
D25*
X105550000Y-101152500D02*
X107280500Y-101152500D01*
X107280500Y-101152500D02*
X110264000Y-98169000D01*
D24*
X85454000Y-88828700D02*
X85454000Y-94023000D01*
X98740000Y-82600000D02*
X94683000Y-86657000D01*
X94683000Y-86657000D02*
X94598000Y-86657000D01*
X98740000Y-82600000D02*
X100059000Y-83919000D01*
X100059000Y-83919000D02*
X100059000Y-86149000D01*
X100059000Y-86149000D02*
X100060000Y-86150000D01*
X109554000Y-89100000D02*
X109584000Y-89070000D01*
X109584000Y-89070000D02*
X109797500Y-89100000D01*
D23*
X109797500Y-89100000D02*
X109868000Y-89100000D01*
X109868000Y-89100000D02*
X110981000Y-90213000D01*
X110981000Y-91769000D02*
X109797500Y-92952500D01*
X110981000Y-90213000D02*
X110981000Y-91769000D01*
X109797500Y-92952500D02*
X109838000Y-92943500D01*
D24*
X98789000Y-82593000D02*
X98740000Y-82600000D01*
D25*
X109797500Y-97702500D02*
X110264000Y-98169000D01*
X110264000Y-98169000D02*
X110995000Y-98900000D01*
X110995000Y-98900000D02*
X117510000Y-98900000D01*
X117510000Y-98900000D02*
X119910000Y-101300000D01*
X108000000Y-92952500D02*
X109797500Y-92952500D01*
X109650000Y-93000000D02*
X109797500Y-93000000D01*
X109750000Y-93000000D02*
X109650000Y-93000000D01*
X109797500Y-92952500D02*
X109750000Y-93000000D01*
X109797500Y-97702500D02*
X109797500Y-93000000D01*
D22*
X109950000Y-89200000D02*
X109850000Y-89100000D01*
X109850000Y-89100000D02*
X109797500Y-89100000D01*
X108000000Y-92800000D02*
X108000000Y-92952500D01*
D23*
X102726000Y-98849000D02*
X102748340Y-98871340D01*
X102748340Y-98871340D02*
X102748340Y-98948860D01*
D24*
X101964000Y-90582500D02*
X101964000Y-90594000D01*
X100059000Y-88870000D02*
X100059000Y-88816000D01*
X122450000Y-101300000D02*
X123491000Y-102341000D01*
X123427000Y-102278000D02*
X123427000Y-102405000D01*
X123490000Y-102341000D02*
X123427000Y-102278000D01*
X123491000Y-102341000D02*
X123490000Y-102341000D01*
X122450000Y-101300000D02*
X121091000Y-102659000D01*
X121091000Y-102659000D02*
X121014000Y-102659000D01*
X123681000Y-100069000D02*
X123681000Y-102151000D01*
X123681000Y-102151000D02*
X123427000Y-102405000D01*
X123427000Y-102405000D02*
X123173000Y-102659000D01*
X123173000Y-102659000D02*
X121014000Y-102659000D01*
X86343000Y-102151000D02*
X86343000Y-97706000D01*
X121014000Y-102659000D02*
X86851000Y-102659000D01*
X86851000Y-102659000D02*
X86343000Y-102151000D01*
X91000000Y-82365000D02*
X91000000Y-81323000D01*
X90915000Y-81450000D02*
X90915000Y-81323000D01*
X90915000Y-81408000D02*
X90915000Y-81450000D01*
X91000000Y-81323000D02*
X90915000Y-81408000D01*
X89730000Y-82365000D02*
X89730000Y-81323000D01*
X89772000Y-81450000D02*
X89772000Y-81323000D01*
X89772000Y-81365000D02*
X89772000Y-81450000D01*
X89730000Y-81323000D02*
X89772000Y-81365000D01*
X89730000Y-82365000D02*
X91000000Y-82365000D01*
X87190000Y-82365000D02*
X87190000Y-82170000D01*
X87190000Y-82170000D02*
X86597000Y-81577000D01*
X122450000Y-101300000D02*
X123681000Y-100069000D01*
X123173000Y-81323000D02*
X90915000Y-81323000D01*
X123681000Y-81831000D02*
X123173000Y-81323000D01*
X123681000Y-100069000D02*
X123681000Y-81831000D01*
X90915000Y-81323000D02*
X89772000Y-81323000D01*
X86343000Y-81831000D02*
X86343000Y-86403000D01*
X86851000Y-81323000D02*
X86597000Y-81577000D01*
X89772000Y-81323000D02*
X86851000Y-81323000D01*
X86597000Y-81577000D02*
X86343000Y-81831000D01*
D25*
X120030000Y-98510000D02*
X122450000Y-100930000D01*
X122450000Y-100930000D02*
X122450000Y-101300000D01*
D22*
X111500000Y-89200000D02*
X111600000Y-89100000D01*
X111600000Y-89100000D02*
X111702500Y-89100000D01*
X107950000Y-91250000D02*
X108000000Y-91200000D01*
X108000000Y-91200000D02*
X108000000Y-91047500D01*
X114450000Y-95675000D02*
X114450000Y-95674000D01*
X113250000Y-94475000D02*
X114450000Y-95675000D01*
X114450000Y-95674000D02*
X116226100Y-95674000D01*
X121250000Y-92210000D02*
X122570000Y-90890000D01*
X121250000Y-96650000D02*
X121250000Y-92210000D01*
X120700000Y-97200000D02*
X121250000Y-96650000D01*
X114750000Y-97200000D02*
X120700000Y-97200000D01*
X114700000Y-97150000D02*
X114750000Y-97200000D01*
X118093000Y-92827000D02*
X120030000Y-90890000D01*
X118093000Y-94912000D02*
X118093000Y-92827000D01*
X100650000Y-101252500D02*
X99306500Y-101252500D01*
X99306500Y-101252500D02*
X99297000Y-101262000D01*
X102700000Y-101252500D02*
X100650000Y-101252500D01*
X98150000Y-87546000D02*
X101456000Y-87546000D01*
X102340000Y-88430000D02*
X102340000Y-88435000D01*
X101456000Y-87546000D02*
X102340000Y-88430000D01*
X102345000Y-88435000D02*
X102340000Y-88435000D01*
X98150000Y-87546000D02*
X96630000Y-87546000D01*
D23*
X89000000Y-91000000D02*
X86826000Y-91000000D01*
X86826000Y-91000000D02*
X86089000Y-91737000D01*
X86089000Y-91737000D02*
X86089000Y-93769000D01*
X86089000Y-93769000D02*
X92940000Y-100620000D01*
X92940000Y-100620000D02*
X92940000Y-101000000D01*
D24*
G36*
X87383747Y-82379142D02*
X87204142Y-82558747D01*
X87190000Y-82544605D01*
X87175857Y-82558747D01*
X86996252Y-82379142D01*
X87010395Y-82365000D01*
X86996252Y-82350857D01*
X87175857Y-82171252D01*
X87190000Y-82185395D01*
X87204142Y-82171252D01*
X87383747Y-82350857D01*
X87369605Y-82365000D01*
X87383747Y-82379142D01*
X87383747Y-82379142D01*
G37*
X87383747Y-82379142D02*
X87204142Y-82558747D01*
X87190000Y-82544605D01*
X87175857Y-82558747D01*
X86996252Y-82379142D01*
X87010395Y-82365000D01*
X86996252Y-82350857D01*
X87175857Y-82171252D01*
X87190000Y-82185395D01*
X87204142Y-82171252D01*
X87383747Y-82350857D01*
X87369605Y-82365000D01*
X87383747Y-82379142D01*
G36*
X89858704Y-82285814D02*
X89854407Y-82447087D01*
X89854611Y-82448278D01*
X89744142Y-82558747D01*
X89730000Y-82544605D01*
X89715857Y-82558747D01*
X89536252Y-82379142D01*
X89550395Y-82365000D01*
X89536252Y-82350857D01*
X89715857Y-82171252D01*
X89730000Y-82185395D01*
X89744142Y-82171252D01*
X89858704Y-82285814D01*
X89858704Y-82285814D01*
G37*
X89858704Y-82285814D02*
X89854407Y-82447087D01*
X89854611Y-82448278D01*
X89744142Y-82558747D01*
X89730000Y-82544605D01*
X89715857Y-82558747D01*
X89536252Y-82379142D01*
X89550395Y-82365000D01*
X89536252Y-82350857D01*
X89715857Y-82171252D01*
X89730000Y-82185395D01*
X89744142Y-82171252D01*
X89858704Y-82285814D01*
G36*
X91193747Y-82379142D02*
X91014142Y-82558747D01*
X91000000Y-82544605D01*
X90985857Y-82558747D01*
X90871295Y-82444185D01*
X90875593Y-82282913D01*
X90875388Y-82281721D01*
X90985857Y-82171252D01*
X91000000Y-82185395D01*
X91014142Y-82171252D01*
X91193747Y-82350857D01*
X91179605Y-82365000D01*
X91193747Y-82379142D01*
X91193747Y-82379142D01*
G37*
X91193747Y-82379142D02*
X91014142Y-82558747D01*
X91000000Y-82544605D01*
X90985857Y-82558747D01*
X90871295Y-82444185D01*
X90875593Y-82282913D01*
X90875388Y-82281721D01*
X90985857Y-82171252D01*
X91000000Y-82185395D01*
X91014142Y-82171252D01*
X91193747Y-82350857D01*
X91179605Y-82365000D01*
X91193747Y-82379142D01*
G36*
X108997315Y-90039454D02*
X108883723Y-89992403D01*
X108761042Y-89968000D01*
X108635958Y-89968000D01*
X108285750Y-89968000D01*
X108127000Y-90126750D01*
X108127000Y-90920500D01*
X108147000Y-90920500D01*
X108147000Y-91174500D01*
X108127000Y-91174500D01*
X108127000Y-91194500D01*
X107873000Y-91194500D01*
X107873000Y-91174500D01*
X107873000Y-90920500D01*
X107873000Y-90126750D01*
X107714250Y-89968000D01*
X107364042Y-89968000D01*
X107238958Y-89968000D01*
X107116277Y-89992403D01*
X107000715Y-90040270D01*
X106896711Y-90109763D01*
X106808263Y-90198211D01*
X106738770Y-90302215D01*
X106690903Y-90417777D01*
X106666500Y-90540458D01*
X106666500Y-90761750D01*
X106825250Y-90920500D01*
X107873000Y-90920500D01*
X107873000Y-91174500D01*
X106825250Y-91174500D01*
X106666500Y-91333250D01*
X106666500Y-91554542D01*
X106690903Y-91677223D01*
X106738770Y-91792785D01*
X106808263Y-91896789D01*
X106896711Y-91985237D01*
X107000715Y-92054730D01*
X107116277Y-92102597D01*
X107142110Y-92107735D01*
X107115152Y-92116165D01*
X107013565Y-92183418D01*
X106934680Y-92276262D01*
X106884715Y-92387376D01*
X106867611Y-92508000D01*
X106867611Y-93397000D01*
X106873306Y-93467069D01*
X106909665Y-93583348D01*
X106976918Y-93684935D01*
X107069762Y-93763820D01*
X107180876Y-93813785D01*
X107301500Y-93830889D01*
X108698500Y-93830889D01*
X108768569Y-93825194D01*
X108884848Y-93788835D01*
X108920398Y-93765300D01*
X108931067Y-93765300D01*
X108984700Y-93789416D01*
X108984700Y-97535027D01*
X108937201Y-97487196D01*
X108811249Y-97402239D01*
X108671193Y-97343365D01*
X108522370Y-97312816D01*
X108370447Y-97311756D01*
X108221212Y-97340224D01*
X108080348Y-97397137D01*
X107953222Y-97480326D01*
X107865427Y-97566300D01*
X107767681Y-97566300D01*
X107158191Y-96956809D01*
X107158185Y-96956804D01*
X105786700Y-95585318D01*
X105786700Y-89330106D01*
X105808829Y-89334972D01*
X105885312Y-89336574D01*
X106043869Y-89495131D01*
X106083743Y-89527884D01*
X106123296Y-89561073D01*
X106125871Y-89562488D01*
X106128142Y-89564354D01*
X106173622Y-89588740D01*
X106218865Y-89613613D01*
X106221667Y-89614501D01*
X106224256Y-89615890D01*
X106273584Y-89630970D01*
X106322819Y-89646589D01*
X106325742Y-89646916D01*
X106328549Y-89647775D01*
X106379863Y-89652987D01*
X106431198Y-89658746D01*
X106436939Y-89658785D01*
X106437050Y-89658797D01*
X106437153Y-89658787D01*
X106439000Y-89658800D01*
X108919111Y-89658800D01*
X108919111Y-89798500D01*
X108924806Y-89868569D01*
X108961165Y-89984848D01*
X108997315Y-90039454D01*
X108997315Y-90039454D01*
G37*
X108997315Y-90039454D02*
X108883723Y-89992403D01*
X108761042Y-89968000D01*
X108635958Y-89968000D01*
X108285750Y-89968000D01*
X108127000Y-90126750D01*
X108127000Y-90920500D01*
X108147000Y-90920500D01*
X108147000Y-91174500D01*
X108127000Y-91174500D01*
X108127000Y-91194500D01*
X107873000Y-91194500D01*
X107873000Y-91174500D01*
X107873000Y-90920500D01*
X107873000Y-90126750D01*
X107714250Y-89968000D01*
X107364042Y-89968000D01*
X107238958Y-89968000D01*
X107116277Y-89992403D01*
X107000715Y-90040270D01*
X106896711Y-90109763D01*
X106808263Y-90198211D01*
X106738770Y-90302215D01*
X106690903Y-90417777D01*
X106666500Y-90540458D01*
X106666500Y-90761750D01*
X106825250Y-90920500D01*
X107873000Y-90920500D01*
X107873000Y-91174500D01*
X106825250Y-91174500D01*
X106666500Y-91333250D01*
X106666500Y-91554542D01*
X106690903Y-91677223D01*
X106738770Y-91792785D01*
X106808263Y-91896789D01*
X106896711Y-91985237D01*
X107000715Y-92054730D01*
X107116277Y-92102597D01*
X107142110Y-92107735D01*
X107115152Y-92116165D01*
X107013565Y-92183418D01*
X106934680Y-92276262D01*
X106884715Y-92387376D01*
X106867611Y-92508000D01*
X106867611Y-93397000D01*
X106873306Y-93467069D01*
X106909665Y-93583348D01*
X106976918Y-93684935D01*
X107069762Y-93763820D01*
X107180876Y-93813785D01*
X107301500Y-93830889D01*
X108698500Y-93830889D01*
X108768569Y-93825194D01*
X108884848Y-93788835D01*
X108920398Y-93765300D01*
X108931067Y-93765300D01*
X108984700Y-93789416D01*
X108984700Y-97535027D01*
X108937201Y-97487196D01*
X108811249Y-97402239D01*
X108671193Y-97343365D01*
X108522370Y-97312816D01*
X108370447Y-97311756D01*
X108221212Y-97340224D01*
X108080348Y-97397137D01*
X107953222Y-97480326D01*
X107865427Y-97566300D01*
X107767681Y-97566300D01*
X107158191Y-96956809D01*
X107158185Y-96956804D01*
X105786700Y-95585318D01*
X105786700Y-89330106D01*
X105808829Y-89334972D01*
X105885312Y-89336574D01*
X106043869Y-89495131D01*
X106083743Y-89527884D01*
X106123296Y-89561073D01*
X106125871Y-89562488D01*
X106128142Y-89564354D01*
X106173622Y-89588740D01*
X106218865Y-89613613D01*
X106221667Y-89614501D01*
X106224256Y-89615890D01*
X106273584Y-89630970D01*
X106322819Y-89646589D01*
X106325742Y-89646916D01*
X106328549Y-89647775D01*
X106379863Y-89652987D01*
X106431198Y-89658746D01*
X106436939Y-89658785D01*
X106437050Y-89658797D01*
X106437153Y-89658787D01*
X106439000Y-89658800D01*
X108919111Y-89658800D01*
X108919111Y-89798500D01*
X108924806Y-89868569D01*
X108961165Y-89984848D01*
X108997315Y-90039454D01*
G36*
X123518200Y-99978888D02*
X123512785Y-99975270D01*
X123397223Y-99927403D01*
X123274542Y-99903000D01*
X122735750Y-99903000D01*
X122577000Y-100061750D01*
X122577000Y-101173000D01*
X122597000Y-101173000D01*
X122597000Y-101427000D01*
X122577000Y-101427000D01*
X122577000Y-101447000D01*
X122323000Y-101447000D01*
X122323000Y-101427000D01*
X122303000Y-101427000D01*
X122303000Y-101173000D01*
X122323000Y-101173000D01*
X122323000Y-100061750D01*
X122164250Y-99903000D01*
X121625458Y-99903000D01*
X121502777Y-99927403D01*
X121387215Y-99975270D01*
X121283211Y-100044763D01*
X121194763Y-100133211D01*
X121125270Y-100237215D01*
X121077403Y-100352777D01*
X121053000Y-100475458D01*
X121053000Y-100600542D01*
X121053000Y-100940238D01*
X120969163Y-100736833D01*
X120839605Y-100541833D01*
X120674639Y-100375711D01*
X120480547Y-100244795D01*
X120264724Y-100154071D01*
X120035390Y-100106995D01*
X119865280Y-100105807D01*
X119666472Y-99907000D01*
X119744250Y-99907000D01*
X119903000Y-99748250D01*
X119903000Y-98637000D01*
X118791750Y-98637000D01*
X118633000Y-98795750D01*
X118633000Y-98873527D01*
X118084736Y-98325264D01*
X118026716Y-98277606D01*
X117969205Y-98229348D01*
X117965460Y-98227289D01*
X117962157Y-98224576D01*
X117895991Y-98189098D01*
X117830196Y-98152927D01*
X117826121Y-98151634D01*
X117822355Y-98149615D01*
X117750579Y-98127671D01*
X117678991Y-98104962D01*
X117674741Y-98104485D01*
X117670655Y-98103236D01*
X117595982Y-98095650D01*
X117521348Y-98087279D01*
X117512992Y-98087220D01*
X117512837Y-98087205D01*
X117512691Y-98087218D01*
X117510000Y-98087200D01*
X111331672Y-98087200D01*
X110838808Y-97594336D01*
X110838737Y-97594264D01*
X110610300Y-97365827D01*
X110610300Y-93815027D01*
X110722848Y-93779835D01*
X110824435Y-93712582D01*
X110903320Y-93619738D01*
X110953285Y-93508624D01*
X110970389Y-93388000D01*
X110970389Y-93184800D01*
X112085900Y-93184800D01*
X112148962Y-93178616D01*
X112212054Y-93173097D01*
X112215516Y-93172090D01*
X112219106Y-93171739D01*
X112279791Y-93153417D01*
X112340584Y-93135755D01*
X112343781Y-93134097D01*
X112347238Y-93133054D01*
X112403152Y-93103323D01*
X112459414Y-93074161D01*
X112462237Y-93071907D01*
X112465416Y-93070217D01*
X112514478Y-93030203D01*
X112564016Y-92990657D01*
X112569034Y-92985708D01*
X112569138Y-92985624D01*
X112569217Y-92985528D01*
X112570834Y-92983934D01*
X114009934Y-91544834D01*
X114050150Y-91495872D01*
X114090863Y-91447354D01*
X114092601Y-91444192D01*
X114094889Y-91441407D01*
X114124831Y-91385565D01*
X114155343Y-91330065D01*
X114156432Y-91326630D01*
X114158138Y-91323450D01*
X114176660Y-91262863D01*
X114195814Y-91202486D01*
X114196216Y-91198899D01*
X114197270Y-91195453D01*
X114203671Y-91132429D01*
X114210733Y-91069475D01*
X114210782Y-91062428D01*
X114210796Y-91062294D01*
X114210784Y-91062168D01*
X114210800Y-91059900D01*
X114210800Y-91050000D01*
X114210800Y-89884068D01*
X115626911Y-88467956D01*
X115750985Y-88419832D01*
X115879260Y-88338425D01*
X115989281Y-88233654D01*
X116076857Y-88109508D01*
X116138651Y-87970716D01*
X116172310Y-87822565D01*
X116174733Y-87649037D01*
X116145223Y-87500004D01*
X116087329Y-87359541D01*
X116003254Y-87232998D01*
X115896201Y-87125196D01*
X115770249Y-87040239D01*
X115630193Y-86981365D01*
X115481370Y-86950816D01*
X115329447Y-86949756D01*
X115180212Y-86978224D01*
X115103851Y-87009075D01*
X115103851Y-82582942D01*
X115058377Y-82353284D01*
X114969163Y-82136833D01*
X114839605Y-81941833D01*
X114674639Y-81775711D01*
X114480547Y-81644795D01*
X114264724Y-81554071D01*
X114035390Y-81506995D01*
X113801279Y-81505361D01*
X113571310Y-81549230D01*
X113354241Y-81636931D01*
X113158341Y-81765125D01*
X112991071Y-81928927D01*
X112858804Y-82122100D01*
X112766575Y-82337284D01*
X112717900Y-82566285D01*
X112714631Y-82800378D01*
X112756894Y-83030648D01*
X112843077Y-83248324D01*
X112969900Y-83445114D01*
X113132531Y-83613523D01*
X113324775Y-83747136D01*
X113539311Y-83840865D01*
X113767965Y-83891138D01*
X114002030Y-83896041D01*
X114232590Y-83855387D01*
X114450862Y-83770725D01*
X114648533Y-83645279D01*
X114818073Y-83483828D01*
X114953025Y-83292521D01*
X115048249Y-83078645D01*
X115100117Y-82850347D01*
X115103851Y-82582942D01*
X115103851Y-87009075D01*
X115039348Y-87035137D01*
X114912222Y-87118326D01*
X114803674Y-87224623D01*
X114717841Y-87349980D01*
X114657991Y-87489621D01*
X114655961Y-87499170D01*
X113040066Y-89115066D01*
X112999849Y-89164027D01*
X112959137Y-89212546D01*
X112957398Y-89215707D01*
X112955111Y-89218493D01*
X112925168Y-89274334D01*
X112894657Y-89329835D01*
X112893567Y-89333269D01*
X112891862Y-89336450D01*
X112873339Y-89397036D01*
X112854186Y-89457414D01*
X112853783Y-89461000D01*
X112852730Y-89464447D01*
X112846328Y-89527470D01*
X112839267Y-89590425D01*
X112839217Y-89597471D01*
X112839204Y-89597606D01*
X112839215Y-89597731D01*
X112839200Y-89600000D01*
X112839200Y-90775832D01*
X112782000Y-90833032D01*
X112782000Y-89861042D01*
X112782000Y-89735958D01*
X112782000Y-89385750D01*
X112782000Y-88814250D01*
X112782000Y-88464042D01*
X112782000Y-88338958D01*
X112757597Y-88216277D01*
X112709730Y-88100715D01*
X112640237Y-87996711D01*
X112563851Y-87920325D01*
X112563851Y-82582942D01*
X112518377Y-82353284D01*
X112429163Y-82136833D01*
X112299605Y-81941833D01*
X112134639Y-81775711D01*
X111940547Y-81644795D01*
X111724724Y-81554071D01*
X111495390Y-81506995D01*
X111261279Y-81505361D01*
X111031310Y-81549230D01*
X110814241Y-81636931D01*
X110618341Y-81765125D01*
X110451071Y-81928927D01*
X110318804Y-82122100D01*
X110226575Y-82337284D01*
X110177900Y-82566285D01*
X110174631Y-82800378D01*
X110216894Y-83030648D01*
X110303077Y-83248324D01*
X110429900Y-83445114D01*
X110592531Y-83613523D01*
X110784775Y-83747136D01*
X110999311Y-83840865D01*
X111227965Y-83891138D01*
X111462030Y-83896041D01*
X111692590Y-83855387D01*
X111910862Y-83770725D01*
X112108533Y-83645279D01*
X112278073Y-83483828D01*
X112413025Y-83292521D01*
X112508249Y-83078645D01*
X112560117Y-82850347D01*
X112563851Y-82582942D01*
X112563851Y-87920325D01*
X112551789Y-87908263D01*
X112447785Y-87838770D01*
X112332223Y-87790903D01*
X112209542Y-87766500D01*
X111988250Y-87766500D01*
X111829500Y-87925250D01*
X111829500Y-88973000D01*
X112623250Y-88973000D01*
X112782000Y-88814250D01*
X112782000Y-89385750D01*
X112623250Y-89227000D01*
X111829500Y-89227000D01*
X111829500Y-90274750D01*
X111988250Y-90433500D01*
X112209542Y-90433500D01*
X112332223Y-90409097D01*
X112447785Y-90361230D01*
X112551789Y-90291737D01*
X112640237Y-90203289D01*
X112709730Y-90099285D01*
X112757597Y-89983723D01*
X112782000Y-89861042D01*
X112782000Y-90833032D01*
X111801832Y-91813200D01*
X111662849Y-91813200D01*
X111666733Y-91778575D01*
X111666782Y-91771528D01*
X111666796Y-91771394D01*
X111666784Y-91771268D01*
X111666800Y-91769000D01*
X111666800Y-90213000D01*
X111660616Y-90149933D01*
X111655097Y-90086846D01*
X111654090Y-90083382D01*
X111653739Y-90079794D01*
X111635431Y-90019155D01*
X111617756Y-89958316D01*
X111616096Y-89955113D01*
X111615054Y-89951662D01*
X111585331Y-89895762D01*
X111575500Y-89876795D01*
X111575500Y-89227000D01*
X111555500Y-89227000D01*
X111555500Y-88973000D01*
X111575500Y-88973000D01*
X111575500Y-87925250D01*
X111416750Y-87766500D01*
X111195458Y-87766500D01*
X111072777Y-87790903D01*
X110957215Y-87838770D01*
X110853211Y-87908263D01*
X110764763Y-87996711D01*
X110695270Y-88100715D01*
X110647403Y-88216277D01*
X110642264Y-88242110D01*
X110633835Y-88215152D01*
X110566582Y-88113565D01*
X110473738Y-88034680D01*
X110362624Y-87984715D01*
X110242000Y-87967611D01*
X110023851Y-87967611D01*
X110023851Y-82582942D01*
X109978377Y-82353284D01*
X109889163Y-82136833D01*
X109759605Y-81941833D01*
X109594639Y-81775711D01*
X109400547Y-81644795D01*
X109184724Y-81554071D01*
X108955390Y-81506995D01*
X108721279Y-81505361D01*
X108491310Y-81549230D01*
X108274241Y-81636931D01*
X108078341Y-81765125D01*
X107911071Y-81928927D01*
X107778804Y-82122100D01*
X107686575Y-82337284D01*
X107637900Y-82566285D01*
X107634631Y-82800378D01*
X107676894Y-83030648D01*
X107763077Y-83248324D01*
X107889900Y-83445114D01*
X108052531Y-83613523D01*
X108244775Y-83747136D01*
X108459311Y-83840865D01*
X108687965Y-83891138D01*
X108922030Y-83896041D01*
X109152590Y-83855387D01*
X109370862Y-83770725D01*
X109568533Y-83645279D01*
X109738073Y-83483828D01*
X109873025Y-83292521D01*
X109968249Y-83078645D01*
X110020117Y-82850347D01*
X110023851Y-82582942D01*
X110023851Y-87967611D01*
X109353000Y-87967611D01*
X109282931Y-87973306D01*
X109166652Y-88009665D01*
X109065065Y-88076918D01*
X108986180Y-88169762D01*
X108936215Y-88280876D01*
X108919111Y-88401500D01*
X108919111Y-88541200D01*
X106674962Y-88541200D01*
X106675733Y-88486037D01*
X106646223Y-88337004D01*
X106588329Y-88196541D01*
X106504254Y-88069998D01*
X106397201Y-87962196D01*
X106271249Y-87877239D01*
X106131193Y-87818365D01*
X105982370Y-87787816D01*
X105830447Y-87786756D01*
X105786700Y-87795101D01*
X105786700Y-86276000D01*
X105786700Y-85348681D01*
X106650191Y-84485190D01*
X106680717Y-84448027D01*
X106711637Y-84411178D01*
X106712955Y-84408779D01*
X106714694Y-84406663D01*
X106737408Y-84364299D01*
X106760594Y-84322126D01*
X106761422Y-84319512D01*
X106762715Y-84317103D01*
X106776768Y-84271136D01*
X106791321Y-84225260D01*
X106791626Y-84222539D01*
X106792427Y-84219920D01*
X106797285Y-84172087D01*
X106802649Y-84124270D01*
X106802686Y-84118909D01*
X106802696Y-84118817D01*
X106802687Y-84118730D01*
X106802700Y-84117000D01*
X106802700Y-83781648D01*
X106830862Y-83770725D01*
X107028533Y-83645279D01*
X107198073Y-83483828D01*
X107333025Y-83292521D01*
X107428249Y-83078645D01*
X107480117Y-82850347D01*
X107483851Y-82582942D01*
X107438377Y-82353284D01*
X107349163Y-82136833D01*
X107219605Y-81941833D01*
X107054639Y-81775711D01*
X106860547Y-81644795D01*
X106644724Y-81554071D01*
X106415390Y-81506995D01*
X106181279Y-81505361D01*
X105951310Y-81549230D01*
X105734241Y-81636931D01*
X105538341Y-81765125D01*
X105371071Y-81928927D01*
X105238804Y-82122100D01*
X105146575Y-82337284D01*
X105097900Y-82566285D01*
X105094631Y-82800378D01*
X105136894Y-83030648D01*
X105223077Y-83248324D01*
X105349900Y-83445114D01*
X105512531Y-83613523D01*
X105704775Y-83747136D01*
X105761300Y-83771831D01*
X105761300Y-83901318D01*
X104897809Y-84764809D01*
X104867284Y-84801970D01*
X104836363Y-84838822D01*
X104835042Y-84841224D01*
X104833307Y-84843337D01*
X104810612Y-84885661D01*
X104787406Y-84927874D01*
X104786576Y-84930487D01*
X104785285Y-84932897D01*
X104771231Y-84978863D01*
X104756679Y-85024740D01*
X104756373Y-85027460D01*
X104755573Y-85030080D01*
X104750714Y-85077912D01*
X104745351Y-85125730D01*
X104745313Y-85131090D01*
X104745304Y-85131183D01*
X104745312Y-85131269D01*
X104745300Y-85133000D01*
X104745300Y-85272918D01*
X104270700Y-84798318D01*
X104270700Y-83895889D01*
X104512000Y-83895889D01*
X104582069Y-83890194D01*
X104698348Y-83853835D01*
X104799935Y-83786582D01*
X104878820Y-83693738D01*
X104928785Y-83582624D01*
X104945889Y-83462000D01*
X104945889Y-81938000D01*
X104940194Y-81867931D01*
X104903835Y-81751652D01*
X104836582Y-81650065D01*
X104743738Y-81571180D01*
X104632624Y-81521215D01*
X104512000Y-81504111D01*
X102988000Y-81504111D01*
X102917931Y-81509806D01*
X102801652Y-81546165D01*
X102700065Y-81613418D01*
X102621180Y-81706262D01*
X102571215Y-81817376D01*
X102554111Y-81938000D01*
X102554111Y-83462000D01*
X102559806Y-83532069D01*
X102596165Y-83648348D01*
X102663418Y-83749935D01*
X102756262Y-83828820D01*
X102867376Y-83878785D01*
X102988000Y-83895889D01*
X103229300Y-83895889D01*
X103229300Y-85014000D01*
X103233991Y-85061849D01*
X103238186Y-85109784D01*
X103238949Y-85112413D01*
X103239217Y-85115138D01*
X103253110Y-85161154D01*
X103266537Y-85207371D01*
X103267798Y-85209804D01*
X103268589Y-85212423D01*
X103291157Y-85254867D01*
X103313304Y-85297593D01*
X103315012Y-85299732D01*
X103316298Y-85302151D01*
X103346695Y-85339421D01*
X103376705Y-85377014D01*
X103380468Y-85380831D01*
X103380527Y-85380903D01*
X103380592Y-85380957D01*
X103381809Y-85382191D01*
X104237300Y-86237681D01*
X104237300Y-95928000D01*
X104241991Y-95975849D01*
X104246186Y-96023784D01*
X104246949Y-96026413D01*
X104247217Y-96029138D01*
X104261110Y-96075154D01*
X104274537Y-96121371D01*
X104275798Y-96123804D01*
X104276589Y-96126423D01*
X104299157Y-96168867D01*
X104321304Y-96211593D01*
X104323012Y-96213732D01*
X104324298Y-96216151D01*
X104354695Y-96253421D01*
X104384705Y-96291014D01*
X104388468Y-96294831D01*
X104388527Y-96294903D01*
X104388592Y-96294957D01*
X104389809Y-96296191D01*
X106261618Y-98168000D01*
X106185958Y-98168000D01*
X105835750Y-98168000D01*
X105677000Y-98326750D01*
X105677000Y-99120500D01*
X106724750Y-99120500D01*
X106883500Y-98961750D01*
X106883500Y-98789881D01*
X107310810Y-99217191D01*
X107347972Y-99247717D01*
X107384822Y-99278637D01*
X107387220Y-99279955D01*
X107389337Y-99281694D01*
X107431700Y-99304408D01*
X107431872Y-99304503D01*
X107449935Y-99332531D01*
X107555472Y-99441818D01*
X107680227Y-99528524D01*
X107732267Y-99551260D01*
X106968308Y-100315219D01*
X106907715Y-100339700D01*
X106476946Y-100339700D01*
X106406484Y-100308015D01*
X106433723Y-100302597D01*
X106549285Y-100254730D01*
X106653289Y-100185237D01*
X106741737Y-100096789D01*
X106811230Y-99992785D01*
X106859097Y-99877223D01*
X106883500Y-99754542D01*
X106883500Y-99533250D01*
X106724750Y-99374500D01*
X105677000Y-99374500D01*
X105677000Y-99394500D01*
X105423000Y-99394500D01*
X105423000Y-99374500D01*
X105423000Y-99120500D01*
X105423000Y-98326750D01*
X105264250Y-98168000D01*
X104914042Y-98168000D01*
X104788958Y-98168000D01*
X104666277Y-98192403D01*
X104550715Y-98240270D01*
X104446711Y-98309763D01*
X104358263Y-98398211D01*
X104288770Y-98502215D01*
X104240903Y-98617777D01*
X104216500Y-98740458D01*
X104216500Y-98961750D01*
X104375250Y-99120500D01*
X105423000Y-99120500D01*
X105423000Y-99374500D01*
X104375250Y-99374500D01*
X104216500Y-99533250D01*
X104216500Y-99754542D01*
X104240903Y-99877223D01*
X104288770Y-99992785D01*
X104358263Y-100096789D01*
X104446711Y-100185237D01*
X104550715Y-100254730D01*
X104666277Y-100302597D01*
X104692110Y-100307735D01*
X104665152Y-100316165D01*
X104563565Y-100383418D01*
X104484680Y-100476262D01*
X104434715Y-100587376D01*
X104417611Y-100708000D01*
X104417611Y-101597000D01*
X104423306Y-101667069D01*
X104459665Y-101783348D01*
X104526918Y-101884935D01*
X104619762Y-101963820D01*
X104730876Y-102013785D01*
X104851500Y-102030889D01*
X106248500Y-102030889D01*
X106318569Y-102025194D01*
X106434848Y-101988835D01*
X106470398Y-101965300D01*
X106929678Y-101965300D01*
X106975098Y-101985143D01*
X107142941Y-102022046D01*
X107314754Y-102025645D01*
X107483995Y-101995803D01*
X107644216Y-101933658D01*
X107789315Y-101841575D01*
X107913764Y-101723063D01*
X108012825Y-101582636D01*
X108023249Y-101559222D01*
X108596152Y-100986320D01*
X108557900Y-101166285D01*
X108554631Y-101400378D01*
X108596894Y-101630648D01*
X108683077Y-101848324D01*
X108809900Y-102045114D01*
X108972531Y-102213523D01*
X109164775Y-102347136D01*
X109379311Y-102440865D01*
X109607965Y-102491138D01*
X109842030Y-102496041D01*
X110072590Y-102455387D01*
X110290862Y-102370725D01*
X110488533Y-102245279D01*
X110658073Y-102083828D01*
X110793025Y-101892521D01*
X110888249Y-101678645D01*
X110940117Y-101450347D01*
X110943851Y-101182942D01*
X110898377Y-100953284D01*
X110809163Y-100736833D01*
X110679605Y-100541833D01*
X110514639Y-100375711D01*
X110320547Y-100244795D01*
X110104724Y-100154071D01*
X109875390Y-100106995D01*
X109641279Y-100105361D01*
X109438412Y-100144059D01*
X110264000Y-99318472D01*
X110420264Y-99474736D01*
X110478283Y-99522393D01*
X110535795Y-99570652D01*
X110539539Y-99572710D01*
X110542843Y-99575424D01*
X110609008Y-99610901D01*
X110674804Y-99647073D01*
X110678878Y-99648365D01*
X110682645Y-99650385D01*
X110754420Y-99672328D01*
X110826009Y-99695038D01*
X110830258Y-99695514D01*
X110834345Y-99696764D01*
X110909017Y-99704349D01*
X110983652Y-99712721D01*
X110992007Y-99712779D01*
X110992163Y-99712795D01*
X110992308Y-99712781D01*
X110995000Y-99712800D01*
X113117707Y-99712800D01*
X113090303Y-99841727D01*
X113088182Y-99993639D01*
X113115608Y-100143069D01*
X113171536Y-100284327D01*
X113253835Y-100412031D01*
X113359372Y-100521318D01*
X113484127Y-100608024D01*
X113623346Y-100668848D01*
X113771729Y-100701472D01*
X113792628Y-100701909D01*
X113778804Y-100722100D01*
X113686575Y-100937284D01*
X113637900Y-101166285D01*
X113634631Y-101400378D01*
X113676894Y-101630648D01*
X113763077Y-101848324D01*
X113889900Y-102045114D01*
X114052531Y-102213523D01*
X114244775Y-102347136D01*
X114459311Y-102440865D01*
X114687965Y-102491138D01*
X114922030Y-102496041D01*
X115152590Y-102455387D01*
X115370862Y-102370725D01*
X115568533Y-102245279D01*
X115738073Y-102083828D01*
X115873025Y-101892521D01*
X115968249Y-101678645D01*
X116020117Y-101450347D01*
X116023851Y-101182942D01*
X115978377Y-100953284D01*
X115889163Y-100736833D01*
X115759605Y-100541833D01*
X115667616Y-100449200D01*
X115782818Y-100449200D01*
X116239873Y-100906255D01*
X116226575Y-100937284D01*
X116177900Y-101166285D01*
X116174631Y-101400378D01*
X116216894Y-101630648D01*
X116303077Y-101848324D01*
X116429900Y-102045114D01*
X116592531Y-102213523D01*
X116784775Y-102347136D01*
X116999311Y-102440865D01*
X117227965Y-102491138D01*
X117462030Y-102496041D01*
X117692590Y-102455387D01*
X117910862Y-102370725D01*
X118108533Y-102245279D01*
X118278073Y-102083828D01*
X118413025Y-101892521D01*
X118508249Y-101678645D01*
X118560117Y-101450347D01*
X118563851Y-101182942D01*
X118544193Y-101083666D01*
X118716645Y-101256118D01*
X118714631Y-101400378D01*
X118756894Y-101630648D01*
X118843077Y-101848324D01*
X118969900Y-102045114D01*
X119132531Y-102213523D01*
X119324775Y-102347136D01*
X119539311Y-102440865D01*
X119767965Y-102491138D01*
X120002030Y-102496041D01*
X120232590Y-102455387D01*
X120450862Y-102370725D01*
X120648533Y-102245279D01*
X120818073Y-102083828D01*
X120953025Y-101892521D01*
X121048249Y-101678645D01*
X121053000Y-101657733D01*
X121053000Y-101999458D01*
X121053000Y-102124542D01*
X121077403Y-102247223D01*
X121125270Y-102362785D01*
X121194763Y-102466789D01*
X121246174Y-102518200D01*
X113483851Y-102518200D01*
X113483851Y-101182942D01*
X113438377Y-100953284D01*
X113349163Y-100736833D01*
X113219605Y-100541833D01*
X113054639Y-100375711D01*
X112860547Y-100244795D01*
X112644724Y-100154071D01*
X112415390Y-100106995D01*
X112181279Y-100105361D01*
X111951310Y-100149230D01*
X111734241Y-100236931D01*
X111538341Y-100365125D01*
X111371071Y-100528927D01*
X111238804Y-100722100D01*
X111146575Y-100937284D01*
X111097900Y-101166285D01*
X111094631Y-101400378D01*
X111136894Y-101630648D01*
X111223077Y-101848324D01*
X111349900Y-102045114D01*
X111512531Y-102213523D01*
X111704775Y-102347136D01*
X111919311Y-102440865D01*
X112147965Y-102491138D01*
X112382030Y-102496041D01*
X112612590Y-102455387D01*
X112830862Y-102370725D01*
X113028533Y-102245279D01*
X113198073Y-102083828D01*
X113333025Y-101892521D01*
X113428249Y-101678645D01*
X113480117Y-101450347D01*
X113483851Y-101182942D01*
X113483851Y-102518200D01*
X104033500Y-102518200D01*
X104033500Y-99854542D01*
X104033500Y-99633250D01*
X104033500Y-99061750D01*
X104033500Y-98840458D01*
X104009097Y-98717777D01*
X103961230Y-98602215D01*
X103891737Y-98498211D01*
X103803289Y-98409763D01*
X103699285Y-98340270D01*
X103583723Y-98292403D01*
X103461042Y-98268000D01*
X103335958Y-98268000D01*
X102985750Y-98268000D01*
X102827000Y-98426750D01*
X102827000Y-99220500D01*
X103874750Y-99220500D01*
X104033500Y-99061750D01*
X104033500Y-99633250D01*
X103874750Y-99474500D01*
X102827000Y-99474500D01*
X102827000Y-99494500D01*
X102573000Y-99494500D01*
X102573000Y-99474500D01*
X102573000Y-99220500D01*
X102573000Y-98426750D01*
X102414250Y-98268000D01*
X102064042Y-98268000D01*
X101938958Y-98268000D01*
X101816277Y-98292403D01*
X101740520Y-98323782D01*
X101740520Y-95328595D01*
X101705012Y-95149267D01*
X101635348Y-94980251D01*
X101534183Y-94827984D01*
X101405369Y-94698268D01*
X101253812Y-94596042D01*
X101085287Y-94525200D01*
X100906211Y-94488441D01*
X100723405Y-94487165D01*
X100543834Y-94521420D01*
X100374335Y-94589902D01*
X100221366Y-94690002D01*
X100090754Y-94817907D01*
X100059354Y-94863763D01*
X100035583Y-94827984D01*
X99906769Y-94698268D01*
X99755212Y-94596042D01*
X99586687Y-94525200D01*
X99407611Y-94488441D01*
X99224805Y-94487165D01*
X99045234Y-94521420D01*
X98875735Y-94589902D01*
X98722766Y-94690002D01*
X98592154Y-94817907D01*
X98488872Y-94968746D01*
X98416856Y-95136773D01*
X98378848Y-95315588D01*
X98376295Y-95498380D01*
X98409296Y-95678187D01*
X98476593Y-95848159D01*
X98575622Y-96001823D01*
X98702613Y-96133325D01*
X98852727Y-96237657D01*
X99020247Y-96310845D01*
X99198792Y-96350101D01*
X99381562Y-96353929D01*
X99561595Y-96322185D01*
X99732032Y-96256076D01*
X99886384Y-96158122D01*
X100018770Y-96032053D01*
X100057928Y-95976541D01*
X100074222Y-96001823D01*
X100201213Y-96133325D01*
X100351327Y-96237657D01*
X100518847Y-96310845D01*
X100697392Y-96350101D01*
X100880162Y-96353929D01*
X101060195Y-96322185D01*
X101230632Y-96256076D01*
X101384984Y-96158122D01*
X101517370Y-96032053D01*
X101622747Y-95882670D01*
X101697103Y-95715665D01*
X101737604Y-95537398D01*
X101740520Y-95328595D01*
X101740520Y-98323782D01*
X101700715Y-98340270D01*
X101675000Y-98357452D01*
X101649285Y-98340270D01*
X101533723Y-98292403D01*
X101411042Y-98268000D01*
X101285958Y-98268000D01*
X100935750Y-98268000D01*
X100777000Y-98426750D01*
X100777000Y-99220500D01*
X101525250Y-99220500D01*
X101824750Y-99220500D01*
X102573000Y-99220500D01*
X102573000Y-99474500D01*
X101824750Y-99474500D01*
X101525250Y-99474500D01*
X100777000Y-99474500D01*
X100777000Y-99494500D01*
X100523000Y-99494500D01*
X100523000Y-99474500D01*
X100523000Y-99220500D01*
X100523000Y-98426750D01*
X100364250Y-98268000D01*
X100014042Y-98268000D01*
X99888958Y-98268000D01*
X99766277Y-98292403D01*
X99650715Y-98340270D01*
X99546711Y-98409763D01*
X99458263Y-98498211D01*
X99388770Y-98602215D01*
X99340903Y-98717777D01*
X99316500Y-98840458D01*
X99316500Y-99061750D01*
X99475250Y-99220500D01*
X100523000Y-99220500D01*
X100523000Y-99474500D01*
X99475250Y-99474500D01*
X99316500Y-99633250D01*
X99316500Y-99854542D01*
X99340903Y-99977223D01*
X99388770Y-100092785D01*
X99458263Y-100196789D01*
X99546711Y-100285237D01*
X99650715Y-100354730D01*
X99766277Y-100402597D01*
X99792110Y-100407735D01*
X99765152Y-100416165D01*
X99663565Y-100483418D01*
X99605797Y-100551407D01*
X99527193Y-100518365D01*
X99378370Y-100487816D01*
X99226447Y-100486756D01*
X99077212Y-100515224D01*
X98936348Y-100572137D01*
X98809222Y-100655326D01*
X98700674Y-100761623D01*
X98614841Y-100886980D01*
X98554991Y-101026621D01*
X98523403Y-101175227D01*
X98521282Y-101327139D01*
X98548708Y-101476569D01*
X98604636Y-101617827D01*
X98686935Y-101745531D01*
X98792472Y-101854818D01*
X98917227Y-101941524D01*
X99056446Y-102002348D01*
X99204829Y-102034972D01*
X99356722Y-102038154D01*
X99506340Y-102011772D01*
X99616418Y-101969075D01*
X99626918Y-101984935D01*
X99719762Y-102063820D01*
X99830876Y-102113785D01*
X99951500Y-102130889D01*
X101348500Y-102130889D01*
X101418569Y-102125194D01*
X101534848Y-102088835D01*
X101636435Y-102021582D01*
X101672825Y-101978752D01*
X101676918Y-101984935D01*
X101769762Y-102063820D01*
X101880876Y-102113785D01*
X102001500Y-102130889D01*
X103398500Y-102130889D01*
X103468569Y-102125194D01*
X103584848Y-102088835D01*
X103686435Y-102021582D01*
X103765320Y-101928738D01*
X103815285Y-101817624D01*
X103832389Y-101697000D01*
X103832389Y-100808000D01*
X103826694Y-100737931D01*
X103790335Y-100621652D01*
X103723082Y-100520065D01*
X103630238Y-100441180D01*
X103556484Y-100408015D01*
X103583723Y-100402597D01*
X103699285Y-100354730D01*
X103803289Y-100285237D01*
X103891737Y-100196789D01*
X103961230Y-100092785D01*
X104009097Y-99977223D01*
X104033500Y-99854542D01*
X104033500Y-102518200D01*
X96233889Y-102518200D01*
X96233889Y-96100000D01*
X96233889Y-94600000D01*
X96228194Y-94529931D01*
X96191835Y-94413652D01*
X96124582Y-94312065D01*
X96031738Y-94233180D01*
X95920624Y-94183215D01*
X95800000Y-94166111D01*
X92400000Y-94166111D01*
X92329931Y-94171806D01*
X92213652Y-94208165D01*
X92112065Y-94275418D01*
X92033180Y-94368262D01*
X91983215Y-94479376D01*
X91966111Y-94600000D01*
X91966111Y-96100000D01*
X91971806Y-96170069D01*
X92008165Y-96286348D01*
X92075418Y-96387935D01*
X92168262Y-96466820D01*
X92279376Y-96516785D01*
X92400000Y-96533889D01*
X95800000Y-96533889D01*
X95870069Y-96528194D01*
X95986348Y-96491835D01*
X96087935Y-96424582D01*
X96166820Y-96331738D01*
X96216785Y-96220624D01*
X96233889Y-96100000D01*
X96233889Y-102518200D01*
X94666410Y-102518200D01*
X94666410Y-98180083D01*
X94625422Y-97907967D01*
X94532136Y-97649077D01*
X94470156Y-97533120D01*
X94230065Y-97466140D01*
X94050460Y-97645745D01*
X94050460Y-97286535D01*
X93983480Y-97046444D01*
X93734452Y-96929344D01*
X93467365Y-96863077D01*
X93192483Y-96850190D01*
X92920367Y-96891178D01*
X92661477Y-96984464D01*
X92545520Y-97046444D01*
X92478540Y-97286535D01*
X93264500Y-98072495D01*
X94050460Y-97286535D01*
X94050460Y-97645745D01*
X93444105Y-98252100D01*
X94230065Y-99038060D01*
X94470156Y-98971080D01*
X94587256Y-98722052D01*
X94653523Y-98454965D01*
X94666410Y-98180083D01*
X94666410Y-102518200D01*
X94133851Y-102518200D01*
X94133851Y-100882942D01*
X94088377Y-100653284D01*
X93999163Y-100436833D01*
X93869605Y-100241833D01*
X93704639Y-100075711D01*
X93510547Y-99944795D01*
X93294724Y-99854071D01*
X93104992Y-99815124D01*
X92887880Y-99598012D01*
X93061635Y-99641123D01*
X93336517Y-99654010D01*
X93608633Y-99613022D01*
X93867523Y-99519736D01*
X93983480Y-99457756D01*
X94050460Y-99217665D01*
X93264500Y-98431705D01*
X93250357Y-98445847D01*
X93070752Y-98266242D01*
X93084895Y-98252100D01*
X92298935Y-97466140D01*
X92058844Y-97533120D01*
X91941744Y-97782148D01*
X91885000Y-98010852D01*
X91885000Y-93562542D01*
X91885000Y-93285750D01*
X91726250Y-93127000D01*
X89127000Y-93127000D01*
X89127000Y-93976250D01*
X89285750Y-94135000D01*
X91187458Y-94135000D01*
X91312542Y-94135000D01*
X91435223Y-94110597D01*
X91550785Y-94062730D01*
X91654789Y-93993237D01*
X91743237Y-93904789D01*
X91812730Y-93800785D01*
X91860597Y-93685223D01*
X91885000Y-93562542D01*
X91885000Y-98010852D01*
X91875477Y-98049235D01*
X91862590Y-98324117D01*
X91903578Y-98596233D01*
X91913422Y-98623554D01*
X87424868Y-94135000D01*
X88714250Y-94135000D01*
X88873000Y-93976250D01*
X88873000Y-93127000D01*
X88853000Y-93127000D01*
X88853000Y-92873000D01*
X88873000Y-92873000D01*
X88873000Y-92853000D01*
X89127000Y-92853000D01*
X89127000Y-92873000D01*
X91726250Y-92873000D01*
X91885000Y-92714250D01*
X91885000Y-92437458D01*
X91860597Y-92314777D01*
X91812730Y-92199215D01*
X91743237Y-92095211D01*
X91654789Y-92006763D01*
X91550785Y-91937270D01*
X91438174Y-91890625D01*
X91537935Y-91824582D01*
X91616820Y-91731738D01*
X91666785Y-91620624D01*
X91683889Y-91500000D01*
X91683889Y-90500000D01*
X91678194Y-90429931D01*
X91641835Y-90313652D01*
X91574582Y-90212065D01*
X91481738Y-90133180D01*
X91370624Y-90083215D01*
X91250000Y-90066111D01*
X86750000Y-90066111D01*
X86679931Y-90071806D01*
X86563652Y-90108165D01*
X86462065Y-90175418D01*
X86383180Y-90268262D01*
X86333215Y-90379376D01*
X86316111Y-90500000D01*
X86316111Y-90540021D01*
X86012800Y-90843332D01*
X86012800Y-88828700D01*
X86012800Y-88666462D01*
X87374043Y-87305218D01*
X87418722Y-87306154D01*
X87568340Y-87279772D01*
X87709985Y-87224832D01*
X87838260Y-87143425D01*
X87948281Y-87038654D01*
X88035857Y-86914508D01*
X88097651Y-86775716D01*
X88131310Y-86627565D01*
X88133733Y-86454037D01*
X88104223Y-86305004D01*
X88046329Y-86164541D01*
X87962254Y-86037998D01*
X87855201Y-85930196D01*
X87729249Y-85845239D01*
X87589193Y-85786365D01*
X87440370Y-85755816D01*
X87288447Y-85754756D01*
X87139212Y-85783224D01*
X86998348Y-85840137D01*
X86871222Y-85923326D01*
X86762674Y-86029623D01*
X86676841Y-86154980D01*
X86616991Y-86294621D01*
X86585403Y-86443227D01*
X86584410Y-86514327D01*
X85058869Y-88039869D01*
X85026115Y-88079743D01*
X84992927Y-88119296D01*
X84991511Y-88121871D01*
X84989646Y-88124142D01*
X84965259Y-88169622D01*
X84940387Y-88214865D01*
X84939498Y-88217667D01*
X84938110Y-88220256D01*
X84923029Y-88269584D01*
X84907411Y-88318819D01*
X84907083Y-88321742D01*
X84906225Y-88324549D01*
X84901012Y-88375863D01*
X84895254Y-88427198D01*
X84895214Y-88432939D01*
X84895203Y-88433050D01*
X84895212Y-88433153D01*
X84895200Y-88435000D01*
X84895200Y-88828700D01*
X84895200Y-94023000D01*
X84900241Y-94074413D01*
X84904736Y-94125791D01*
X84905554Y-94128609D01*
X84905842Y-94131538D01*
X84920766Y-94180969D01*
X84935162Y-94230520D01*
X84936515Y-94233130D01*
X84937364Y-94235942D01*
X84961586Y-94281497D01*
X84985351Y-94327344D01*
X84987184Y-94329641D01*
X84988564Y-94332235D01*
X85021174Y-94372219D01*
X85053390Y-94412576D01*
X85057420Y-94416662D01*
X85057492Y-94416750D01*
X85057572Y-94416816D01*
X85058869Y-94418131D01*
X88995702Y-98354965D01*
X88966491Y-98423121D01*
X88934903Y-98571727D01*
X88932782Y-98723639D01*
X88960208Y-98873069D01*
X89016136Y-99014327D01*
X89098435Y-99142031D01*
X89203972Y-99251318D01*
X89328727Y-99338024D01*
X89467946Y-99398848D01*
X89616329Y-99431472D01*
X89768222Y-99434654D01*
X89917840Y-99408272D01*
X90059485Y-99353332D01*
X90187760Y-99271925D01*
X90297781Y-99167154D01*
X90385357Y-99043008D01*
X90387754Y-99037622D01*
X91853830Y-100503698D01*
X91796575Y-100637284D01*
X91747900Y-100866285D01*
X91744631Y-101100378D01*
X91786894Y-101330648D01*
X91873077Y-101548324D01*
X91999900Y-101745114D01*
X92162531Y-101913523D01*
X92354775Y-102047136D01*
X92569311Y-102140865D01*
X92797965Y-102191138D01*
X93032030Y-102196041D01*
X93262590Y-102155387D01*
X93480862Y-102070725D01*
X93678533Y-101945279D01*
X93848073Y-101783828D01*
X93983025Y-101592521D01*
X94078249Y-101378645D01*
X94130117Y-101150347D01*
X94133851Y-100882942D01*
X94133851Y-102518200D01*
X91593851Y-102518200D01*
X91593851Y-100882942D01*
X91548377Y-100653284D01*
X91459163Y-100436833D01*
X91329605Y-100241833D01*
X91164639Y-100075711D01*
X90970547Y-99944795D01*
X90754724Y-99854071D01*
X90525390Y-99806995D01*
X90291279Y-99805361D01*
X90061310Y-99849230D01*
X89844241Y-99936931D01*
X89648341Y-100065125D01*
X89481071Y-100228927D01*
X89348804Y-100422100D01*
X89256575Y-100637284D01*
X89207900Y-100866285D01*
X89204631Y-101100378D01*
X89246894Y-101330648D01*
X89333077Y-101548324D01*
X89459900Y-101745114D01*
X89622531Y-101913523D01*
X89814775Y-102047136D01*
X90029311Y-102140865D01*
X90257965Y-102191138D01*
X90492030Y-102196041D01*
X90722590Y-102155387D01*
X90940862Y-102070725D01*
X91138533Y-101945279D01*
X91308073Y-101783828D01*
X91443025Y-101592521D01*
X91538249Y-101378645D01*
X91590117Y-101150347D01*
X91593851Y-100882942D01*
X91593851Y-102518200D01*
X89055889Y-102518200D01*
X89055889Y-101762000D01*
X89055889Y-100238000D01*
X89050194Y-100167931D01*
X89013835Y-100051652D01*
X88946582Y-99950065D01*
X88853738Y-99871180D01*
X88742624Y-99821215D01*
X88622000Y-99804111D01*
X87098000Y-99804111D01*
X87027931Y-99809806D01*
X86911652Y-99846165D01*
X86810065Y-99913418D01*
X86731180Y-100006262D01*
X86681215Y-100117376D01*
X86664111Y-100238000D01*
X86664111Y-101762000D01*
X86669806Y-101832069D01*
X86706165Y-101948348D01*
X86773418Y-102049935D01*
X86866262Y-102128820D01*
X86977376Y-102178785D01*
X87098000Y-102195889D01*
X88622000Y-102195889D01*
X88692069Y-102190194D01*
X88808348Y-102153835D01*
X88909935Y-102086582D01*
X88988820Y-101993738D01*
X89038785Y-101882624D01*
X89055889Y-101762000D01*
X89055889Y-102518200D01*
X87023568Y-102518200D01*
X86899797Y-102506063D01*
X86803406Y-102476962D01*
X86714511Y-102429695D01*
X86636486Y-102366059D01*
X86572306Y-102288480D01*
X86524420Y-102199915D01*
X86494646Y-102103731D01*
X86481800Y-101981506D01*
X86481800Y-98000000D01*
X86477374Y-97954866D01*
X86473266Y-97909720D01*
X86472788Y-97908098D01*
X86472624Y-97906418D01*
X86459518Y-97863011D01*
X86446717Y-97819515D01*
X86445934Y-97818018D01*
X86445446Y-97816400D01*
X86424164Y-97776374D01*
X86403153Y-97736184D01*
X86402093Y-97734865D01*
X86401301Y-97733376D01*
X86372669Y-97698269D01*
X86344233Y-97662902D01*
X86342938Y-97661815D01*
X86341871Y-97660507D01*
X86306968Y-97631633D01*
X86272201Y-97602460D01*
X86270718Y-97601644D01*
X86269419Y-97600570D01*
X86229522Y-97578997D01*
X86189801Y-97557161D01*
X86188194Y-97556651D01*
X86186705Y-97555846D01*
X86143403Y-97542442D01*
X86100172Y-97528728D01*
X86098488Y-97528539D01*
X86096879Y-97528041D01*
X86051861Y-97523309D01*
X86006727Y-97518247D01*
X86003481Y-97518224D01*
X86003364Y-97518212D01*
X86003246Y-97518222D01*
X86000000Y-97518200D01*
X75023568Y-97518200D01*
X74899797Y-97506063D01*
X74803406Y-97476962D01*
X74714511Y-97429695D01*
X74636486Y-97366059D01*
X74572306Y-97288480D01*
X74524420Y-97199915D01*
X74494646Y-97103731D01*
X74481800Y-96981506D01*
X74481800Y-87023567D01*
X74493935Y-86899799D01*
X74523037Y-86803407D01*
X74570306Y-86714508D01*
X74633938Y-86636487D01*
X74711518Y-86572307D01*
X74800084Y-86524420D01*
X74896266Y-86494647D01*
X75018501Y-86481800D01*
X86000000Y-86481800D01*
X86045133Y-86477374D01*
X86090280Y-86473266D01*
X86091901Y-86472788D01*
X86093582Y-86472624D01*
X86136988Y-86459518D01*
X86180485Y-86446717D01*
X86181981Y-86445934D01*
X86183600Y-86445446D01*
X86223625Y-86424164D01*
X86263816Y-86403153D01*
X86265134Y-86402093D01*
X86266624Y-86401301D01*
X86301730Y-86372669D01*
X86337098Y-86344233D01*
X86338184Y-86342938D01*
X86339493Y-86341871D01*
X86368366Y-86306968D01*
X86397540Y-86272201D01*
X86398355Y-86270718D01*
X86399430Y-86269419D01*
X86421002Y-86229522D01*
X86442839Y-86189801D01*
X86443348Y-86188194D01*
X86444154Y-86186705D01*
X86457557Y-86143403D01*
X86471272Y-86100172D01*
X86471460Y-86098488D01*
X86471959Y-86096879D01*
X86476690Y-86051861D01*
X86481753Y-86006727D01*
X86481775Y-86003481D01*
X86481788Y-86003364D01*
X86481777Y-86003246D01*
X86481800Y-86000000D01*
X86481800Y-84254590D01*
X86577950Y-84354156D01*
X86729291Y-84459341D01*
X86898181Y-84533127D01*
X87078186Y-84572704D01*
X87262449Y-84576564D01*
X87443954Y-84544560D01*
X87615785Y-84477911D01*
X87771398Y-84379156D01*
X87823853Y-84329203D01*
X87847950Y-84354156D01*
X87999291Y-84459341D01*
X88168181Y-84533127D01*
X88348186Y-84572704D01*
X88532449Y-84576564D01*
X88713954Y-84544560D01*
X88885785Y-84477911D01*
X89041398Y-84379156D01*
X89093853Y-84329203D01*
X89117950Y-84354156D01*
X89269291Y-84459341D01*
X89438181Y-84533127D01*
X89618186Y-84572704D01*
X89802449Y-84576564D01*
X89915286Y-84556667D01*
X90224809Y-84866190D01*
X90261940Y-84896690D01*
X90298822Y-84927637D01*
X90301224Y-84928957D01*
X90303337Y-84930693D01*
X90345661Y-84953387D01*
X90387874Y-84976594D01*
X90390487Y-84977423D01*
X90392897Y-84978715D01*
X90438863Y-84992768D01*
X90484740Y-85007321D01*
X90487460Y-85007626D01*
X90490080Y-85008427D01*
X90537912Y-85013285D01*
X90585730Y-85018649D01*
X90591090Y-85018686D01*
X90591183Y-85018696D01*
X90591269Y-85018687D01*
X90593000Y-85018700D01*
X92753828Y-85018700D01*
X92823472Y-85090818D01*
X92948227Y-85177524D01*
X93087446Y-85238348D01*
X93235829Y-85270972D01*
X93387722Y-85274154D01*
X93537340Y-85247772D01*
X93678985Y-85192832D01*
X93807260Y-85111425D01*
X93917281Y-85006654D01*
X94004857Y-84882508D01*
X94066651Y-84743716D01*
X94100310Y-84595565D01*
X94102733Y-84422037D01*
X94073223Y-84273004D01*
X94015329Y-84132541D01*
X93931254Y-84005998D01*
X93824201Y-83898196D01*
X93698249Y-83813239D01*
X93558193Y-83754365D01*
X93409370Y-83723816D01*
X93257447Y-83722756D01*
X93207194Y-83732342D01*
X93209840Y-83542848D01*
X93174042Y-83362054D01*
X93103809Y-83191656D01*
X93089398Y-83169966D01*
X93144820Y-83104738D01*
X93194785Y-82993624D01*
X93211889Y-82873000D01*
X93211889Y-81857000D01*
X93206194Y-81786931D01*
X93169835Y-81670652D01*
X93102582Y-81569065D01*
X93009738Y-81490180D01*
X92991102Y-81481800D01*
X95676462Y-81481800D01*
X95484641Y-81607325D01*
X95317371Y-81771127D01*
X95185104Y-81964300D01*
X95092875Y-82179484D01*
X95044200Y-82408485D01*
X95040931Y-82642578D01*
X95083194Y-82872848D01*
X95169377Y-83090524D01*
X95296200Y-83287314D01*
X95458831Y-83455723D01*
X95651075Y-83589336D01*
X95865611Y-83683065D01*
X96094265Y-83733338D01*
X96328330Y-83738241D01*
X96558890Y-83697587D01*
X96777162Y-83612925D01*
X96974833Y-83487479D01*
X97144373Y-83326028D01*
X97279325Y-83134721D01*
X97374549Y-82920845D01*
X97426417Y-82692547D01*
X97430151Y-82425142D01*
X97384677Y-82195484D01*
X97295463Y-81979033D01*
X97165905Y-81784033D01*
X97000939Y-81617911D01*
X96806847Y-81486995D01*
X96794488Y-81481800D01*
X97704119Y-81481800D01*
X97647480Y-81548462D01*
X97597515Y-81659576D01*
X97580411Y-81780200D01*
X97580411Y-82969326D01*
X94667008Y-85882729D01*
X94527447Y-85881756D01*
X94378212Y-85910224D01*
X94237348Y-85967137D01*
X94110222Y-86050326D01*
X94001674Y-86156623D01*
X93915841Y-86281980D01*
X93855991Y-86421621D01*
X93824403Y-86570227D01*
X93822282Y-86722139D01*
X93849708Y-86871569D01*
X93905636Y-87012827D01*
X93987935Y-87140531D01*
X94093472Y-87249818D01*
X94218227Y-87336524D01*
X94357446Y-87397348D01*
X94505829Y-87429972D01*
X94657722Y-87433154D01*
X94807340Y-87406772D01*
X94948985Y-87351832D01*
X95077260Y-87270425D01*
X95187281Y-87165654D01*
X95274857Y-87041508D01*
X95336651Y-86902716D01*
X95368726Y-86761535D01*
X98392173Y-83738089D01*
X99087827Y-83738089D01*
X99500200Y-84150462D01*
X99500200Y-86149000D01*
X99505241Y-86200413D01*
X99509736Y-86251791D01*
X99510554Y-86254609D01*
X99510842Y-86257538D01*
X99525766Y-86306969D01*
X99540162Y-86356520D01*
X99541515Y-86359130D01*
X99542364Y-86361942D01*
X99566586Y-86407497D01*
X99590351Y-86453344D01*
X99592184Y-86455641D01*
X99593564Y-86458235D01*
X99626174Y-86498219D01*
X99658390Y-86538576D01*
X99662420Y-86542662D01*
X99662492Y-86542750D01*
X99662572Y-86542816D01*
X99663869Y-86544131D01*
X99664869Y-86545131D01*
X100145038Y-87025300D01*
X98150000Y-87025300D01*
X97204755Y-87025300D01*
X97126201Y-86946196D01*
X97000249Y-86861239D01*
X96860193Y-86802365D01*
X96711370Y-86771816D01*
X96559447Y-86770756D01*
X96410212Y-86799224D01*
X96269348Y-86856137D01*
X96142222Y-86939326D01*
X96033674Y-87045623D01*
X95947841Y-87170980D01*
X95887991Y-87310621D01*
X95856403Y-87459227D01*
X95856195Y-87474079D01*
X95800000Y-87466111D01*
X92400000Y-87466111D01*
X92329931Y-87471806D01*
X92213652Y-87508165D01*
X92112065Y-87575418D01*
X92033180Y-87668262D01*
X91983215Y-87779376D01*
X91966111Y-87900000D01*
X91966111Y-89400000D01*
X91971806Y-89470069D01*
X92008165Y-89586348D01*
X92075418Y-89687935D01*
X92168262Y-89766820D01*
X92279376Y-89816785D01*
X92400000Y-89833889D01*
X95800000Y-89833889D01*
X95870069Y-89828194D01*
X95986348Y-89791835D01*
X96087935Y-89724582D01*
X96166820Y-89631738D01*
X96216785Y-89520624D01*
X96233889Y-89400000D01*
X96233889Y-88214168D01*
X96250227Y-88225524D01*
X96389446Y-88286348D01*
X96537829Y-88318972D01*
X96689722Y-88322154D01*
X96839340Y-88295772D01*
X96980985Y-88240832D01*
X96997502Y-88230349D01*
X96997282Y-88246139D01*
X97024708Y-88395569D01*
X97080636Y-88536827D01*
X97162935Y-88664531D01*
X97268472Y-88773818D01*
X97393227Y-88860524D01*
X97532446Y-88921348D01*
X97680829Y-88953972D01*
X97832722Y-88957154D01*
X97982340Y-88930772D01*
X98123985Y-88875832D01*
X98252260Y-88794425D01*
X98349631Y-88701700D01*
X100859318Y-88701700D01*
X101570720Y-89413101D01*
X101569282Y-89516139D01*
X101596708Y-89665569D01*
X101652636Y-89806827D01*
X101734935Y-89934531D01*
X101840472Y-90043818D01*
X101965227Y-90130524D01*
X102104446Y-90191348D01*
X102252829Y-90223972D01*
X102404722Y-90227154D01*
X102554340Y-90200772D01*
X102695985Y-90145832D01*
X102824260Y-90064425D01*
X102934281Y-89959654D01*
X103021857Y-89835508D01*
X103083651Y-89696716D01*
X103117310Y-89548565D01*
X103119733Y-89375037D01*
X103090223Y-89226004D01*
X103032329Y-89085541D01*
X102948254Y-88958998D01*
X102933631Y-88944272D01*
X102934281Y-88943654D01*
X103021857Y-88819508D01*
X103083651Y-88680716D01*
X103117310Y-88532565D01*
X103119733Y-88359037D01*
X103090223Y-88210004D01*
X103032329Y-88069541D01*
X102948254Y-87942998D01*
X102841201Y-87835196D01*
X102757674Y-87778855D01*
X102829260Y-87733425D01*
X102939281Y-87628654D01*
X103026857Y-87504508D01*
X103088651Y-87365716D01*
X103122310Y-87217565D01*
X103124733Y-87044037D01*
X103095223Y-86895004D01*
X103037329Y-86754541D01*
X102953254Y-86627998D01*
X102846201Y-86520196D01*
X102720249Y-86435239D01*
X102580193Y-86376365D01*
X102431370Y-86345816D01*
X102279447Y-86344756D01*
X102130212Y-86373224D01*
X102060969Y-86401200D01*
X101101462Y-86401200D01*
X100617800Y-85917538D01*
X100617800Y-83919000D01*
X100612763Y-83867632D01*
X100608265Y-83816209D01*
X100607444Y-83813385D01*
X100607158Y-83810462D01*
X100592245Y-83761071D01*
X100577838Y-83711480D01*
X100576484Y-83708869D01*
X100575636Y-83706058D01*
X100551413Y-83660502D01*
X100527649Y-83614656D01*
X100525815Y-83612358D01*
X100524436Y-83609765D01*
X100491825Y-83569780D01*
X100459610Y-83529424D01*
X100455579Y-83525337D01*
X100455508Y-83525250D01*
X100455427Y-83525183D01*
X100454131Y-83523869D01*
X99972189Y-83041927D01*
X99972189Y-81780200D01*
X99966494Y-81710131D01*
X99930135Y-81593852D01*
X99862882Y-81492265D01*
X99850565Y-81481800D01*
X122976432Y-81481800D01*
X123100200Y-81493935D01*
X123196592Y-81523037D01*
X123285491Y-81570306D01*
X123363512Y-81633938D01*
X123427692Y-81711518D01*
X123475579Y-81800084D01*
X123505352Y-81896266D01*
X123518200Y-82018501D01*
X123518200Y-90159820D01*
X123499605Y-90131833D01*
X123477851Y-90109926D01*
X123477851Y-85777942D01*
X123432377Y-85548284D01*
X123343163Y-85331833D01*
X123213605Y-85136833D01*
X123048639Y-84970711D01*
X122854547Y-84839795D01*
X122638724Y-84749071D01*
X122409390Y-84701995D01*
X122175279Y-84700361D01*
X121945310Y-84744230D01*
X121728241Y-84831931D01*
X121532341Y-84960125D01*
X121365071Y-85123927D01*
X121232804Y-85317100D01*
X121140575Y-85532284D01*
X121091900Y-85761285D01*
X121088631Y-85995378D01*
X121130894Y-86225648D01*
X121217077Y-86443324D01*
X121343900Y-86640114D01*
X121506531Y-86808523D01*
X121698775Y-86942136D01*
X121913311Y-87035865D01*
X122141965Y-87086138D01*
X122376030Y-87091041D01*
X122606590Y-87050387D01*
X122824862Y-86965725D01*
X123022533Y-86840279D01*
X123192073Y-86678828D01*
X123327025Y-86487521D01*
X123422249Y-86273645D01*
X123474117Y-86045347D01*
X123477851Y-85777942D01*
X123477851Y-90109926D01*
X123334639Y-89965711D01*
X123140547Y-89834795D01*
X122924724Y-89744071D01*
X122695390Y-89696995D01*
X122461279Y-89695361D01*
X122231310Y-89739230D01*
X122014241Y-89826931D01*
X121818341Y-89955125D01*
X121651071Y-90118927D01*
X121518804Y-90312100D01*
X121426575Y-90527284D01*
X121377900Y-90756285D01*
X121374631Y-90990378D01*
X121416894Y-91220648D01*
X121441307Y-91282310D01*
X121223851Y-91499766D01*
X121223851Y-90772942D01*
X121178377Y-90543284D01*
X121089163Y-90326833D01*
X120959605Y-90131833D01*
X120794639Y-89965711D01*
X120600547Y-89834795D01*
X120384724Y-89744071D01*
X120155390Y-89696995D01*
X119921279Y-89695361D01*
X119691310Y-89739230D01*
X119474241Y-89826931D01*
X119278341Y-89955125D01*
X119111071Y-90118927D01*
X118978804Y-90312100D01*
X118886575Y-90527284D01*
X118867733Y-90615929D01*
X118867733Y-89375037D01*
X118838223Y-89226004D01*
X118780329Y-89085541D01*
X118696254Y-88958998D01*
X118613700Y-88875866D01*
X118613700Y-87103962D01*
X118682281Y-87038654D01*
X118769857Y-86914508D01*
X118831651Y-86775716D01*
X118865310Y-86627565D01*
X118867733Y-86454037D01*
X118838223Y-86305004D01*
X118780329Y-86164541D01*
X118696254Y-86037998D01*
X118589201Y-85930196D01*
X118463249Y-85845239D01*
X118323193Y-85786365D01*
X118174370Y-85755816D01*
X118022447Y-85754756D01*
X117873212Y-85783224D01*
X117732348Y-85840137D01*
X117643851Y-85898047D01*
X117643851Y-82582942D01*
X117598377Y-82353284D01*
X117509163Y-82136833D01*
X117379605Y-81941833D01*
X117214639Y-81775711D01*
X117020547Y-81644795D01*
X116804724Y-81554071D01*
X116575390Y-81506995D01*
X116341279Y-81505361D01*
X116111310Y-81549230D01*
X115894241Y-81636931D01*
X115698341Y-81765125D01*
X115531071Y-81928927D01*
X115398804Y-82122100D01*
X115306575Y-82337284D01*
X115257900Y-82566285D01*
X115254631Y-82800378D01*
X115296894Y-83030648D01*
X115383077Y-83248324D01*
X115509900Y-83445114D01*
X115672531Y-83613523D01*
X115864775Y-83747136D01*
X116079311Y-83840865D01*
X116307965Y-83891138D01*
X116542030Y-83896041D01*
X116772590Y-83855387D01*
X116990862Y-83770725D01*
X117188533Y-83645279D01*
X117358073Y-83483828D01*
X117493025Y-83292521D01*
X117588249Y-83078645D01*
X117640117Y-82850347D01*
X117643851Y-82582942D01*
X117643851Y-85898047D01*
X117605222Y-85923326D01*
X117583189Y-85944901D01*
X117510749Y-85896039D01*
X117370693Y-85837165D01*
X117221870Y-85806616D01*
X117069947Y-85805556D01*
X116920712Y-85834024D01*
X116779848Y-85890937D01*
X116652722Y-85974126D01*
X116544174Y-86080423D01*
X116458341Y-86205780D01*
X116398491Y-86345421D01*
X116366903Y-86494027D01*
X116364782Y-86645939D01*
X116392208Y-86795369D01*
X116448136Y-86936627D01*
X116530435Y-87064331D01*
X116635972Y-87173618D01*
X116760727Y-87260324D01*
X116810300Y-87281982D01*
X116810300Y-87774600D01*
X116810300Y-90527565D01*
X116734674Y-90601623D01*
X116648841Y-90726980D01*
X116588991Y-90866621D01*
X116557403Y-91015227D01*
X116555282Y-91167139D01*
X116582708Y-91316569D01*
X116638636Y-91457827D01*
X116720935Y-91585531D01*
X116826472Y-91694818D01*
X116951227Y-91781524D01*
X117090446Y-91842348D01*
X117238829Y-91874972D01*
X117390722Y-91878154D01*
X117540340Y-91851772D01*
X117681985Y-91796832D01*
X117810260Y-91715425D01*
X117920281Y-91610654D01*
X118007857Y-91486508D01*
X118069651Y-91347716D01*
X118103310Y-91199565D01*
X118105733Y-91026037D01*
X118076223Y-90877004D01*
X118018329Y-90736541D01*
X117934254Y-90609998D01*
X117851700Y-90526866D01*
X117851700Y-90191022D01*
X117852446Y-90191348D01*
X118000829Y-90223972D01*
X118152722Y-90227154D01*
X118302340Y-90200772D01*
X118443985Y-90145832D01*
X118572260Y-90064425D01*
X118682281Y-89959654D01*
X118769857Y-89835508D01*
X118831651Y-89696716D01*
X118865310Y-89548565D01*
X118867733Y-89375037D01*
X118867733Y-90615929D01*
X118837900Y-90756285D01*
X118834631Y-90990378D01*
X118876894Y-91220648D01*
X118901307Y-91282310D01*
X117724809Y-92458809D01*
X117694284Y-92495970D01*
X117663363Y-92532822D01*
X117662042Y-92535224D01*
X117660307Y-92537337D01*
X117637612Y-92579661D01*
X117614406Y-92621874D01*
X117613576Y-92624487D01*
X117612285Y-92626897D01*
X117598231Y-92672863D01*
X117583679Y-92718740D01*
X117583373Y-92721460D01*
X117582573Y-92724080D01*
X117577714Y-92771912D01*
X117572351Y-92819730D01*
X117572313Y-92825090D01*
X117572304Y-92825183D01*
X117572312Y-92825269D01*
X117572300Y-92827000D01*
X117572300Y-94337565D01*
X117496674Y-94411623D01*
X117410841Y-94536980D01*
X117350991Y-94676621D01*
X117319403Y-94825227D01*
X117317282Y-94977139D01*
X117344708Y-95126569D01*
X117400636Y-95267827D01*
X117482935Y-95395531D01*
X117588472Y-95504818D01*
X117713227Y-95591524D01*
X117852446Y-95652348D01*
X118000829Y-95684972D01*
X118152722Y-95688154D01*
X118302340Y-95661772D01*
X118443985Y-95606832D01*
X118572260Y-95525425D01*
X118682281Y-95420654D01*
X118769857Y-95296508D01*
X118831651Y-95157716D01*
X118865310Y-95009565D01*
X118867733Y-94836037D01*
X118838223Y-94687004D01*
X118780329Y-94546541D01*
X118696254Y-94419998D01*
X118613700Y-94336866D01*
X118613700Y-93042681D01*
X119635791Y-92020589D01*
X119659311Y-92030865D01*
X119887965Y-92081138D01*
X120122030Y-92086041D01*
X120352590Y-92045387D01*
X120570862Y-91960725D01*
X120768533Y-91835279D01*
X120938073Y-91673828D01*
X121073025Y-91482521D01*
X121168249Y-91268645D01*
X121220117Y-91040347D01*
X121223851Y-90772942D01*
X121223851Y-91499766D01*
X120881809Y-91841809D01*
X120851284Y-91878970D01*
X120820363Y-91915822D01*
X120819042Y-91918224D01*
X120817307Y-91920337D01*
X120794612Y-91962661D01*
X120771406Y-92004874D01*
X120770576Y-92007487D01*
X120769285Y-92009897D01*
X120755231Y-92055863D01*
X120740679Y-92101740D01*
X120740373Y-92104460D01*
X120739573Y-92107080D01*
X120734714Y-92154912D01*
X120729351Y-92202730D01*
X120729313Y-92208090D01*
X120729304Y-92208183D01*
X120729312Y-92208269D01*
X120729300Y-92210000D01*
X120729300Y-92461639D01*
X120600547Y-92374795D01*
X120384724Y-92284071D01*
X120155390Y-92236995D01*
X119921279Y-92235361D01*
X119691310Y-92279230D01*
X119474241Y-92366931D01*
X119278341Y-92495125D01*
X119111071Y-92658927D01*
X118978804Y-92852100D01*
X118886575Y-93067284D01*
X118837900Y-93296285D01*
X118834631Y-93530378D01*
X118876894Y-93760648D01*
X118963077Y-93978324D01*
X119089900Y-94175114D01*
X119252531Y-94343523D01*
X119444775Y-94477136D01*
X119659311Y-94570865D01*
X119887965Y-94621138D01*
X120122030Y-94626041D01*
X120352590Y-94585387D01*
X120570862Y-94500725D01*
X120729300Y-94400177D01*
X120729300Y-95001639D01*
X120600547Y-94914795D01*
X120384724Y-94824071D01*
X120155390Y-94776995D01*
X119921279Y-94775361D01*
X119691310Y-94819230D01*
X119474241Y-94906931D01*
X119278341Y-95035125D01*
X119111071Y-95198927D01*
X118978804Y-95392100D01*
X118886575Y-95607284D01*
X118837900Y-95836285D01*
X118834631Y-96070378D01*
X118876894Y-96300648D01*
X118963077Y-96518324D01*
X119066819Y-96679300D01*
X117000833Y-96679300D01*
X117000833Y-95598037D01*
X116971323Y-95449004D01*
X116913429Y-95308541D01*
X116829354Y-95181998D01*
X116722301Y-95074196D01*
X116596349Y-94989239D01*
X116456293Y-94930365D01*
X116307470Y-94899816D01*
X116155547Y-94898756D01*
X116006312Y-94927224D01*
X115865448Y-94984137D01*
X115738322Y-95067326D01*
X115650527Y-95153300D01*
X114664681Y-95153300D01*
X114023158Y-94511777D01*
X114024733Y-94399037D01*
X113995223Y-94250004D01*
X113937329Y-94109541D01*
X113853254Y-93982998D01*
X113746201Y-93875196D01*
X113620249Y-93790239D01*
X113480193Y-93731365D01*
X113331370Y-93700816D01*
X113179447Y-93699756D01*
X113030212Y-93728224D01*
X112889348Y-93785137D01*
X112762222Y-93868326D01*
X112653674Y-93974623D01*
X112567841Y-94099980D01*
X112507991Y-94239621D01*
X112476403Y-94388227D01*
X112474282Y-94540139D01*
X112501708Y-94689569D01*
X112557636Y-94830827D01*
X112639935Y-94958531D01*
X112745472Y-95067818D01*
X112870227Y-95154524D01*
X113009446Y-95215348D01*
X113157829Y-95247972D01*
X113289345Y-95250727D01*
X114081809Y-96043190D01*
X114120312Y-96074816D01*
X114158828Y-96106680D01*
X114159634Y-96107116D01*
X114160337Y-96107693D01*
X114204215Y-96131220D01*
X114248221Y-96155014D01*
X114249093Y-96155283D01*
X114249897Y-96155715D01*
X114297555Y-96170285D01*
X114345299Y-96185065D01*
X114346208Y-96185160D01*
X114347080Y-96185427D01*
X114396604Y-96190457D01*
X114446365Y-96195687D01*
X114447277Y-96195603D01*
X114448183Y-96195696D01*
X114458720Y-96194700D01*
X115651928Y-96194700D01*
X115721572Y-96266818D01*
X115846327Y-96353524D01*
X115985546Y-96414348D01*
X116133929Y-96446972D01*
X116285822Y-96450154D01*
X116435440Y-96423772D01*
X116577085Y-96368832D01*
X116705360Y-96287425D01*
X116815381Y-96182654D01*
X116902957Y-96058508D01*
X116964751Y-95919716D01*
X116998410Y-95771565D01*
X117000833Y-95598037D01*
X117000833Y-96679300D01*
X115317407Y-96679300D01*
X115303254Y-96657998D01*
X115196201Y-96550196D01*
X115070249Y-96465239D01*
X114930193Y-96406365D01*
X114781370Y-96375816D01*
X114629447Y-96374756D01*
X114480212Y-96403224D01*
X114339348Y-96460137D01*
X114212222Y-96543326D01*
X114103674Y-96649623D01*
X114017841Y-96774980D01*
X113957991Y-96914621D01*
X113926403Y-97063227D01*
X113924282Y-97215139D01*
X113951708Y-97364569D01*
X114007636Y-97505827D01*
X114089935Y-97633531D01*
X114195472Y-97742818D01*
X114320227Y-97829524D01*
X114459446Y-97890348D01*
X114607829Y-97922972D01*
X114759722Y-97926154D01*
X114909340Y-97899772D01*
X115050985Y-97844832D01*
X115179260Y-97763425D01*
X115224125Y-97720700D01*
X118633000Y-97720700D01*
X118633000Y-98224250D01*
X118791750Y-98383000D01*
X119903000Y-98383000D01*
X119903000Y-98363000D01*
X120157000Y-98363000D01*
X120157000Y-98383000D01*
X120177000Y-98383000D01*
X120177000Y-98637000D01*
X120157000Y-98637000D01*
X120157000Y-99748250D01*
X120315750Y-99907000D01*
X120729458Y-99907000D01*
X120854542Y-99907000D01*
X120977223Y-99882597D01*
X121092785Y-99834730D01*
X121196789Y-99765237D01*
X121285237Y-99676789D01*
X121354730Y-99572785D01*
X121402597Y-99457223D01*
X121427000Y-99334542D01*
X121427000Y-98866173D01*
X121503077Y-99058324D01*
X121629900Y-99255114D01*
X121792531Y-99423523D01*
X121984775Y-99557136D01*
X122199311Y-99650865D01*
X122427965Y-99701138D01*
X122662030Y-99706041D01*
X122892590Y-99665387D01*
X123110862Y-99580725D01*
X123308533Y-99455279D01*
X123478073Y-99293828D01*
X123518200Y-99236944D01*
X123518200Y-99978888D01*
X123518200Y-99978888D01*
G37*
X123518200Y-99978888D02*
X123512785Y-99975270D01*
X123397223Y-99927403D01*
X123274542Y-99903000D01*
X122735750Y-99903000D01*
X122577000Y-100061750D01*
X122577000Y-101173000D01*
X122597000Y-101173000D01*
X122597000Y-101427000D01*
X122577000Y-101427000D01*
X122577000Y-101447000D01*
X122323000Y-101447000D01*
X122323000Y-101427000D01*
X122303000Y-101427000D01*
X122303000Y-101173000D01*
X122323000Y-101173000D01*
X122323000Y-100061750D01*
X122164250Y-99903000D01*
X121625458Y-99903000D01*
X121502777Y-99927403D01*
X121387215Y-99975270D01*
X121283211Y-100044763D01*
X121194763Y-100133211D01*
X121125270Y-100237215D01*
X121077403Y-100352777D01*
X121053000Y-100475458D01*
X121053000Y-100600542D01*
X121053000Y-100940238D01*
X120969163Y-100736833D01*
X120839605Y-100541833D01*
X120674639Y-100375711D01*
X120480547Y-100244795D01*
X120264724Y-100154071D01*
X120035390Y-100106995D01*
X119865280Y-100105807D01*
X119666472Y-99907000D01*
X119744250Y-99907000D01*
X119903000Y-99748250D01*
X119903000Y-98637000D01*
X118791750Y-98637000D01*
X118633000Y-98795750D01*
X118633000Y-98873527D01*
X118084736Y-98325264D01*
X118026716Y-98277606D01*
X117969205Y-98229348D01*
X117965460Y-98227289D01*
X117962157Y-98224576D01*
X117895991Y-98189098D01*
X117830196Y-98152927D01*
X117826121Y-98151634D01*
X117822355Y-98149615D01*
X117750579Y-98127671D01*
X117678991Y-98104962D01*
X117674741Y-98104485D01*
X117670655Y-98103236D01*
X117595982Y-98095650D01*
X117521348Y-98087279D01*
X117512992Y-98087220D01*
X117512837Y-98087205D01*
X117512691Y-98087218D01*
X117510000Y-98087200D01*
X111331672Y-98087200D01*
X110838808Y-97594336D01*
X110838737Y-97594264D01*
X110610300Y-97365827D01*
X110610300Y-93815027D01*
X110722848Y-93779835D01*
X110824435Y-93712582D01*
X110903320Y-93619738D01*
X110953285Y-93508624D01*
X110970389Y-93388000D01*
X110970389Y-93184800D01*
X112085900Y-93184800D01*
X112148962Y-93178616D01*
X112212054Y-93173097D01*
X112215516Y-93172090D01*
X112219106Y-93171739D01*
X112279791Y-93153417D01*
X112340584Y-93135755D01*
X112343781Y-93134097D01*
X112347238Y-93133054D01*
X112403152Y-93103323D01*
X112459414Y-93074161D01*
X112462237Y-93071907D01*
X112465416Y-93070217D01*
X112514478Y-93030203D01*
X112564016Y-92990657D01*
X112569034Y-92985708D01*
X112569138Y-92985624D01*
X112569217Y-92985528D01*
X112570834Y-92983934D01*
X114009934Y-91544834D01*
X114050150Y-91495872D01*
X114090863Y-91447354D01*
X114092601Y-91444192D01*
X114094889Y-91441407D01*
X114124831Y-91385565D01*
X114155343Y-91330065D01*
X114156432Y-91326630D01*
X114158138Y-91323450D01*
X114176660Y-91262863D01*
X114195814Y-91202486D01*
X114196216Y-91198899D01*
X114197270Y-91195453D01*
X114203671Y-91132429D01*
X114210733Y-91069475D01*
X114210782Y-91062428D01*
X114210796Y-91062294D01*
X114210784Y-91062168D01*
X114210800Y-91059900D01*
X114210800Y-91050000D01*
X114210800Y-89884068D01*
X115626911Y-88467956D01*
X115750985Y-88419832D01*
X115879260Y-88338425D01*
X115989281Y-88233654D01*
X116076857Y-88109508D01*
X116138651Y-87970716D01*
X116172310Y-87822565D01*
X116174733Y-87649037D01*
X116145223Y-87500004D01*
X116087329Y-87359541D01*
X116003254Y-87232998D01*
X115896201Y-87125196D01*
X115770249Y-87040239D01*
X115630193Y-86981365D01*
X115481370Y-86950816D01*
X115329447Y-86949756D01*
X115180212Y-86978224D01*
X115103851Y-87009075D01*
X115103851Y-82582942D01*
X115058377Y-82353284D01*
X114969163Y-82136833D01*
X114839605Y-81941833D01*
X114674639Y-81775711D01*
X114480547Y-81644795D01*
X114264724Y-81554071D01*
X114035390Y-81506995D01*
X113801279Y-81505361D01*
X113571310Y-81549230D01*
X113354241Y-81636931D01*
X113158341Y-81765125D01*
X112991071Y-81928927D01*
X112858804Y-82122100D01*
X112766575Y-82337284D01*
X112717900Y-82566285D01*
X112714631Y-82800378D01*
X112756894Y-83030648D01*
X112843077Y-83248324D01*
X112969900Y-83445114D01*
X113132531Y-83613523D01*
X113324775Y-83747136D01*
X113539311Y-83840865D01*
X113767965Y-83891138D01*
X114002030Y-83896041D01*
X114232590Y-83855387D01*
X114450862Y-83770725D01*
X114648533Y-83645279D01*
X114818073Y-83483828D01*
X114953025Y-83292521D01*
X115048249Y-83078645D01*
X115100117Y-82850347D01*
X115103851Y-82582942D01*
X115103851Y-87009075D01*
X115039348Y-87035137D01*
X114912222Y-87118326D01*
X114803674Y-87224623D01*
X114717841Y-87349980D01*
X114657991Y-87489621D01*
X114655961Y-87499170D01*
X113040066Y-89115066D01*
X112999849Y-89164027D01*
X112959137Y-89212546D01*
X112957398Y-89215707D01*
X112955111Y-89218493D01*
X112925168Y-89274334D01*
X112894657Y-89329835D01*
X112893567Y-89333269D01*
X112891862Y-89336450D01*
X112873339Y-89397036D01*
X112854186Y-89457414D01*
X112853783Y-89461000D01*
X112852730Y-89464447D01*
X112846328Y-89527470D01*
X112839267Y-89590425D01*
X112839217Y-89597471D01*
X112839204Y-89597606D01*
X112839215Y-89597731D01*
X112839200Y-89600000D01*
X112839200Y-90775832D01*
X112782000Y-90833032D01*
X112782000Y-89861042D01*
X112782000Y-89735958D01*
X112782000Y-89385750D01*
X112782000Y-88814250D01*
X112782000Y-88464042D01*
X112782000Y-88338958D01*
X112757597Y-88216277D01*
X112709730Y-88100715D01*
X112640237Y-87996711D01*
X112563851Y-87920325D01*
X112563851Y-82582942D01*
X112518377Y-82353284D01*
X112429163Y-82136833D01*
X112299605Y-81941833D01*
X112134639Y-81775711D01*
X111940547Y-81644795D01*
X111724724Y-81554071D01*
X111495390Y-81506995D01*
X111261279Y-81505361D01*
X111031310Y-81549230D01*
X110814241Y-81636931D01*
X110618341Y-81765125D01*
X110451071Y-81928927D01*
X110318804Y-82122100D01*
X110226575Y-82337284D01*
X110177900Y-82566285D01*
X110174631Y-82800378D01*
X110216894Y-83030648D01*
X110303077Y-83248324D01*
X110429900Y-83445114D01*
X110592531Y-83613523D01*
X110784775Y-83747136D01*
X110999311Y-83840865D01*
X111227965Y-83891138D01*
X111462030Y-83896041D01*
X111692590Y-83855387D01*
X111910862Y-83770725D01*
X112108533Y-83645279D01*
X112278073Y-83483828D01*
X112413025Y-83292521D01*
X112508249Y-83078645D01*
X112560117Y-82850347D01*
X112563851Y-82582942D01*
X112563851Y-87920325D01*
X112551789Y-87908263D01*
X112447785Y-87838770D01*
X112332223Y-87790903D01*
X112209542Y-87766500D01*
X111988250Y-87766500D01*
X111829500Y-87925250D01*
X111829500Y-88973000D01*
X112623250Y-88973000D01*
X112782000Y-88814250D01*
X112782000Y-89385750D01*
X112623250Y-89227000D01*
X111829500Y-89227000D01*
X111829500Y-90274750D01*
X111988250Y-90433500D01*
X112209542Y-90433500D01*
X112332223Y-90409097D01*
X112447785Y-90361230D01*
X112551789Y-90291737D01*
X112640237Y-90203289D01*
X112709730Y-90099285D01*
X112757597Y-89983723D01*
X112782000Y-89861042D01*
X112782000Y-90833032D01*
X111801832Y-91813200D01*
X111662849Y-91813200D01*
X111666733Y-91778575D01*
X111666782Y-91771528D01*
X111666796Y-91771394D01*
X111666784Y-91771268D01*
X111666800Y-91769000D01*
X111666800Y-90213000D01*
X111660616Y-90149933D01*
X111655097Y-90086846D01*
X111654090Y-90083382D01*
X111653739Y-90079794D01*
X111635431Y-90019155D01*
X111617756Y-89958316D01*
X111616096Y-89955113D01*
X111615054Y-89951662D01*
X111585331Y-89895762D01*
X111575500Y-89876795D01*
X111575500Y-89227000D01*
X111555500Y-89227000D01*
X111555500Y-88973000D01*
X111575500Y-88973000D01*
X111575500Y-87925250D01*
X111416750Y-87766500D01*
X111195458Y-87766500D01*
X111072777Y-87790903D01*
X110957215Y-87838770D01*
X110853211Y-87908263D01*
X110764763Y-87996711D01*
X110695270Y-88100715D01*
X110647403Y-88216277D01*
X110642264Y-88242110D01*
X110633835Y-88215152D01*
X110566582Y-88113565D01*
X110473738Y-88034680D01*
X110362624Y-87984715D01*
X110242000Y-87967611D01*
X110023851Y-87967611D01*
X110023851Y-82582942D01*
X109978377Y-82353284D01*
X109889163Y-82136833D01*
X109759605Y-81941833D01*
X109594639Y-81775711D01*
X109400547Y-81644795D01*
X109184724Y-81554071D01*
X108955390Y-81506995D01*
X108721279Y-81505361D01*
X108491310Y-81549230D01*
X108274241Y-81636931D01*
X108078341Y-81765125D01*
X107911071Y-81928927D01*
X107778804Y-82122100D01*
X107686575Y-82337284D01*
X107637900Y-82566285D01*
X107634631Y-82800378D01*
X107676894Y-83030648D01*
X107763077Y-83248324D01*
X107889900Y-83445114D01*
X108052531Y-83613523D01*
X108244775Y-83747136D01*
X108459311Y-83840865D01*
X108687965Y-83891138D01*
X108922030Y-83896041D01*
X109152590Y-83855387D01*
X109370862Y-83770725D01*
X109568533Y-83645279D01*
X109738073Y-83483828D01*
X109873025Y-83292521D01*
X109968249Y-83078645D01*
X110020117Y-82850347D01*
X110023851Y-82582942D01*
X110023851Y-87967611D01*
X109353000Y-87967611D01*
X109282931Y-87973306D01*
X109166652Y-88009665D01*
X109065065Y-88076918D01*
X108986180Y-88169762D01*
X108936215Y-88280876D01*
X108919111Y-88401500D01*
X108919111Y-88541200D01*
X106674962Y-88541200D01*
X106675733Y-88486037D01*
X106646223Y-88337004D01*
X106588329Y-88196541D01*
X106504254Y-88069998D01*
X106397201Y-87962196D01*
X106271249Y-87877239D01*
X106131193Y-87818365D01*
X105982370Y-87787816D01*
X105830447Y-87786756D01*
X105786700Y-87795101D01*
X105786700Y-86276000D01*
X105786700Y-85348681D01*
X106650191Y-84485190D01*
X106680717Y-84448027D01*
X106711637Y-84411178D01*
X106712955Y-84408779D01*
X106714694Y-84406663D01*
X106737408Y-84364299D01*
X106760594Y-84322126D01*
X106761422Y-84319512D01*
X106762715Y-84317103D01*
X106776768Y-84271136D01*
X106791321Y-84225260D01*
X106791626Y-84222539D01*
X106792427Y-84219920D01*
X106797285Y-84172087D01*
X106802649Y-84124270D01*
X106802686Y-84118909D01*
X106802696Y-84118817D01*
X106802687Y-84118730D01*
X106802700Y-84117000D01*
X106802700Y-83781648D01*
X106830862Y-83770725D01*
X107028533Y-83645279D01*
X107198073Y-83483828D01*
X107333025Y-83292521D01*
X107428249Y-83078645D01*
X107480117Y-82850347D01*
X107483851Y-82582942D01*
X107438377Y-82353284D01*
X107349163Y-82136833D01*
X107219605Y-81941833D01*
X107054639Y-81775711D01*
X106860547Y-81644795D01*
X106644724Y-81554071D01*
X106415390Y-81506995D01*
X106181279Y-81505361D01*
X105951310Y-81549230D01*
X105734241Y-81636931D01*
X105538341Y-81765125D01*
X105371071Y-81928927D01*
X105238804Y-82122100D01*
X105146575Y-82337284D01*
X105097900Y-82566285D01*
X105094631Y-82800378D01*
X105136894Y-83030648D01*
X105223077Y-83248324D01*
X105349900Y-83445114D01*
X105512531Y-83613523D01*
X105704775Y-83747136D01*
X105761300Y-83771831D01*
X105761300Y-83901318D01*
X104897809Y-84764809D01*
X104867284Y-84801970D01*
X104836363Y-84838822D01*
X104835042Y-84841224D01*
X104833307Y-84843337D01*
X104810612Y-84885661D01*
X104787406Y-84927874D01*
X104786576Y-84930487D01*
X104785285Y-84932897D01*
X104771231Y-84978863D01*
X104756679Y-85024740D01*
X104756373Y-85027460D01*
X104755573Y-85030080D01*
X104750714Y-85077912D01*
X104745351Y-85125730D01*
X104745313Y-85131090D01*
X104745304Y-85131183D01*
X104745312Y-85131269D01*
X104745300Y-85133000D01*
X104745300Y-85272918D01*
X104270700Y-84798318D01*
X104270700Y-83895889D01*
X104512000Y-83895889D01*
X104582069Y-83890194D01*
X104698348Y-83853835D01*
X104799935Y-83786582D01*
X104878820Y-83693738D01*
X104928785Y-83582624D01*
X104945889Y-83462000D01*
X104945889Y-81938000D01*
X104940194Y-81867931D01*
X104903835Y-81751652D01*
X104836582Y-81650065D01*
X104743738Y-81571180D01*
X104632624Y-81521215D01*
X104512000Y-81504111D01*
X102988000Y-81504111D01*
X102917931Y-81509806D01*
X102801652Y-81546165D01*
X102700065Y-81613418D01*
X102621180Y-81706262D01*
X102571215Y-81817376D01*
X102554111Y-81938000D01*
X102554111Y-83462000D01*
X102559806Y-83532069D01*
X102596165Y-83648348D01*
X102663418Y-83749935D01*
X102756262Y-83828820D01*
X102867376Y-83878785D01*
X102988000Y-83895889D01*
X103229300Y-83895889D01*
X103229300Y-85014000D01*
X103233991Y-85061849D01*
X103238186Y-85109784D01*
X103238949Y-85112413D01*
X103239217Y-85115138D01*
X103253110Y-85161154D01*
X103266537Y-85207371D01*
X103267798Y-85209804D01*
X103268589Y-85212423D01*
X103291157Y-85254867D01*
X103313304Y-85297593D01*
X103315012Y-85299732D01*
X103316298Y-85302151D01*
X103346695Y-85339421D01*
X103376705Y-85377014D01*
X103380468Y-85380831D01*
X103380527Y-85380903D01*
X103380592Y-85380957D01*
X103381809Y-85382191D01*
X104237300Y-86237681D01*
X104237300Y-95928000D01*
X104241991Y-95975849D01*
X104246186Y-96023784D01*
X104246949Y-96026413D01*
X104247217Y-96029138D01*
X104261110Y-96075154D01*
X104274537Y-96121371D01*
X104275798Y-96123804D01*
X104276589Y-96126423D01*
X104299157Y-96168867D01*
X104321304Y-96211593D01*
X104323012Y-96213732D01*
X104324298Y-96216151D01*
X104354695Y-96253421D01*
X104384705Y-96291014D01*
X104388468Y-96294831D01*
X104388527Y-96294903D01*
X104388592Y-96294957D01*
X104389809Y-96296191D01*
X106261618Y-98168000D01*
X106185958Y-98168000D01*
X105835750Y-98168000D01*
X105677000Y-98326750D01*
X105677000Y-99120500D01*
X106724750Y-99120500D01*
X106883500Y-98961750D01*
X106883500Y-98789881D01*
X107310810Y-99217191D01*
X107347972Y-99247717D01*
X107384822Y-99278637D01*
X107387220Y-99279955D01*
X107389337Y-99281694D01*
X107431700Y-99304408D01*
X107431872Y-99304503D01*
X107449935Y-99332531D01*
X107555472Y-99441818D01*
X107680227Y-99528524D01*
X107732267Y-99551260D01*
X106968308Y-100315219D01*
X106907715Y-100339700D01*
X106476946Y-100339700D01*
X106406484Y-100308015D01*
X106433723Y-100302597D01*
X106549285Y-100254730D01*
X106653289Y-100185237D01*
X106741737Y-100096789D01*
X106811230Y-99992785D01*
X106859097Y-99877223D01*
X106883500Y-99754542D01*
X106883500Y-99533250D01*
X106724750Y-99374500D01*
X105677000Y-99374500D01*
X105677000Y-99394500D01*
X105423000Y-99394500D01*
X105423000Y-99374500D01*
X105423000Y-99120500D01*
X105423000Y-98326750D01*
X105264250Y-98168000D01*
X104914042Y-98168000D01*
X104788958Y-98168000D01*
X104666277Y-98192403D01*
X104550715Y-98240270D01*
X104446711Y-98309763D01*
X104358263Y-98398211D01*
X104288770Y-98502215D01*
X104240903Y-98617777D01*
X104216500Y-98740458D01*
X104216500Y-98961750D01*
X104375250Y-99120500D01*
X105423000Y-99120500D01*
X105423000Y-99374500D01*
X104375250Y-99374500D01*
X104216500Y-99533250D01*
X104216500Y-99754542D01*
X104240903Y-99877223D01*
X104288770Y-99992785D01*
X104358263Y-100096789D01*
X104446711Y-100185237D01*
X104550715Y-100254730D01*
X104666277Y-100302597D01*
X104692110Y-100307735D01*
X104665152Y-100316165D01*
X104563565Y-100383418D01*
X104484680Y-100476262D01*
X104434715Y-100587376D01*
X104417611Y-100708000D01*
X104417611Y-101597000D01*
X104423306Y-101667069D01*
X104459665Y-101783348D01*
X104526918Y-101884935D01*
X104619762Y-101963820D01*
X104730876Y-102013785D01*
X104851500Y-102030889D01*
X106248500Y-102030889D01*
X106318569Y-102025194D01*
X106434848Y-101988835D01*
X106470398Y-101965300D01*
X106929678Y-101965300D01*
X106975098Y-101985143D01*
X107142941Y-102022046D01*
X107314754Y-102025645D01*
X107483995Y-101995803D01*
X107644216Y-101933658D01*
X107789315Y-101841575D01*
X107913764Y-101723063D01*
X108012825Y-101582636D01*
X108023249Y-101559222D01*
X108596152Y-100986320D01*
X108557900Y-101166285D01*
X108554631Y-101400378D01*
X108596894Y-101630648D01*
X108683077Y-101848324D01*
X108809900Y-102045114D01*
X108972531Y-102213523D01*
X109164775Y-102347136D01*
X109379311Y-102440865D01*
X109607965Y-102491138D01*
X109842030Y-102496041D01*
X110072590Y-102455387D01*
X110290862Y-102370725D01*
X110488533Y-102245279D01*
X110658073Y-102083828D01*
X110793025Y-101892521D01*
X110888249Y-101678645D01*
X110940117Y-101450347D01*
X110943851Y-101182942D01*
X110898377Y-100953284D01*
X110809163Y-100736833D01*
X110679605Y-100541833D01*
X110514639Y-100375711D01*
X110320547Y-100244795D01*
X110104724Y-100154071D01*
X109875390Y-100106995D01*
X109641279Y-100105361D01*
X109438412Y-100144059D01*
X110264000Y-99318472D01*
X110420264Y-99474736D01*
X110478283Y-99522393D01*
X110535795Y-99570652D01*
X110539539Y-99572710D01*
X110542843Y-99575424D01*
X110609008Y-99610901D01*
X110674804Y-99647073D01*
X110678878Y-99648365D01*
X110682645Y-99650385D01*
X110754420Y-99672328D01*
X110826009Y-99695038D01*
X110830258Y-99695514D01*
X110834345Y-99696764D01*
X110909017Y-99704349D01*
X110983652Y-99712721D01*
X110992007Y-99712779D01*
X110992163Y-99712795D01*
X110992308Y-99712781D01*
X110995000Y-99712800D01*
X113117707Y-99712800D01*
X113090303Y-99841727D01*
X113088182Y-99993639D01*
X113115608Y-100143069D01*
X113171536Y-100284327D01*
X113253835Y-100412031D01*
X113359372Y-100521318D01*
X113484127Y-100608024D01*
X113623346Y-100668848D01*
X113771729Y-100701472D01*
X113792628Y-100701909D01*
X113778804Y-100722100D01*
X113686575Y-100937284D01*
X113637900Y-101166285D01*
X113634631Y-101400378D01*
X113676894Y-101630648D01*
X113763077Y-101848324D01*
X113889900Y-102045114D01*
X114052531Y-102213523D01*
X114244775Y-102347136D01*
X114459311Y-102440865D01*
X114687965Y-102491138D01*
X114922030Y-102496041D01*
X115152590Y-102455387D01*
X115370862Y-102370725D01*
X115568533Y-102245279D01*
X115738073Y-102083828D01*
X115873025Y-101892521D01*
X115968249Y-101678645D01*
X116020117Y-101450347D01*
X116023851Y-101182942D01*
X115978377Y-100953284D01*
X115889163Y-100736833D01*
X115759605Y-100541833D01*
X115667616Y-100449200D01*
X115782818Y-100449200D01*
X116239873Y-100906255D01*
X116226575Y-100937284D01*
X116177900Y-101166285D01*
X116174631Y-101400378D01*
X116216894Y-101630648D01*
X116303077Y-101848324D01*
X116429900Y-102045114D01*
X116592531Y-102213523D01*
X116784775Y-102347136D01*
X116999311Y-102440865D01*
X117227965Y-102491138D01*
X117462030Y-102496041D01*
X117692590Y-102455387D01*
X117910862Y-102370725D01*
X118108533Y-102245279D01*
X118278073Y-102083828D01*
X118413025Y-101892521D01*
X118508249Y-101678645D01*
X118560117Y-101450347D01*
X118563851Y-101182942D01*
X118544193Y-101083666D01*
X118716645Y-101256118D01*
X118714631Y-101400378D01*
X118756894Y-101630648D01*
X118843077Y-101848324D01*
X118969900Y-102045114D01*
X119132531Y-102213523D01*
X119324775Y-102347136D01*
X119539311Y-102440865D01*
X119767965Y-102491138D01*
X120002030Y-102496041D01*
X120232590Y-102455387D01*
X120450862Y-102370725D01*
X120648533Y-102245279D01*
X120818073Y-102083828D01*
X120953025Y-101892521D01*
X121048249Y-101678645D01*
X121053000Y-101657733D01*
X121053000Y-101999458D01*
X121053000Y-102124542D01*
X121077403Y-102247223D01*
X121125270Y-102362785D01*
X121194763Y-102466789D01*
X121246174Y-102518200D01*
X113483851Y-102518200D01*
X113483851Y-101182942D01*
X113438377Y-100953284D01*
X113349163Y-100736833D01*
X113219605Y-100541833D01*
X113054639Y-100375711D01*
X112860547Y-100244795D01*
X112644724Y-100154071D01*
X112415390Y-100106995D01*
X112181279Y-100105361D01*
X111951310Y-100149230D01*
X111734241Y-100236931D01*
X111538341Y-100365125D01*
X111371071Y-100528927D01*
X111238804Y-100722100D01*
X111146575Y-100937284D01*
X111097900Y-101166285D01*
X111094631Y-101400378D01*
X111136894Y-101630648D01*
X111223077Y-101848324D01*
X111349900Y-102045114D01*
X111512531Y-102213523D01*
X111704775Y-102347136D01*
X111919311Y-102440865D01*
X112147965Y-102491138D01*
X112382030Y-102496041D01*
X112612590Y-102455387D01*
X112830862Y-102370725D01*
X113028533Y-102245279D01*
X113198073Y-102083828D01*
X113333025Y-101892521D01*
X113428249Y-101678645D01*
X113480117Y-101450347D01*
X113483851Y-101182942D01*
X113483851Y-102518200D01*
X104033500Y-102518200D01*
X104033500Y-99854542D01*
X104033500Y-99633250D01*
X104033500Y-99061750D01*
X104033500Y-98840458D01*
X104009097Y-98717777D01*
X103961230Y-98602215D01*
X103891737Y-98498211D01*
X103803289Y-98409763D01*
X103699285Y-98340270D01*
X103583723Y-98292403D01*
X103461042Y-98268000D01*
X103335958Y-98268000D01*
X102985750Y-98268000D01*
X102827000Y-98426750D01*
X102827000Y-99220500D01*
X103874750Y-99220500D01*
X104033500Y-99061750D01*
X104033500Y-99633250D01*
X103874750Y-99474500D01*
X102827000Y-99474500D01*
X102827000Y-99494500D01*
X102573000Y-99494500D01*
X102573000Y-99474500D01*
X102573000Y-99220500D01*
X102573000Y-98426750D01*
X102414250Y-98268000D01*
X102064042Y-98268000D01*
X101938958Y-98268000D01*
X101816277Y-98292403D01*
X101740520Y-98323782D01*
X101740520Y-95328595D01*
X101705012Y-95149267D01*
X101635348Y-94980251D01*
X101534183Y-94827984D01*
X101405369Y-94698268D01*
X101253812Y-94596042D01*
X101085287Y-94525200D01*
X100906211Y-94488441D01*
X100723405Y-94487165D01*
X100543834Y-94521420D01*
X100374335Y-94589902D01*
X100221366Y-94690002D01*
X100090754Y-94817907D01*
X100059354Y-94863763D01*
X100035583Y-94827984D01*
X99906769Y-94698268D01*
X99755212Y-94596042D01*
X99586687Y-94525200D01*
X99407611Y-94488441D01*
X99224805Y-94487165D01*
X99045234Y-94521420D01*
X98875735Y-94589902D01*
X98722766Y-94690002D01*
X98592154Y-94817907D01*
X98488872Y-94968746D01*
X98416856Y-95136773D01*
X98378848Y-95315588D01*
X98376295Y-95498380D01*
X98409296Y-95678187D01*
X98476593Y-95848159D01*
X98575622Y-96001823D01*
X98702613Y-96133325D01*
X98852727Y-96237657D01*
X99020247Y-96310845D01*
X99198792Y-96350101D01*
X99381562Y-96353929D01*
X99561595Y-96322185D01*
X99732032Y-96256076D01*
X99886384Y-96158122D01*
X100018770Y-96032053D01*
X100057928Y-95976541D01*
X100074222Y-96001823D01*
X100201213Y-96133325D01*
X100351327Y-96237657D01*
X100518847Y-96310845D01*
X100697392Y-96350101D01*
X100880162Y-96353929D01*
X101060195Y-96322185D01*
X101230632Y-96256076D01*
X101384984Y-96158122D01*
X101517370Y-96032053D01*
X101622747Y-95882670D01*
X101697103Y-95715665D01*
X101737604Y-95537398D01*
X101740520Y-95328595D01*
X101740520Y-98323782D01*
X101700715Y-98340270D01*
X101675000Y-98357452D01*
X101649285Y-98340270D01*
X101533723Y-98292403D01*
X101411042Y-98268000D01*
X101285958Y-98268000D01*
X100935750Y-98268000D01*
X100777000Y-98426750D01*
X100777000Y-99220500D01*
X101525250Y-99220500D01*
X101824750Y-99220500D01*
X102573000Y-99220500D01*
X102573000Y-99474500D01*
X101824750Y-99474500D01*
X101525250Y-99474500D01*
X100777000Y-99474500D01*
X100777000Y-99494500D01*
X100523000Y-99494500D01*
X100523000Y-99474500D01*
X100523000Y-99220500D01*
X100523000Y-98426750D01*
X100364250Y-98268000D01*
X100014042Y-98268000D01*
X99888958Y-98268000D01*
X99766277Y-98292403D01*
X99650715Y-98340270D01*
X99546711Y-98409763D01*
X99458263Y-98498211D01*
X99388770Y-98602215D01*
X99340903Y-98717777D01*
X99316500Y-98840458D01*
X99316500Y-99061750D01*
X99475250Y-99220500D01*
X100523000Y-99220500D01*
X100523000Y-99474500D01*
X99475250Y-99474500D01*
X99316500Y-99633250D01*
X99316500Y-99854542D01*
X99340903Y-99977223D01*
X99388770Y-100092785D01*
X99458263Y-100196789D01*
X99546711Y-100285237D01*
X99650715Y-100354730D01*
X99766277Y-100402597D01*
X99792110Y-100407735D01*
X99765152Y-100416165D01*
X99663565Y-100483418D01*
X99605797Y-100551407D01*
X99527193Y-100518365D01*
X99378370Y-100487816D01*
X99226447Y-100486756D01*
X99077212Y-100515224D01*
X98936348Y-100572137D01*
X98809222Y-100655326D01*
X98700674Y-100761623D01*
X98614841Y-100886980D01*
X98554991Y-101026621D01*
X98523403Y-101175227D01*
X98521282Y-101327139D01*
X98548708Y-101476569D01*
X98604636Y-101617827D01*
X98686935Y-101745531D01*
X98792472Y-101854818D01*
X98917227Y-101941524D01*
X99056446Y-102002348D01*
X99204829Y-102034972D01*
X99356722Y-102038154D01*
X99506340Y-102011772D01*
X99616418Y-101969075D01*
X99626918Y-101984935D01*
X99719762Y-102063820D01*
X99830876Y-102113785D01*
X99951500Y-102130889D01*
X101348500Y-102130889D01*
X101418569Y-102125194D01*
X101534848Y-102088835D01*
X101636435Y-102021582D01*
X101672825Y-101978752D01*
X101676918Y-101984935D01*
X101769762Y-102063820D01*
X101880876Y-102113785D01*
X102001500Y-102130889D01*
X103398500Y-102130889D01*
X103468569Y-102125194D01*
X103584848Y-102088835D01*
X103686435Y-102021582D01*
X103765320Y-101928738D01*
X103815285Y-101817624D01*
X103832389Y-101697000D01*
X103832389Y-100808000D01*
X103826694Y-100737931D01*
X103790335Y-100621652D01*
X103723082Y-100520065D01*
X103630238Y-100441180D01*
X103556484Y-100408015D01*
X103583723Y-100402597D01*
X103699285Y-100354730D01*
X103803289Y-100285237D01*
X103891737Y-100196789D01*
X103961230Y-100092785D01*
X104009097Y-99977223D01*
X104033500Y-99854542D01*
X104033500Y-102518200D01*
X96233889Y-102518200D01*
X96233889Y-96100000D01*
X96233889Y-94600000D01*
X96228194Y-94529931D01*
X96191835Y-94413652D01*
X96124582Y-94312065D01*
X96031738Y-94233180D01*
X95920624Y-94183215D01*
X95800000Y-94166111D01*
X92400000Y-94166111D01*
X92329931Y-94171806D01*
X92213652Y-94208165D01*
X92112065Y-94275418D01*
X92033180Y-94368262D01*
X91983215Y-94479376D01*
X91966111Y-94600000D01*
X91966111Y-96100000D01*
X91971806Y-96170069D01*
X92008165Y-96286348D01*
X92075418Y-96387935D01*
X92168262Y-96466820D01*
X92279376Y-96516785D01*
X92400000Y-96533889D01*
X95800000Y-96533889D01*
X95870069Y-96528194D01*
X95986348Y-96491835D01*
X96087935Y-96424582D01*
X96166820Y-96331738D01*
X96216785Y-96220624D01*
X96233889Y-96100000D01*
X96233889Y-102518200D01*
X94666410Y-102518200D01*
X94666410Y-98180083D01*
X94625422Y-97907967D01*
X94532136Y-97649077D01*
X94470156Y-97533120D01*
X94230065Y-97466140D01*
X94050460Y-97645745D01*
X94050460Y-97286535D01*
X93983480Y-97046444D01*
X93734452Y-96929344D01*
X93467365Y-96863077D01*
X93192483Y-96850190D01*
X92920367Y-96891178D01*
X92661477Y-96984464D01*
X92545520Y-97046444D01*
X92478540Y-97286535D01*
X93264500Y-98072495D01*
X94050460Y-97286535D01*
X94050460Y-97645745D01*
X93444105Y-98252100D01*
X94230065Y-99038060D01*
X94470156Y-98971080D01*
X94587256Y-98722052D01*
X94653523Y-98454965D01*
X94666410Y-98180083D01*
X94666410Y-102518200D01*
X94133851Y-102518200D01*
X94133851Y-100882942D01*
X94088377Y-100653284D01*
X93999163Y-100436833D01*
X93869605Y-100241833D01*
X93704639Y-100075711D01*
X93510547Y-99944795D01*
X93294724Y-99854071D01*
X93104992Y-99815124D01*
X92887880Y-99598012D01*
X93061635Y-99641123D01*
X93336517Y-99654010D01*
X93608633Y-99613022D01*
X93867523Y-99519736D01*
X93983480Y-99457756D01*
X94050460Y-99217665D01*
X93264500Y-98431705D01*
X93250357Y-98445847D01*
X93070752Y-98266242D01*
X93084895Y-98252100D01*
X92298935Y-97466140D01*
X92058844Y-97533120D01*
X91941744Y-97782148D01*
X91885000Y-98010852D01*
X91885000Y-93562542D01*
X91885000Y-93285750D01*
X91726250Y-93127000D01*
X89127000Y-93127000D01*
X89127000Y-93976250D01*
X89285750Y-94135000D01*
X91187458Y-94135000D01*
X91312542Y-94135000D01*
X91435223Y-94110597D01*
X91550785Y-94062730D01*
X91654789Y-93993237D01*
X91743237Y-93904789D01*
X91812730Y-93800785D01*
X91860597Y-93685223D01*
X91885000Y-93562542D01*
X91885000Y-98010852D01*
X91875477Y-98049235D01*
X91862590Y-98324117D01*
X91903578Y-98596233D01*
X91913422Y-98623554D01*
X87424868Y-94135000D01*
X88714250Y-94135000D01*
X88873000Y-93976250D01*
X88873000Y-93127000D01*
X88853000Y-93127000D01*
X88853000Y-92873000D01*
X88873000Y-92873000D01*
X88873000Y-92853000D01*
X89127000Y-92853000D01*
X89127000Y-92873000D01*
X91726250Y-92873000D01*
X91885000Y-92714250D01*
X91885000Y-92437458D01*
X91860597Y-92314777D01*
X91812730Y-92199215D01*
X91743237Y-92095211D01*
X91654789Y-92006763D01*
X91550785Y-91937270D01*
X91438174Y-91890625D01*
X91537935Y-91824582D01*
X91616820Y-91731738D01*
X91666785Y-91620624D01*
X91683889Y-91500000D01*
X91683889Y-90500000D01*
X91678194Y-90429931D01*
X91641835Y-90313652D01*
X91574582Y-90212065D01*
X91481738Y-90133180D01*
X91370624Y-90083215D01*
X91250000Y-90066111D01*
X86750000Y-90066111D01*
X86679931Y-90071806D01*
X86563652Y-90108165D01*
X86462065Y-90175418D01*
X86383180Y-90268262D01*
X86333215Y-90379376D01*
X86316111Y-90500000D01*
X86316111Y-90540021D01*
X86012800Y-90843332D01*
X86012800Y-88828700D01*
X86012800Y-88666462D01*
X87374043Y-87305218D01*
X87418722Y-87306154D01*
X87568340Y-87279772D01*
X87709985Y-87224832D01*
X87838260Y-87143425D01*
X87948281Y-87038654D01*
X88035857Y-86914508D01*
X88097651Y-86775716D01*
X88131310Y-86627565D01*
X88133733Y-86454037D01*
X88104223Y-86305004D01*
X88046329Y-86164541D01*
X87962254Y-86037998D01*
X87855201Y-85930196D01*
X87729249Y-85845239D01*
X87589193Y-85786365D01*
X87440370Y-85755816D01*
X87288447Y-85754756D01*
X87139212Y-85783224D01*
X86998348Y-85840137D01*
X86871222Y-85923326D01*
X86762674Y-86029623D01*
X86676841Y-86154980D01*
X86616991Y-86294621D01*
X86585403Y-86443227D01*
X86584410Y-86514327D01*
X85058869Y-88039869D01*
X85026115Y-88079743D01*
X84992927Y-88119296D01*
X84991511Y-88121871D01*
X84989646Y-88124142D01*
X84965259Y-88169622D01*
X84940387Y-88214865D01*
X84939498Y-88217667D01*
X84938110Y-88220256D01*
X84923029Y-88269584D01*
X84907411Y-88318819D01*
X84907083Y-88321742D01*
X84906225Y-88324549D01*
X84901012Y-88375863D01*
X84895254Y-88427198D01*
X84895214Y-88432939D01*
X84895203Y-88433050D01*
X84895212Y-88433153D01*
X84895200Y-88435000D01*
X84895200Y-88828700D01*
X84895200Y-94023000D01*
X84900241Y-94074413D01*
X84904736Y-94125791D01*
X84905554Y-94128609D01*
X84905842Y-94131538D01*
X84920766Y-94180969D01*
X84935162Y-94230520D01*
X84936515Y-94233130D01*
X84937364Y-94235942D01*
X84961586Y-94281497D01*
X84985351Y-94327344D01*
X84987184Y-94329641D01*
X84988564Y-94332235D01*
X85021174Y-94372219D01*
X85053390Y-94412576D01*
X85057420Y-94416662D01*
X85057492Y-94416750D01*
X85057572Y-94416816D01*
X85058869Y-94418131D01*
X88995702Y-98354965D01*
X88966491Y-98423121D01*
X88934903Y-98571727D01*
X88932782Y-98723639D01*
X88960208Y-98873069D01*
X89016136Y-99014327D01*
X89098435Y-99142031D01*
X89203972Y-99251318D01*
X89328727Y-99338024D01*
X89467946Y-99398848D01*
X89616329Y-99431472D01*
X89768222Y-99434654D01*
X89917840Y-99408272D01*
X90059485Y-99353332D01*
X90187760Y-99271925D01*
X90297781Y-99167154D01*
X90385357Y-99043008D01*
X90387754Y-99037622D01*
X91853830Y-100503698D01*
X91796575Y-100637284D01*
X91747900Y-100866285D01*
X91744631Y-101100378D01*
X91786894Y-101330648D01*
X91873077Y-101548324D01*
X91999900Y-101745114D01*
X92162531Y-101913523D01*
X92354775Y-102047136D01*
X92569311Y-102140865D01*
X92797965Y-102191138D01*
X93032030Y-102196041D01*
X93262590Y-102155387D01*
X93480862Y-102070725D01*
X93678533Y-101945279D01*
X93848073Y-101783828D01*
X93983025Y-101592521D01*
X94078249Y-101378645D01*
X94130117Y-101150347D01*
X94133851Y-100882942D01*
X94133851Y-102518200D01*
X91593851Y-102518200D01*
X91593851Y-100882942D01*
X91548377Y-100653284D01*
X91459163Y-100436833D01*
X91329605Y-100241833D01*
X91164639Y-100075711D01*
X90970547Y-99944795D01*
X90754724Y-99854071D01*
X90525390Y-99806995D01*
X90291279Y-99805361D01*
X90061310Y-99849230D01*
X89844241Y-99936931D01*
X89648341Y-100065125D01*
X89481071Y-100228927D01*
X89348804Y-100422100D01*
X89256575Y-100637284D01*
X89207900Y-100866285D01*
X89204631Y-101100378D01*
X89246894Y-101330648D01*
X89333077Y-101548324D01*
X89459900Y-101745114D01*
X89622531Y-101913523D01*
X89814775Y-102047136D01*
X90029311Y-102140865D01*
X90257965Y-102191138D01*
X90492030Y-102196041D01*
X90722590Y-102155387D01*
X90940862Y-102070725D01*
X91138533Y-101945279D01*
X91308073Y-101783828D01*
X91443025Y-101592521D01*
X91538249Y-101378645D01*
X91590117Y-101150347D01*
X91593851Y-100882942D01*
X91593851Y-102518200D01*
X89055889Y-102518200D01*
X89055889Y-101762000D01*
X89055889Y-100238000D01*
X89050194Y-100167931D01*
X89013835Y-100051652D01*
X88946582Y-99950065D01*
X88853738Y-99871180D01*
X88742624Y-99821215D01*
X88622000Y-99804111D01*
X87098000Y-99804111D01*
X87027931Y-99809806D01*
X86911652Y-99846165D01*
X86810065Y-99913418D01*
X86731180Y-100006262D01*
X86681215Y-100117376D01*
X86664111Y-100238000D01*
X86664111Y-101762000D01*
X86669806Y-101832069D01*
X86706165Y-101948348D01*
X86773418Y-102049935D01*
X86866262Y-102128820D01*
X86977376Y-102178785D01*
X87098000Y-102195889D01*
X88622000Y-102195889D01*
X88692069Y-102190194D01*
X88808348Y-102153835D01*
X88909935Y-102086582D01*
X88988820Y-101993738D01*
X89038785Y-101882624D01*
X89055889Y-101762000D01*
X89055889Y-102518200D01*
X87023568Y-102518200D01*
X86899797Y-102506063D01*
X86803406Y-102476962D01*
X86714511Y-102429695D01*
X86636486Y-102366059D01*
X86572306Y-102288480D01*
X86524420Y-102199915D01*
X86494646Y-102103731D01*
X86481800Y-101981506D01*
X86481800Y-98000000D01*
X86477374Y-97954866D01*
X86473266Y-97909720D01*
X86472788Y-97908098D01*
X86472624Y-97906418D01*
X86459518Y-97863011D01*
X86446717Y-97819515D01*
X86445934Y-97818018D01*
X86445446Y-97816400D01*
X86424164Y-97776374D01*
X86403153Y-97736184D01*
X86402093Y-97734865D01*
X86401301Y-97733376D01*
X86372669Y-97698269D01*
X86344233Y-97662902D01*
X86342938Y-97661815D01*
X86341871Y-97660507D01*
X86306968Y-97631633D01*
X86272201Y-97602460D01*
X86270718Y-97601644D01*
X86269419Y-97600570D01*
X86229522Y-97578997D01*
X86189801Y-97557161D01*
X86188194Y-97556651D01*
X86186705Y-97555846D01*
X86143403Y-97542442D01*
X86100172Y-97528728D01*
X86098488Y-97528539D01*
X86096879Y-97528041D01*
X86051861Y-97523309D01*
X86006727Y-97518247D01*
X86003481Y-97518224D01*
X86003364Y-97518212D01*
X86003246Y-97518222D01*
X86000000Y-97518200D01*
X75023568Y-97518200D01*
X74899797Y-97506063D01*
X74803406Y-97476962D01*
X74714511Y-97429695D01*
X74636486Y-97366059D01*
X74572306Y-97288480D01*
X74524420Y-97199915D01*
X74494646Y-97103731D01*
X74481800Y-96981506D01*
X74481800Y-87023567D01*
X74493935Y-86899799D01*
X74523037Y-86803407D01*
X74570306Y-86714508D01*
X74633938Y-86636487D01*
X74711518Y-86572307D01*
X74800084Y-86524420D01*
X74896266Y-86494647D01*
X75018501Y-86481800D01*
X86000000Y-86481800D01*
X86045133Y-86477374D01*
X86090280Y-86473266D01*
X86091901Y-86472788D01*
X86093582Y-86472624D01*
X86136988Y-86459518D01*
X86180485Y-86446717D01*
X86181981Y-86445934D01*
X86183600Y-86445446D01*
X86223625Y-86424164D01*
X86263816Y-86403153D01*
X86265134Y-86402093D01*
X86266624Y-86401301D01*
X86301730Y-86372669D01*
X86337098Y-86344233D01*
X86338184Y-86342938D01*
X86339493Y-86341871D01*
X86368366Y-86306968D01*
X86397540Y-86272201D01*
X86398355Y-86270718D01*
X86399430Y-86269419D01*
X86421002Y-86229522D01*
X86442839Y-86189801D01*
X86443348Y-86188194D01*
X86444154Y-86186705D01*
X86457557Y-86143403D01*
X86471272Y-86100172D01*
X86471460Y-86098488D01*
X86471959Y-86096879D01*
X86476690Y-86051861D01*
X86481753Y-86006727D01*
X86481775Y-86003481D01*
X86481788Y-86003364D01*
X86481777Y-86003246D01*
X86481800Y-86000000D01*
X86481800Y-84254590D01*
X86577950Y-84354156D01*
X86729291Y-84459341D01*
X86898181Y-84533127D01*
X87078186Y-84572704D01*
X87262449Y-84576564D01*
X87443954Y-84544560D01*
X87615785Y-84477911D01*
X87771398Y-84379156D01*
X87823853Y-84329203D01*
X87847950Y-84354156D01*
X87999291Y-84459341D01*
X88168181Y-84533127D01*
X88348186Y-84572704D01*
X88532449Y-84576564D01*
X88713954Y-84544560D01*
X88885785Y-84477911D01*
X89041398Y-84379156D01*
X89093853Y-84329203D01*
X89117950Y-84354156D01*
X89269291Y-84459341D01*
X89438181Y-84533127D01*
X89618186Y-84572704D01*
X89802449Y-84576564D01*
X89915286Y-84556667D01*
X90224809Y-84866190D01*
X90261940Y-84896690D01*
X90298822Y-84927637D01*
X90301224Y-84928957D01*
X90303337Y-84930693D01*
X90345661Y-84953387D01*
X90387874Y-84976594D01*
X90390487Y-84977423D01*
X90392897Y-84978715D01*
X90438863Y-84992768D01*
X90484740Y-85007321D01*
X90487460Y-85007626D01*
X90490080Y-85008427D01*
X90537912Y-85013285D01*
X90585730Y-85018649D01*
X90591090Y-85018686D01*
X90591183Y-85018696D01*
X90591269Y-85018687D01*
X90593000Y-85018700D01*
X92753828Y-85018700D01*
X92823472Y-85090818D01*
X92948227Y-85177524D01*
X93087446Y-85238348D01*
X93235829Y-85270972D01*
X93387722Y-85274154D01*
X93537340Y-85247772D01*
X93678985Y-85192832D01*
X93807260Y-85111425D01*
X93917281Y-85006654D01*
X94004857Y-84882508D01*
X94066651Y-84743716D01*
X94100310Y-84595565D01*
X94102733Y-84422037D01*
X94073223Y-84273004D01*
X94015329Y-84132541D01*
X93931254Y-84005998D01*
X93824201Y-83898196D01*
X93698249Y-83813239D01*
X93558193Y-83754365D01*
X93409370Y-83723816D01*
X93257447Y-83722756D01*
X93207194Y-83732342D01*
X93209840Y-83542848D01*
X93174042Y-83362054D01*
X93103809Y-83191656D01*
X93089398Y-83169966D01*
X93144820Y-83104738D01*
X93194785Y-82993624D01*
X93211889Y-82873000D01*
X93211889Y-81857000D01*
X93206194Y-81786931D01*
X93169835Y-81670652D01*
X93102582Y-81569065D01*
X93009738Y-81490180D01*
X92991102Y-81481800D01*
X95676462Y-81481800D01*
X95484641Y-81607325D01*
X95317371Y-81771127D01*
X95185104Y-81964300D01*
X95092875Y-82179484D01*
X95044200Y-82408485D01*
X95040931Y-82642578D01*
X95083194Y-82872848D01*
X95169377Y-83090524D01*
X95296200Y-83287314D01*
X95458831Y-83455723D01*
X95651075Y-83589336D01*
X95865611Y-83683065D01*
X96094265Y-83733338D01*
X96328330Y-83738241D01*
X96558890Y-83697587D01*
X96777162Y-83612925D01*
X96974833Y-83487479D01*
X97144373Y-83326028D01*
X97279325Y-83134721D01*
X97374549Y-82920845D01*
X97426417Y-82692547D01*
X97430151Y-82425142D01*
X97384677Y-82195484D01*
X97295463Y-81979033D01*
X97165905Y-81784033D01*
X97000939Y-81617911D01*
X96806847Y-81486995D01*
X96794488Y-81481800D01*
X97704119Y-81481800D01*
X97647480Y-81548462D01*
X97597515Y-81659576D01*
X97580411Y-81780200D01*
X97580411Y-82969326D01*
X94667008Y-85882729D01*
X94527447Y-85881756D01*
X94378212Y-85910224D01*
X94237348Y-85967137D01*
X94110222Y-86050326D01*
X94001674Y-86156623D01*
X93915841Y-86281980D01*
X93855991Y-86421621D01*
X93824403Y-86570227D01*
X93822282Y-86722139D01*
X93849708Y-86871569D01*
X93905636Y-87012827D01*
X93987935Y-87140531D01*
X94093472Y-87249818D01*
X94218227Y-87336524D01*
X94357446Y-87397348D01*
X94505829Y-87429972D01*
X94657722Y-87433154D01*
X94807340Y-87406772D01*
X94948985Y-87351832D01*
X95077260Y-87270425D01*
X95187281Y-87165654D01*
X95274857Y-87041508D01*
X95336651Y-86902716D01*
X95368726Y-86761535D01*
X98392173Y-83738089D01*
X99087827Y-83738089D01*
X99500200Y-84150462D01*
X99500200Y-86149000D01*
X99505241Y-86200413D01*
X99509736Y-86251791D01*
X99510554Y-86254609D01*
X99510842Y-86257538D01*
X99525766Y-86306969D01*
X99540162Y-86356520D01*
X99541515Y-86359130D01*
X99542364Y-86361942D01*
X99566586Y-86407497D01*
X99590351Y-86453344D01*
X99592184Y-86455641D01*
X99593564Y-86458235D01*
X99626174Y-86498219D01*
X99658390Y-86538576D01*
X99662420Y-86542662D01*
X99662492Y-86542750D01*
X99662572Y-86542816D01*
X99663869Y-86544131D01*
X99664869Y-86545131D01*
X100145038Y-87025300D01*
X98150000Y-87025300D01*
X97204755Y-87025300D01*
X97126201Y-86946196D01*
X97000249Y-86861239D01*
X96860193Y-86802365D01*
X96711370Y-86771816D01*
X96559447Y-86770756D01*
X96410212Y-86799224D01*
X96269348Y-86856137D01*
X96142222Y-86939326D01*
X96033674Y-87045623D01*
X95947841Y-87170980D01*
X95887991Y-87310621D01*
X95856403Y-87459227D01*
X95856195Y-87474079D01*
X95800000Y-87466111D01*
X92400000Y-87466111D01*
X92329931Y-87471806D01*
X92213652Y-87508165D01*
X92112065Y-87575418D01*
X92033180Y-87668262D01*
X91983215Y-87779376D01*
X91966111Y-87900000D01*
X91966111Y-89400000D01*
X91971806Y-89470069D01*
X92008165Y-89586348D01*
X92075418Y-89687935D01*
X92168262Y-89766820D01*
X92279376Y-89816785D01*
X92400000Y-89833889D01*
X95800000Y-89833889D01*
X95870069Y-89828194D01*
X95986348Y-89791835D01*
X96087935Y-89724582D01*
X96166820Y-89631738D01*
X96216785Y-89520624D01*
X96233889Y-89400000D01*
X96233889Y-88214168D01*
X96250227Y-88225524D01*
X96389446Y-88286348D01*
X96537829Y-88318972D01*
X96689722Y-88322154D01*
X96839340Y-88295772D01*
X96980985Y-88240832D01*
X96997502Y-88230349D01*
X96997282Y-88246139D01*
X97024708Y-88395569D01*
X97080636Y-88536827D01*
X97162935Y-88664531D01*
X97268472Y-88773818D01*
X97393227Y-88860524D01*
X97532446Y-88921348D01*
X97680829Y-88953972D01*
X97832722Y-88957154D01*
X97982340Y-88930772D01*
X98123985Y-88875832D01*
X98252260Y-88794425D01*
X98349631Y-88701700D01*
X100859318Y-88701700D01*
X101570720Y-89413101D01*
X101569282Y-89516139D01*
X101596708Y-89665569D01*
X101652636Y-89806827D01*
X101734935Y-89934531D01*
X101840472Y-90043818D01*
X101965227Y-90130524D01*
X102104446Y-90191348D01*
X102252829Y-90223972D01*
X102404722Y-90227154D01*
X102554340Y-90200772D01*
X102695985Y-90145832D01*
X102824260Y-90064425D01*
X102934281Y-89959654D01*
X103021857Y-89835508D01*
X103083651Y-89696716D01*
X103117310Y-89548565D01*
X103119733Y-89375037D01*
X103090223Y-89226004D01*
X103032329Y-89085541D01*
X102948254Y-88958998D01*
X102933631Y-88944272D01*
X102934281Y-88943654D01*
X103021857Y-88819508D01*
X103083651Y-88680716D01*
X103117310Y-88532565D01*
X103119733Y-88359037D01*
X103090223Y-88210004D01*
X103032329Y-88069541D01*
X102948254Y-87942998D01*
X102841201Y-87835196D01*
X102757674Y-87778855D01*
X102829260Y-87733425D01*
X102939281Y-87628654D01*
X103026857Y-87504508D01*
X103088651Y-87365716D01*
X103122310Y-87217565D01*
X103124733Y-87044037D01*
X103095223Y-86895004D01*
X103037329Y-86754541D01*
X102953254Y-86627998D01*
X102846201Y-86520196D01*
X102720249Y-86435239D01*
X102580193Y-86376365D01*
X102431370Y-86345816D01*
X102279447Y-86344756D01*
X102130212Y-86373224D01*
X102060969Y-86401200D01*
X101101462Y-86401200D01*
X100617800Y-85917538D01*
X100617800Y-83919000D01*
X100612763Y-83867632D01*
X100608265Y-83816209D01*
X100607444Y-83813385D01*
X100607158Y-83810462D01*
X100592245Y-83761071D01*
X100577838Y-83711480D01*
X100576484Y-83708869D01*
X100575636Y-83706058D01*
X100551413Y-83660502D01*
X100527649Y-83614656D01*
X100525815Y-83612358D01*
X100524436Y-83609765D01*
X100491825Y-83569780D01*
X100459610Y-83529424D01*
X100455579Y-83525337D01*
X100455508Y-83525250D01*
X100455427Y-83525183D01*
X100454131Y-83523869D01*
X99972189Y-83041927D01*
X99972189Y-81780200D01*
X99966494Y-81710131D01*
X99930135Y-81593852D01*
X99862882Y-81492265D01*
X99850565Y-81481800D01*
X122976432Y-81481800D01*
X123100200Y-81493935D01*
X123196592Y-81523037D01*
X123285491Y-81570306D01*
X123363512Y-81633938D01*
X123427692Y-81711518D01*
X123475579Y-81800084D01*
X123505352Y-81896266D01*
X123518200Y-82018501D01*
X123518200Y-90159820D01*
X123499605Y-90131833D01*
X123477851Y-90109926D01*
X123477851Y-85777942D01*
X123432377Y-85548284D01*
X123343163Y-85331833D01*
X123213605Y-85136833D01*
X123048639Y-84970711D01*
X122854547Y-84839795D01*
X122638724Y-84749071D01*
X122409390Y-84701995D01*
X122175279Y-84700361D01*
X121945310Y-84744230D01*
X121728241Y-84831931D01*
X121532341Y-84960125D01*
X121365071Y-85123927D01*
X121232804Y-85317100D01*
X121140575Y-85532284D01*
X121091900Y-85761285D01*
X121088631Y-85995378D01*
X121130894Y-86225648D01*
X121217077Y-86443324D01*
X121343900Y-86640114D01*
X121506531Y-86808523D01*
X121698775Y-86942136D01*
X121913311Y-87035865D01*
X122141965Y-87086138D01*
X122376030Y-87091041D01*
X122606590Y-87050387D01*
X122824862Y-86965725D01*
X123022533Y-86840279D01*
X123192073Y-86678828D01*
X123327025Y-86487521D01*
X123422249Y-86273645D01*
X123474117Y-86045347D01*
X123477851Y-85777942D01*
X123477851Y-90109926D01*
X123334639Y-89965711D01*
X123140547Y-89834795D01*
X122924724Y-89744071D01*
X122695390Y-89696995D01*
X122461279Y-89695361D01*
X122231310Y-89739230D01*
X122014241Y-89826931D01*
X121818341Y-89955125D01*
X121651071Y-90118927D01*
X121518804Y-90312100D01*
X121426575Y-90527284D01*
X121377900Y-90756285D01*
X121374631Y-90990378D01*
X121416894Y-91220648D01*
X121441307Y-91282310D01*
X121223851Y-91499766D01*
X121223851Y-90772942D01*
X121178377Y-90543284D01*
X121089163Y-90326833D01*
X120959605Y-90131833D01*
X120794639Y-89965711D01*
X120600547Y-89834795D01*
X120384724Y-89744071D01*
X120155390Y-89696995D01*
X119921279Y-89695361D01*
X119691310Y-89739230D01*
X119474241Y-89826931D01*
X119278341Y-89955125D01*
X119111071Y-90118927D01*
X118978804Y-90312100D01*
X118886575Y-90527284D01*
X118867733Y-90615929D01*
X118867733Y-89375037D01*
X118838223Y-89226004D01*
X118780329Y-89085541D01*
X118696254Y-88958998D01*
X118613700Y-88875866D01*
X118613700Y-87103962D01*
X118682281Y-87038654D01*
X118769857Y-86914508D01*
X118831651Y-86775716D01*
X118865310Y-86627565D01*
X118867733Y-86454037D01*
X118838223Y-86305004D01*
X118780329Y-86164541D01*
X118696254Y-86037998D01*
X118589201Y-85930196D01*
X118463249Y-85845239D01*
X118323193Y-85786365D01*
X118174370Y-85755816D01*
X118022447Y-85754756D01*
X117873212Y-85783224D01*
X117732348Y-85840137D01*
X117643851Y-85898047D01*
X117643851Y-82582942D01*
X117598377Y-82353284D01*
X117509163Y-82136833D01*
X117379605Y-81941833D01*
X117214639Y-81775711D01*
X117020547Y-81644795D01*
X116804724Y-81554071D01*
X116575390Y-81506995D01*
X116341279Y-81505361D01*
X116111310Y-81549230D01*
X115894241Y-81636931D01*
X115698341Y-81765125D01*
X115531071Y-81928927D01*
X115398804Y-82122100D01*
X115306575Y-82337284D01*
X115257900Y-82566285D01*
X115254631Y-82800378D01*
X115296894Y-83030648D01*
X115383077Y-83248324D01*
X115509900Y-83445114D01*
X115672531Y-83613523D01*
X115864775Y-83747136D01*
X116079311Y-83840865D01*
X116307965Y-83891138D01*
X116542030Y-83896041D01*
X116772590Y-83855387D01*
X116990862Y-83770725D01*
X117188533Y-83645279D01*
X117358073Y-83483828D01*
X117493025Y-83292521D01*
X117588249Y-83078645D01*
X117640117Y-82850347D01*
X117643851Y-82582942D01*
X117643851Y-85898047D01*
X117605222Y-85923326D01*
X117583189Y-85944901D01*
X117510749Y-85896039D01*
X117370693Y-85837165D01*
X117221870Y-85806616D01*
X117069947Y-85805556D01*
X116920712Y-85834024D01*
X116779848Y-85890937D01*
X116652722Y-85974126D01*
X116544174Y-86080423D01*
X116458341Y-86205780D01*
X116398491Y-86345421D01*
X116366903Y-86494027D01*
X116364782Y-86645939D01*
X116392208Y-86795369D01*
X116448136Y-86936627D01*
X116530435Y-87064331D01*
X116635972Y-87173618D01*
X116760727Y-87260324D01*
X116810300Y-87281982D01*
X116810300Y-87774600D01*
X116810300Y-90527565D01*
X116734674Y-90601623D01*
X116648841Y-90726980D01*
X116588991Y-90866621D01*
X116557403Y-91015227D01*
X116555282Y-91167139D01*
X116582708Y-91316569D01*
X116638636Y-91457827D01*
X116720935Y-91585531D01*
X116826472Y-91694818D01*
X116951227Y-91781524D01*
X117090446Y-91842348D01*
X117238829Y-91874972D01*
X117390722Y-91878154D01*
X117540340Y-91851772D01*
X117681985Y-91796832D01*
X117810260Y-91715425D01*
X117920281Y-91610654D01*
X118007857Y-91486508D01*
X118069651Y-91347716D01*
X118103310Y-91199565D01*
X118105733Y-91026037D01*
X118076223Y-90877004D01*
X118018329Y-90736541D01*
X117934254Y-90609998D01*
X117851700Y-90526866D01*
X117851700Y-90191022D01*
X117852446Y-90191348D01*
X118000829Y-90223972D01*
X118152722Y-90227154D01*
X118302340Y-90200772D01*
X118443985Y-90145832D01*
X118572260Y-90064425D01*
X118682281Y-89959654D01*
X118769857Y-89835508D01*
X118831651Y-89696716D01*
X118865310Y-89548565D01*
X118867733Y-89375037D01*
X118867733Y-90615929D01*
X118837900Y-90756285D01*
X118834631Y-90990378D01*
X118876894Y-91220648D01*
X118901307Y-91282310D01*
X117724809Y-92458809D01*
X117694284Y-92495970D01*
X117663363Y-92532822D01*
X117662042Y-92535224D01*
X117660307Y-92537337D01*
X117637612Y-92579661D01*
X117614406Y-92621874D01*
X117613576Y-92624487D01*
X117612285Y-92626897D01*
X117598231Y-92672863D01*
X117583679Y-92718740D01*
X117583373Y-92721460D01*
X117582573Y-92724080D01*
X117577714Y-92771912D01*
X117572351Y-92819730D01*
X117572313Y-92825090D01*
X117572304Y-92825183D01*
X117572312Y-92825269D01*
X117572300Y-92827000D01*
X117572300Y-94337565D01*
X117496674Y-94411623D01*
X117410841Y-94536980D01*
X117350991Y-94676621D01*
X117319403Y-94825227D01*
X117317282Y-94977139D01*
X117344708Y-95126569D01*
X117400636Y-95267827D01*
X117482935Y-95395531D01*
X117588472Y-95504818D01*
X117713227Y-95591524D01*
X117852446Y-95652348D01*
X118000829Y-95684972D01*
X118152722Y-95688154D01*
X118302340Y-95661772D01*
X118443985Y-95606832D01*
X118572260Y-95525425D01*
X118682281Y-95420654D01*
X118769857Y-95296508D01*
X118831651Y-95157716D01*
X118865310Y-95009565D01*
X118867733Y-94836037D01*
X118838223Y-94687004D01*
X118780329Y-94546541D01*
X118696254Y-94419998D01*
X118613700Y-94336866D01*
X118613700Y-93042681D01*
X119635791Y-92020589D01*
X119659311Y-92030865D01*
X119887965Y-92081138D01*
X120122030Y-92086041D01*
X120352590Y-92045387D01*
X120570862Y-91960725D01*
X120768533Y-91835279D01*
X120938073Y-91673828D01*
X121073025Y-91482521D01*
X121168249Y-91268645D01*
X121220117Y-91040347D01*
X121223851Y-90772942D01*
X121223851Y-91499766D01*
X120881809Y-91841809D01*
X120851284Y-91878970D01*
X120820363Y-91915822D01*
X120819042Y-91918224D01*
X120817307Y-91920337D01*
X120794612Y-91962661D01*
X120771406Y-92004874D01*
X120770576Y-92007487D01*
X120769285Y-92009897D01*
X120755231Y-92055863D01*
X120740679Y-92101740D01*
X120740373Y-92104460D01*
X120739573Y-92107080D01*
X120734714Y-92154912D01*
X120729351Y-92202730D01*
X120729313Y-92208090D01*
X120729304Y-92208183D01*
X120729312Y-92208269D01*
X120729300Y-92210000D01*
X120729300Y-92461639D01*
X120600547Y-92374795D01*
X120384724Y-92284071D01*
X120155390Y-92236995D01*
X119921279Y-92235361D01*
X119691310Y-92279230D01*
X119474241Y-92366931D01*
X119278341Y-92495125D01*
X119111071Y-92658927D01*
X118978804Y-92852100D01*
X118886575Y-93067284D01*
X118837900Y-93296285D01*
X118834631Y-93530378D01*
X118876894Y-93760648D01*
X118963077Y-93978324D01*
X119089900Y-94175114D01*
X119252531Y-94343523D01*
X119444775Y-94477136D01*
X119659311Y-94570865D01*
X119887965Y-94621138D01*
X120122030Y-94626041D01*
X120352590Y-94585387D01*
X120570862Y-94500725D01*
X120729300Y-94400177D01*
X120729300Y-95001639D01*
X120600547Y-94914795D01*
X120384724Y-94824071D01*
X120155390Y-94776995D01*
X119921279Y-94775361D01*
X119691310Y-94819230D01*
X119474241Y-94906931D01*
X119278341Y-95035125D01*
X119111071Y-95198927D01*
X118978804Y-95392100D01*
X118886575Y-95607284D01*
X118837900Y-95836285D01*
X118834631Y-96070378D01*
X118876894Y-96300648D01*
X118963077Y-96518324D01*
X119066819Y-96679300D01*
X117000833Y-96679300D01*
X117000833Y-95598037D01*
X116971323Y-95449004D01*
X116913429Y-95308541D01*
X116829354Y-95181998D01*
X116722301Y-95074196D01*
X116596349Y-94989239D01*
X116456293Y-94930365D01*
X116307470Y-94899816D01*
X116155547Y-94898756D01*
X116006312Y-94927224D01*
X115865448Y-94984137D01*
X115738322Y-95067326D01*
X115650527Y-95153300D01*
X114664681Y-95153300D01*
X114023158Y-94511777D01*
X114024733Y-94399037D01*
X113995223Y-94250004D01*
X113937329Y-94109541D01*
X113853254Y-93982998D01*
X113746201Y-93875196D01*
X113620249Y-93790239D01*
X113480193Y-93731365D01*
X113331370Y-93700816D01*
X113179447Y-93699756D01*
X113030212Y-93728224D01*
X112889348Y-93785137D01*
X112762222Y-93868326D01*
X112653674Y-93974623D01*
X112567841Y-94099980D01*
X112507991Y-94239621D01*
X112476403Y-94388227D01*
X112474282Y-94540139D01*
X112501708Y-94689569D01*
X112557636Y-94830827D01*
X112639935Y-94958531D01*
X112745472Y-95067818D01*
X112870227Y-95154524D01*
X113009446Y-95215348D01*
X113157829Y-95247972D01*
X113289345Y-95250727D01*
X114081809Y-96043190D01*
X114120312Y-96074816D01*
X114158828Y-96106680D01*
X114159634Y-96107116D01*
X114160337Y-96107693D01*
X114204215Y-96131220D01*
X114248221Y-96155014D01*
X114249093Y-96155283D01*
X114249897Y-96155715D01*
X114297555Y-96170285D01*
X114345299Y-96185065D01*
X114346208Y-96185160D01*
X114347080Y-96185427D01*
X114396604Y-96190457D01*
X114446365Y-96195687D01*
X114447277Y-96195603D01*
X114448183Y-96195696D01*
X114458720Y-96194700D01*
X115651928Y-96194700D01*
X115721572Y-96266818D01*
X115846327Y-96353524D01*
X115985546Y-96414348D01*
X116133929Y-96446972D01*
X116285822Y-96450154D01*
X116435440Y-96423772D01*
X116577085Y-96368832D01*
X116705360Y-96287425D01*
X116815381Y-96182654D01*
X116902957Y-96058508D01*
X116964751Y-95919716D01*
X116998410Y-95771565D01*
X117000833Y-95598037D01*
X117000833Y-96679300D01*
X115317407Y-96679300D01*
X115303254Y-96657998D01*
X115196201Y-96550196D01*
X115070249Y-96465239D01*
X114930193Y-96406365D01*
X114781370Y-96375816D01*
X114629447Y-96374756D01*
X114480212Y-96403224D01*
X114339348Y-96460137D01*
X114212222Y-96543326D01*
X114103674Y-96649623D01*
X114017841Y-96774980D01*
X113957991Y-96914621D01*
X113926403Y-97063227D01*
X113924282Y-97215139D01*
X113951708Y-97364569D01*
X114007636Y-97505827D01*
X114089935Y-97633531D01*
X114195472Y-97742818D01*
X114320227Y-97829524D01*
X114459446Y-97890348D01*
X114607829Y-97922972D01*
X114759722Y-97926154D01*
X114909340Y-97899772D01*
X115050985Y-97844832D01*
X115179260Y-97763425D01*
X115224125Y-97720700D01*
X118633000Y-97720700D01*
X118633000Y-98224250D01*
X118791750Y-98383000D01*
X119903000Y-98383000D01*
X119903000Y-98363000D01*
X120157000Y-98363000D01*
X120157000Y-98383000D01*
X120177000Y-98383000D01*
X120177000Y-98637000D01*
X120157000Y-98637000D01*
X120157000Y-99748250D01*
X120315750Y-99907000D01*
X120729458Y-99907000D01*
X120854542Y-99907000D01*
X120977223Y-99882597D01*
X121092785Y-99834730D01*
X121196789Y-99765237D01*
X121285237Y-99676789D01*
X121354730Y-99572785D01*
X121402597Y-99457223D01*
X121427000Y-99334542D01*
X121427000Y-98866173D01*
X121503077Y-99058324D01*
X121629900Y-99255114D01*
X121792531Y-99423523D01*
X121984775Y-99557136D01*
X122199311Y-99650865D01*
X122427965Y-99701138D01*
X122662030Y-99706041D01*
X122892590Y-99665387D01*
X123110862Y-99580725D01*
X123308533Y-99455279D01*
X123478073Y-99293828D01*
X123518200Y-99236944D01*
X123518200Y-99978888D01*
M02*
