M48
;DRILL file {kicad (2015-01-02 BZR 5348)-product} date 1/13/2015 8:41:13 AM
;FORMAT={-:-/ absolute / inch / decimal}
FMAT,2
INCH,TZ
T1C0.013
T2C0.024
T3C0.025
T4C0.026
T5C0.040
%
G90
G05
M72
T1
X3.4243Y-3.8517
X3.4393Y-3.4067
X3.5093Y-3.4017
X3.5318Y-3.8842
X3.5943Y-3.4967
X3.6743Y-3.3267
X3.7243Y-3.4117
X3.8043Y-3.4467
X3.8493Y-3.4717
X3.8993Y-3.3917
X3.8993Y-3.6067
X3.9093Y-3.9867
X3.9393Y-3.4988
X3.9793Y-3.3917
X3.9793Y-3.6067
X4.0143Y-3.5662
X4.0143Y-3.7967
X4.0293Y-3.4417
X4.0293Y-3.4817
X4.0293Y-3.5217
X4.1693Y-3.4867
X4.25Y-3.5925
X4.252Y-3.6535
X4.2543Y-3.8917
X4.2693Y-3.8617
X4.3243Y-3.6117
X4.3287Y-3.5118
X4.3803Y-3.6757
X4.3898Y-3.5118
X4.4243Y-3.6787
X4.4643Y-3.6787
X4.4828Y-3.9342
X4.5157Y-3.8248
X4.5268Y-3.4117
X4.5703Y-3.4102
X4.5758Y-3.7667
X4.6118Y-3.4087
X4.6193Y-3.5867
X4.6493Y-3.4067
X4.6493Y-3.5217
X4.6493Y-3.7367
X4.7993Y-3.2517
T2
X3.9098Y-3.7567
X3.9688Y-3.7567
T3
X4.0452Y-3.8956
X4.2223Y-3.9822
X4.5238Y-3.4687
T4
X3.4327Y-3.2427
X3.4327Y-3.2927
X3.4827Y-3.2427
X3.4827Y-3.2927
X3.5327Y-3.2427
X3.5327Y-3.2927
X3.5827Y-3.2427
X3.5827Y-3.2927
X3.6327Y-3.2427
X3.6327Y-3.2927
T5
X3.4591Y-3.9764
X3.5591Y-3.9764
X3.6591Y-3.9764
X3.6718Y-3.8682
X3.7888Y-3.2497
X3.8888Y-3.2497
X4.0846Y-3.2559
X4.1846Y-3.2559
X4.2846Y-3.2559
X4.3209Y-3.9882
X4.3846Y-3.2559
X4.4209Y-3.9882
X4.4846Y-3.2559
X4.5209Y-3.9882
X4.5846Y-3.2559
X4.6209Y-3.9882
X4.7209Y-3.9882
X4.7256Y-3.5783
X4.7256Y-3.6783
X4.7256Y-3.7783
X4.7256Y-3.8783
X4.8143Y-3.3817
X4.8209Y-3.9882
X4.8256Y-3.5783
X4.8256Y-3.6783
X4.8256Y-3.7783
X4.8256Y-3.8783
T0
M30
