G04 #@! TF.FileFunction,Paste,Top*
%FSLAX46Y46*%
G04 Gerber Fmt 4.6, Leading zero omitted, Abs format (unit mm)*
G04 Created by KiCad (PCBNEW (2015-01-02 BZR 5348)-product) date 1/14/2015 2:26:51 AM*
%MOMM*%
G01*
G04 APERTURE LIST*
%ADD10C,0.150000*%
%ADD11R,3.000000X6.400000*%
%ADD12R,1.501140X1.000760*%
%ADD13R,2.999740X1.998980*%
%ADD14R,1.400000X2.750000*%
%ADD15R,1.397000X0.889000*%
%ADD16R,1.397000X3.810000*%
%ADD17R,1.750000X0.250000*%
%ADD18R,2.000000X0.250000*%
%ADD19R,0.250000X1.750000*%
%ADD20R,0.250000X2.000000*%
%ADD21R,1.400000X1.800000*%
%ADD22R,7.600000X1.143000*%
%ADD23R,6.600000X1.143000*%
%ADD24R,0.889000X1.397000*%
G04 APERTURE END LIST*
D10*
D11*
X100059000Y-88870000D03*
D12*
X102748340Y-98948860D03*
X102748340Y-100450000D03*
X102748340Y-101951140D03*
D13*
X105699820Y-100450000D03*
D10*
G36*
X104225350Y-101450760D02*
X103476050Y-100950380D01*
X103476050Y-99949620D01*
X104225350Y-99449240D01*
X104225350Y-101450760D01*
X104225350Y-101450760D01*
G37*
D14*
X94100000Y-88800000D03*
X96100000Y-88800000D03*
X96100000Y-95600000D03*
X92100000Y-88800000D03*
X92100000Y-95600000D03*
D15*
X103000000Y-90582500D03*
X103000000Y-92487500D03*
X103000000Y-95987500D03*
X103000000Y-94082500D03*
X87100000Y-94947500D03*
X87100000Y-96852500D03*
X89200000Y-89152500D03*
X89200000Y-87247500D03*
D16*
X95714000Y-100450000D03*
X100286000Y-100450000D03*
D17*
X106125000Y-94750000D03*
D18*
X106250000Y-94250000D03*
X106250000Y-93750000D03*
X106250000Y-93250000D03*
X106250000Y-92750000D03*
X106250000Y-92250000D03*
X106250000Y-91750000D03*
X106250000Y-91250000D03*
X106250000Y-90750000D03*
X106250000Y-90250000D03*
X106250000Y-89750000D03*
D17*
X106125000Y-89250000D03*
D19*
X108000000Y-87375000D03*
D20*
X108500000Y-87500000D03*
X109000000Y-87500000D03*
X109500000Y-87500000D03*
X110000000Y-87500000D03*
X110500000Y-87500000D03*
X111000000Y-87500000D03*
X111500000Y-87500000D03*
X112000000Y-87500000D03*
X112500000Y-87500000D03*
X113000000Y-87500000D03*
D19*
X113500000Y-87375000D03*
D17*
X115375000Y-94750000D03*
D18*
X115250000Y-94250000D03*
X115250000Y-93750000D03*
X115250000Y-93250000D03*
X115250000Y-92750000D03*
X115250000Y-92250000D03*
X115250000Y-91750000D03*
X115250000Y-91250000D03*
X115250000Y-90750000D03*
X115250000Y-90250000D03*
X115250000Y-89750000D03*
D17*
X115375000Y-89250000D03*
D19*
X108000000Y-96625000D03*
D20*
X108500000Y-96500000D03*
X109000000Y-96500000D03*
X109500000Y-96500000D03*
X110000000Y-96500000D03*
X110500000Y-96500000D03*
X111000000Y-96500000D03*
X111500000Y-96500000D03*
X112000000Y-96500000D03*
X112500000Y-96500000D03*
X113000000Y-96500000D03*
D19*
X113500000Y-96625000D03*
D21*
X122850000Y-82500000D03*
X119550000Y-82500000D03*
X119550000Y-87300000D03*
X122850000Y-87300000D03*
D22*
X79200000Y-88511310D03*
D23*
X79700000Y-91013210D03*
X79700000Y-92986790D03*
D22*
X79200000Y-95488690D03*
D15*
X89911700Y-96791600D03*
X89911700Y-94886600D03*
X87100000Y-87247500D03*
X87100000Y-89152500D03*
D24*
X86847500Y-93000000D03*
X88752500Y-93000000D03*
X86847500Y-91000000D03*
X88752500Y-91000000D03*
M02*
