G04 #@! TF.FileFunction,Soldermask,Bot*
%FSLAX46Y46*%
G04 Gerber Fmt 4.6, Leading zero omitted, Abs format (unit mm)*
G04 Created by KiCad (PCBNEW (2015-01-02 BZR 5348)-product) date 1/13/2015 8:41:11 AM*
%MOMM*%
G01*
G04 APERTURE LIST*
%ADD10C,0.150000*%
%ADD11R,1.397000X0.889000*%
%ADD12R,1.016000X1.016000*%
%ADD13C,1.016000*%
%ADD14C,1.000760*%
%ADD15R,0.889000X1.397000*%
%ADD16R,4.500000X1.000000*%
%ADD17R,3.400000X1.500000*%
%ADD18R,1.524000X1.524000*%
%ADD19C,1.524000*%
G04 APERTURE END LIST*
D10*
D11*
X100650000Y-101252500D03*
X100650000Y-99347500D03*
D12*
X92270000Y-82365000D03*
D13*
X92270000Y-83635000D03*
X91000000Y-82365000D03*
X91000000Y-83635000D03*
X89730000Y-82365000D03*
X89730000Y-83635000D03*
X88460000Y-82365000D03*
X88460000Y-83635000D03*
X87190000Y-82365000D03*
X87190000Y-83635000D03*
D14*
X99309700Y-95420000D03*
X100808300Y-95420000D03*
D11*
X108000000Y-92952500D03*
X108000000Y-91047500D03*
D15*
X109797500Y-89100000D03*
X111702500Y-89100000D03*
D11*
X102700000Y-101252500D03*
X102700000Y-99347500D03*
X105550000Y-101152500D03*
X105550000Y-99247500D03*
D16*
X89000000Y-93000000D03*
X89000000Y-91000000D03*
D17*
X94100000Y-95350000D03*
X94100000Y-88650000D03*
D11*
X109838000Y-91038500D03*
X109838000Y-92943500D03*
D18*
X120030000Y-98510000D03*
D19*
X122570000Y-98510000D03*
X120030000Y-95970000D03*
X122570000Y-95970000D03*
X120030000Y-93430000D03*
X122570000Y-93430000D03*
X120030000Y-90890000D03*
X122570000Y-90890000D03*
D18*
X122450000Y-101300000D03*
D19*
X119910000Y-101300000D03*
X117370000Y-101300000D03*
X114830000Y-101300000D03*
X112290000Y-101300000D03*
X109750000Y-101300000D03*
D18*
X103750000Y-82700000D03*
D19*
X106290000Y-82700000D03*
X108830000Y-82700000D03*
X111370000Y-82700000D03*
X113910000Y-82700000D03*
X116450000Y-82700000D03*
D18*
X87860000Y-101000000D03*
D19*
X90400000Y-101000000D03*
X92940000Y-101000000D03*
X122284000Y-85895000D03*
X93264500Y-98252100D03*
D18*
X98776300Y-82542200D03*
D19*
X96236300Y-82542200D03*
M02*
