G04 #@! TF.FileFunction,Legend,Bot*
%FSLAX46Y46*%
G04 Gerber Fmt 4.6, Leading zero omitted, Abs format (unit mm)*
G04 Created by KiCad (PCBNEW (2015-01-02 BZR 5348)-product) date 1/13/2015 8:41:11 AM*
%MOMM*%
G01*
G04 APERTURE LIST*
%ADD10C,0.150000*%
%ADD11C,0.152400*%
%ADD12C,0.100000*%
%ADD13C,0.304800*%
%ADD14C,0.109220*%
%ADD15C,0.203200*%
G04 APERTURE END LIST*
D10*
D11*
X117438042Y-97301414D02*
X116966328Y-97301414D01*
X117220328Y-97591700D01*
X117111470Y-97591700D01*
X117038899Y-97627986D01*
X117002613Y-97664271D01*
X116966328Y-97736843D01*
X116966328Y-97918271D01*
X117002613Y-97990843D01*
X117038899Y-98027129D01*
X117111470Y-98063414D01*
X117329185Y-98063414D01*
X117401756Y-98027129D01*
X117438042Y-97990843D01*
X116712328Y-97555414D02*
X116530899Y-98063414D01*
X116349471Y-97555414D01*
X116131757Y-97301414D02*
X115660043Y-97301414D01*
X115914043Y-97591700D01*
X115805185Y-97591700D01*
X115732614Y-97627986D01*
X115696328Y-97664271D01*
X115660043Y-97736843D01*
X115660043Y-97918271D01*
X115696328Y-97990843D01*
X115732614Y-98027129D01*
X115805185Y-98063414D01*
X116022900Y-98063414D01*
X116095471Y-98027129D01*
X116131757Y-97990843D01*
D12*
X118359700Y-99941200D02*
X117877100Y-99941200D01*
X118359700Y-99357000D02*
X118359700Y-99941200D01*
X116670600Y-98252100D02*
X118359700Y-99941200D01*
D11*
X82149582Y-88044929D02*
X82149582Y-88558976D01*
X82179820Y-88619452D01*
X82210058Y-88649690D01*
X82270534Y-88679929D01*
X82361248Y-88679929D01*
X82421725Y-88649690D01*
X82149582Y-88438024D02*
X82210058Y-88468262D01*
X82331010Y-88468262D01*
X82391486Y-88438024D01*
X82421725Y-88407786D01*
X82451963Y-88347310D01*
X82451963Y-88165881D01*
X82421725Y-88105405D01*
X82391486Y-88075167D01*
X82331010Y-88044929D01*
X82210058Y-88044929D01*
X82149582Y-88075167D01*
X81847201Y-88468262D02*
X81847201Y-88044929D01*
X81847201Y-87833262D02*
X81877439Y-87863500D01*
X81847201Y-87893738D01*
X81816962Y-87863500D01*
X81847201Y-87833262D01*
X81847201Y-87893738D01*
X81635534Y-88044929D02*
X81393629Y-88044929D01*
X81544820Y-87833262D02*
X81544820Y-88377548D01*
X81514581Y-88438024D01*
X81454105Y-88468262D01*
X81393629Y-88468262D01*
X81181963Y-88468262D02*
X81181963Y-87833262D01*
X80909820Y-88468262D02*
X80909820Y-88135643D01*
X80940058Y-88075167D01*
X81000534Y-88044929D01*
X81091248Y-88044929D01*
X81151724Y-88075167D01*
X81181963Y-88105405D01*
X80335296Y-88044929D02*
X80335296Y-88468262D01*
X80607439Y-88044929D02*
X80607439Y-88377548D01*
X80577200Y-88438024D01*
X80516724Y-88468262D01*
X80426010Y-88468262D01*
X80365534Y-88438024D01*
X80335296Y-88407786D01*
X80032915Y-88468262D02*
X80032915Y-87833262D01*
X80032915Y-88075167D02*
X79972438Y-88044929D01*
X79851486Y-88044929D01*
X79791010Y-88075167D01*
X79760772Y-88105405D01*
X79730534Y-88165881D01*
X79730534Y-88347310D01*
X79760772Y-88407786D01*
X79791010Y-88438024D01*
X79851486Y-88468262D01*
X79972438Y-88468262D01*
X80032915Y-88438024D01*
X79458391Y-88407786D02*
X79428152Y-88438024D01*
X79458391Y-88468262D01*
X79488629Y-88438024D01*
X79458391Y-88407786D01*
X79458391Y-88468262D01*
X78883867Y-88438024D02*
X78944343Y-88468262D01*
X79065295Y-88468262D01*
X79125771Y-88438024D01*
X79156010Y-88407786D01*
X79186248Y-88347310D01*
X79186248Y-88165881D01*
X79156010Y-88105405D01*
X79125771Y-88075167D01*
X79065295Y-88044929D01*
X78944343Y-88044929D01*
X78883867Y-88075167D01*
X78521009Y-88468262D02*
X78581485Y-88438024D01*
X78611724Y-88407786D01*
X78641962Y-88347310D01*
X78641962Y-88165881D01*
X78611724Y-88105405D01*
X78581485Y-88075167D01*
X78521009Y-88044929D01*
X78430295Y-88044929D01*
X78369819Y-88075167D01*
X78339581Y-88105405D01*
X78309343Y-88165881D01*
X78309343Y-88347310D01*
X78339581Y-88407786D01*
X78369819Y-88438024D01*
X78430295Y-88468262D01*
X78521009Y-88468262D01*
X78037200Y-88468262D02*
X78037200Y-88044929D01*
X78037200Y-88105405D02*
X78006961Y-88075167D01*
X77946485Y-88044929D01*
X77855771Y-88044929D01*
X77795295Y-88075167D01*
X77765057Y-88135643D01*
X77765057Y-88468262D01*
X77765057Y-88135643D02*
X77734819Y-88075167D01*
X77674342Y-88044929D01*
X77583628Y-88044929D01*
X77523152Y-88075167D01*
X77492914Y-88135643D01*
X77492914Y-88468262D01*
X76736961Y-87803024D02*
X77281247Y-88619452D01*
X81348272Y-89509662D02*
X81348272Y-89086329D01*
X81348272Y-89146805D02*
X81318033Y-89116567D01*
X81257557Y-89086329D01*
X81166843Y-89086329D01*
X81106367Y-89116567D01*
X81076129Y-89177043D01*
X81076129Y-89509662D01*
X81076129Y-89177043D02*
X81045891Y-89116567D01*
X80985414Y-89086329D01*
X80894700Y-89086329D01*
X80834224Y-89116567D01*
X80803986Y-89177043D01*
X80803986Y-89509662D01*
X80562081Y-89086329D02*
X80410890Y-89509662D01*
X80259700Y-89086329D02*
X80410890Y-89509662D01*
X80471366Y-89660852D01*
X80501605Y-89691090D01*
X80562081Y-89721329D01*
X79775890Y-89479424D02*
X79836366Y-89509662D01*
X79957318Y-89509662D01*
X80017795Y-89479424D01*
X80048033Y-89418948D01*
X80048033Y-89177043D01*
X80017795Y-89116567D01*
X79957318Y-89086329D01*
X79836366Y-89086329D01*
X79775890Y-89116567D01*
X79745652Y-89177043D01*
X79745652Y-89237519D01*
X80048033Y-89297995D01*
X79382794Y-89509662D02*
X79443270Y-89479424D01*
X79473509Y-89418948D01*
X79473509Y-88874662D01*
X79140890Y-89509662D02*
X79140890Y-89086329D01*
X79140890Y-88874662D02*
X79171128Y-88904900D01*
X79140890Y-88935138D01*
X79110651Y-88904900D01*
X79140890Y-88874662D01*
X79140890Y-88935138D01*
X78838509Y-89086329D02*
X78838509Y-89509662D01*
X78838509Y-89146805D02*
X78808270Y-89116567D01*
X78747794Y-89086329D01*
X78657080Y-89086329D01*
X78596604Y-89116567D01*
X78566366Y-89177043D01*
X78566366Y-89509662D01*
X77810413Y-88844424D02*
X78354699Y-89660852D01*
X83933629Y-90551062D02*
X83933629Y-90127729D01*
X83933629Y-90188205D02*
X83903390Y-90157967D01*
X83842914Y-90127729D01*
X83752200Y-90127729D01*
X83691724Y-90157967D01*
X83661486Y-90218443D01*
X83661486Y-90551062D01*
X83661486Y-90218443D02*
X83631248Y-90157967D01*
X83570771Y-90127729D01*
X83480057Y-90127729D01*
X83419581Y-90157967D01*
X83389343Y-90218443D01*
X83389343Y-90551062D01*
X82996247Y-90551062D02*
X83056723Y-90520824D01*
X83086962Y-90490586D01*
X83117200Y-90430110D01*
X83117200Y-90248681D01*
X83086962Y-90188205D01*
X83056723Y-90157967D01*
X82996247Y-90127729D01*
X82905533Y-90127729D01*
X82845057Y-90157967D01*
X82814819Y-90188205D01*
X82784581Y-90248681D01*
X82784581Y-90430110D01*
X82814819Y-90490586D01*
X82845057Y-90520824D01*
X82905533Y-90551062D01*
X82996247Y-90551062D01*
X82240295Y-90551062D02*
X82240295Y-89916062D01*
X82240295Y-90520824D02*
X82300771Y-90551062D01*
X82421723Y-90551062D01*
X82482199Y-90520824D01*
X82512438Y-90490586D01*
X82542676Y-90430110D01*
X82542676Y-90248681D01*
X82512438Y-90188205D01*
X82482199Y-90157967D01*
X82421723Y-90127729D01*
X82300771Y-90127729D01*
X82240295Y-90157967D01*
X81665771Y-90127729D02*
X81665771Y-90551062D01*
X81937914Y-90127729D02*
X81937914Y-90460348D01*
X81907675Y-90520824D01*
X81847199Y-90551062D01*
X81756485Y-90551062D01*
X81696009Y-90520824D01*
X81665771Y-90490586D01*
X81272675Y-90551062D02*
X81333151Y-90520824D01*
X81363390Y-90460348D01*
X81363390Y-89916062D01*
X80758628Y-90551062D02*
X80758628Y-90218443D01*
X80788866Y-90157967D01*
X80849342Y-90127729D01*
X80970294Y-90127729D01*
X81030771Y-90157967D01*
X80758628Y-90520824D02*
X80819104Y-90551062D01*
X80970294Y-90551062D01*
X81030771Y-90520824D01*
X81061009Y-90460348D01*
X81061009Y-90399871D01*
X81030771Y-90339395D01*
X80970294Y-90309157D01*
X80819104Y-90309157D01*
X80758628Y-90278919D01*
X80456247Y-90551062D02*
X80456247Y-90127729D01*
X80456247Y-90248681D02*
X80426008Y-90188205D01*
X80395770Y-90157967D01*
X80335294Y-90127729D01*
X80274818Y-90127729D01*
X80063152Y-90309157D02*
X79579342Y-90309157D01*
X79004819Y-90551062D02*
X79004819Y-90218443D01*
X79035057Y-90157967D01*
X79095533Y-90127729D01*
X79216485Y-90127729D01*
X79276962Y-90157967D01*
X79004819Y-90520824D02*
X79065295Y-90551062D01*
X79216485Y-90551062D01*
X79276962Y-90520824D01*
X79307200Y-90460348D01*
X79307200Y-90399871D01*
X79276962Y-90339395D01*
X79216485Y-90309157D01*
X79065295Y-90309157D01*
X79004819Y-90278919D01*
X78702438Y-90551062D02*
X78702438Y-90127729D01*
X78702438Y-90248681D02*
X78672199Y-90188205D01*
X78641961Y-90157967D01*
X78581485Y-90127729D01*
X78521009Y-90127729D01*
X78309343Y-90551062D02*
X78309343Y-90127729D01*
X78309343Y-90188205D02*
X78279104Y-90157967D01*
X78218628Y-90127729D01*
X78127914Y-90127729D01*
X78067438Y-90157967D01*
X78037200Y-90218443D01*
X78037200Y-90551062D01*
X78037200Y-90218443D02*
X78006962Y-90157967D01*
X77946485Y-90127729D01*
X77855771Y-90127729D01*
X77795295Y-90157967D01*
X77765057Y-90218443D01*
X77765057Y-90551062D01*
X77462676Y-90309157D02*
X76978866Y-90309157D01*
X76404343Y-90127729D02*
X76404343Y-90551062D01*
X76676486Y-90127729D02*
X76676486Y-90460348D01*
X76646247Y-90520824D01*
X76585771Y-90551062D01*
X76495057Y-90551062D01*
X76434581Y-90520824D01*
X76404343Y-90490586D01*
X76132200Y-90520824D02*
X76071723Y-90551062D01*
X75950771Y-90551062D01*
X75890295Y-90520824D01*
X75860057Y-90460348D01*
X75860057Y-90430110D01*
X75890295Y-90369633D01*
X75950771Y-90339395D01*
X76041485Y-90339395D01*
X76101962Y-90309157D01*
X76132200Y-90248681D01*
X76132200Y-90218443D01*
X76101962Y-90157967D01*
X76041485Y-90127729D01*
X75950771Y-90127729D01*
X75890295Y-90157967D01*
X75587914Y-90551062D02*
X75587914Y-89916062D01*
X75587914Y-90157967D02*
X75527437Y-90127729D01*
X75406485Y-90127729D01*
X75346009Y-90157967D01*
X75315771Y-90188205D01*
X75285533Y-90248681D01*
X75285533Y-90430110D01*
X75315771Y-90490586D01*
X75346009Y-90520824D01*
X75406485Y-90551062D01*
X75527437Y-90551062D01*
X75587914Y-90520824D01*
X80078272Y-92210529D02*
X79927081Y-92633862D01*
X79775891Y-92210529D01*
X79201366Y-92633862D02*
X79564224Y-92633862D01*
X79382795Y-92633862D02*
X79382795Y-91998862D01*
X79443271Y-92089576D01*
X79503747Y-92150052D01*
X79564224Y-92180290D01*
X82482201Y-94293329D02*
X82482201Y-94928329D01*
X82482201Y-94323567D02*
X82421724Y-94293329D01*
X82300772Y-94293329D01*
X82240296Y-94323567D01*
X82210058Y-94353805D01*
X82179820Y-94414281D01*
X82179820Y-94595710D01*
X82210058Y-94656186D01*
X82240296Y-94686424D01*
X82300772Y-94716662D01*
X82421724Y-94716662D01*
X82482201Y-94686424D01*
X81907677Y-94716662D02*
X81907677Y-94081662D01*
X81635534Y-94716662D02*
X81635534Y-94384043D01*
X81665772Y-94323567D01*
X81726248Y-94293329D01*
X81816962Y-94293329D01*
X81877438Y-94323567D01*
X81907677Y-94353805D01*
X81333153Y-94716662D02*
X81333153Y-94293329D01*
X81333153Y-94081662D02*
X81363391Y-94111900D01*
X81333153Y-94142138D01*
X81302914Y-94111900D01*
X81333153Y-94081662D01*
X81333153Y-94142138D01*
X80940057Y-94716662D02*
X81000533Y-94686424D01*
X81030772Y-94625948D01*
X81030772Y-94081662D01*
X80214343Y-94293329D02*
X80214343Y-94928329D01*
X80214343Y-94323567D02*
X80153866Y-94293329D01*
X80032914Y-94293329D01*
X79972438Y-94323567D01*
X79942200Y-94353805D01*
X79911962Y-94414281D01*
X79911962Y-94595710D01*
X79942200Y-94656186D01*
X79972438Y-94686424D01*
X80032914Y-94716662D01*
X80153866Y-94716662D01*
X80214343Y-94686424D01*
X79397914Y-94686424D02*
X79458390Y-94716662D01*
X79579342Y-94716662D01*
X79639819Y-94686424D01*
X79670057Y-94625948D01*
X79670057Y-94384043D01*
X79639819Y-94323567D01*
X79579342Y-94293329D01*
X79458390Y-94293329D01*
X79397914Y-94323567D01*
X79367676Y-94384043D01*
X79367676Y-94444519D01*
X79670057Y-94504995D01*
X78823390Y-94716662D02*
X78823390Y-94384043D01*
X78853628Y-94323567D01*
X78914104Y-94293329D01*
X79035056Y-94293329D01*
X79095533Y-94323567D01*
X78823390Y-94686424D02*
X78883866Y-94716662D01*
X79035056Y-94716662D01*
X79095533Y-94686424D01*
X79125771Y-94625948D01*
X79125771Y-94565471D01*
X79095533Y-94504995D01*
X79035056Y-94474757D01*
X78883866Y-94474757D01*
X78823390Y-94444519D01*
X78521009Y-94716662D02*
X78521009Y-94293329D01*
X78521009Y-94414281D02*
X78490770Y-94353805D01*
X78460532Y-94323567D01*
X78400056Y-94293329D01*
X78339580Y-94293329D01*
X78158152Y-94686424D02*
X78097675Y-94716662D01*
X77976723Y-94716662D01*
X77916247Y-94686424D01*
X77886009Y-94625948D01*
X77886009Y-94595710D01*
X77916247Y-94535233D01*
X77976723Y-94504995D01*
X78067437Y-94504995D01*
X78127914Y-94474757D01*
X78158152Y-94414281D01*
X78158152Y-94384043D01*
X78127914Y-94323567D01*
X78067437Y-94293329D01*
X77976723Y-94293329D01*
X77916247Y-94323567D01*
X77523151Y-94716662D02*
X77583627Y-94686424D01*
X77613866Y-94656186D01*
X77644104Y-94595710D01*
X77644104Y-94414281D01*
X77613866Y-94353805D01*
X77583627Y-94323567D01*
X77523151Y-94293329D01*
X77432437Y-94293329D01*
X77371961Y-94323567D01*
X77341723Y-94353805D01*
X77311485Y-94414281D01*
X77311485Y-94595710D01*
X77341723Y-94656186D01*
X77371961Y-94686424D01*
X77432437Y-94716662D01*
X77523151Y-94716662D01*
X77039342Y-94293329D02*
X77039342Y-94716662D01*
X77039342Y-94353805D02*
X77009103Y-94323567D01*
X76948627Y-94293329D01*
X76857913Y-94293329D01*
X76797437Y-94323567D01*
X76767199Y-94384043D01*
X76767199Y-94716662D01*
X82406606Y-95758062D02*
X82436844Y-95758062D01*
X82497320Y-95727824D01*
X82588034Y-95637110D01*
X82739225Y-95455681D01*
X82799701Y-95364967D01*
X82829939Y-95274252D01*
X82829939Y-95213776D01*
X82799701Y-95153300D01*
X82739225Y-95123062D01*
X82708987Y-95123062D01*
X82648511Y-95153300D01*
X82618273Y-95213776D01*
X82618273Y-95244014D01*
X82648511Y-95304490D01*
X82678749Y-95334729D01*
X82860177Y-95455681D01*
X82890415Y-95485919D01*
X82920654Y-95546395D01*
X82920654Y-95637110D01*
X82890415Y-95697586D01*
X82860177Y-95727824D01*
X82799701Y-95758062D01*
X82708987Y-95758062D01*
X82648511Y-95727824D01*
X82618273Y-95697586D01*
X82527558Y-95576633D01*
X82497320Y-95485919D01*
X82497320Y-95425443D01*
X81650654Y-95334729D02*
X81650654Y-95969729D01*
X81650654Y-95364967D02*
X81590177Y-95334729D01*
X81469225Y-95334729D01*
X81408749Y-95364967D01*
X81378511Y-95395205D01*
X81348273Y-95455681D01*
X81348273Y-95637110D01*
X81378511Y-95697586D01*
X81408749Y-95727824D01*
X81469225Y-95758062D01*
X81590177Y-95758062D01*
X81650654Y-95727824D01*
X81076130Y-95758062D02*
X81076130Y-95123062D01*
X80803987Y-95758062D02*
X80803987Y-95425443D01*
X80834225Y-95364967D01*
X80894701Y-95334729D01*
X80985415Y-95334729D01*
X81045891Y-95364967D01*
X81076130Y-95395205D01*
X80501606Y-95758062D02*
X80501606Y-95334729D01*
X80501606Y-95123062D02*
X80531844Y-95153300D01*
X80501606Y-95183538D01*
X80471367Y-95153300D01*
X80501606Y-95123062D01*
X80501606Y-95183538D01*
X80108510Y-95758062D02*
X80168986Y-95727824D01*
X80199225Y-95667348D01*
X80199225Y-95123062D01*
X79292081Y-95758062D02*
X79352557Y-95727824D01*
X79382796Y-95667348D01*
X79382796Y-95123062D01*
X79050177Y-95758062D02*
X79050177Y-95334729D01*
X79050177Y-95123062D02*
X79080415Y-95153300D01*
X79050177Y-95183538D01*
X79019938Y-95153300D01*
X79050177Y-95123062D01*
X79050177Y-95183538D01*
X78747796Y-95334729D02*
X78747796Y-95758062D01*
X78747796Y-95395205D02*
X78717557Y-95364967D01*
X78657081Y-95334729D01*
X78566367Y-95334729D01*
X78505891Y-95364967D01*
X78475653Y-95425443D01*
X78475653Y-95758062D01*
X77901129Y-95758062D02*
X77901129Y-95123062D01*
X77901129Y-95727824D02*
X77961605Y-95758062D01*
X78082557Y-95758062D01*
X78143033Y-95727824D01*
X78173272Y-95697586D01*
X78203510Y-95637110D01*
X78203510Y-95455681D01*
X78173272Y-95395205D01*
X78143033Y-95364967D01*
X78082557Y-95334729D01*
X77961605Y-95334729D01*
X77901129Y-95364967D01*
X77628986Y-95727824D02*
X77568509Y-95758062D01*
X77447557Y-95758062D01*
X77387081Y-95727824D01*
X77356843Y-95667348D01*
X77356843Y-95637110D01*
X77387081Y-95576633D01*
X77447557Y-95546395D01*
X77538271Y-95546395D01*
X77598748Y-95516157D01*
X77628986Y-95455681D01*
X77628986Y-95425443D01*
X77598748Y-95364967D01*
X77538271Y-95334729D01*
X77447557Y-95334729D01*
X77387081Y-95364967D01*
X76812557Y-95758062D02*
X76812557Y-95425443D01*
X76842795Y-95364967D01*
X76903271Y-95334729D01*
X77024223Y-95334729D01*
X77084700Y-95364967D01*
X76812557Y-95727824D02*
X76873033Y-95758062D01*
X77024223Y-95758062D01*
X77084700Y-95727824D01*
X77114938Y-95667348D01*
X77114938Y-95606871D01*
X77084700Y-95546395D01*
X77024223Y-95516157D01*
X76873033Y-95516157D01*
X76812557Y-95485919D01*
X76570652Y-95334729D02*
X76419461Y-95758062D01*
X76268271Y-95334729D02*
X76419461Y-95758062D01*
X76479937Y-95909252D01*
X76510176Y-95939490D01*
X76570652Y-95969729D01*
D13*
X118760000Y-89620000D02*
X118760000Y-83905000D01*
X118760000Y-83905000D02*
X147335000Y-83905000D01*
X147335000Y-83905000D02*
X147335000Y-99780000D01*
X147335000Y-99780000D02*
X123840000Y-99780000D01*
X123840000Y-99780000D02*
X123840000Y-89620000D01*
X123840000Y-89620000D02*
X118760000Y-89620000D01*
X118760000Y-89620000D02*
X118760000Y-99780000D01*
X118760000Y-99780000D02*
X123840000Y-99780000D01*
D10*
X121014000Y-87165000D02*
X121014000Y-84625000D01*
X121014000Y-84625000D02*
X123554000Y-84625000D01*
X123554000Y-84625000D02*
X123554000Y-87165000D01*
X123554000Y-87165000D02*
X121014000Y-87165000D01*
D14*
X101209948Y-100526362D02*
X101495880Y-100526362D01*
X101352914Y-100526362D02*
X101352914Y-100025982D01*
X101400569Y-100097465D01*
X101448224Y-100145120D01*
X101495880Y-100168948D01*
X100900189Y-100025982D02*
X100852534Y-100025982D01*
X100804879Y-100049810D01*
X100781051Y-100073638D01*
X100757224Y-100121293D01*
X100733396Y-100216603D01*
X100733396Y-100335741D01*
X100757224Y-100431052D01*
X100781051Y-100478707D01*
X100804879Y-100502535D01*
X100852534Y-100526362D01*
X100900189Y-100526362D01*
X100947845Y-100502535D01*
X100971672Y-100478707D01*
X100995500Y-100431052D01*
X101019328Y-100335741D01*
X101019328Y-100216603D01*
X100995500Y-100121293D01*
X100971672Y-100073638D01*
X100947845Y-100049810D01*
X100900189Y-100025982D01*
X100423637Y-100025982D02*
X100375982Y-100025982D01*
X100328327Y-100049810D01*
X100304499Y-100073638D01*
X100280672Y-100121293D01*
X100256844Y-100216603D01*
X100256844Y-100335741D01*
X100280672Y-100431052D01*
X100304499Y-100478707D01*
X100328327Y-100502535D01*
X100375982Y-100526362D01*
X100423637Y-100526362D01*
X100471293Y-100502535D01*
X100495120Y-100478707D01*
X100518948Y-100431052D01*
X100542776Y-100335741D01*
X100542776Y-100216603D01*
X100518948Y-100121293D01*
X100495120Y-100073638D01*
X100471293Y-100049810D01*
X100423637Y-100025982D01*
X100042396Y-100192776D02*
X100042396Y-100526362D01*
X100042396Y-100240431D02*
X100018568Y-100216603D01*
X99970913Y-100192776D01*
X99899430Y-100192776D01*
X99851775Y-100216603D01*
X99827947Y-100264259D01*
X99827947Y-100526362D01*
X108559948Y-92226362D02*
X108845880Y-92226362D01*
X108702914Y-92226362D02*
X108702914Y-91725982D01*
X108750569Y-91797465D01*
X108798224Y-91845120D01*
X108845880Y-91868948D01*
X108250189Y-91725982D02*
X108202534Y-91725982D01*
X108154879Y-91749810D01*
X108131051Y-91773638D01*
X108107224Y-91821293D01*
X108083396Y-91916603D01*
X108083396Y-92035741D01*
X108107224Y-92131052D01*
X108131051Y-92178707D01*
X108154879Y-92202535D01*
X108202534Y-92226362D01*
X108250189Y-92226362D01*
X108297845Y-92202535D01*
X108321672Y-92178707D01*
X108345500Y-92131052D01*
X108369328Y-92035741D01*
X108369328Y-91916603D01*
X108345500Y-91821293D01*
X108321672Y-91773638D01*
X108297845Y-91749810D01*
X108250189Y-91725982D01*
X107773637Y-91725982D02*
X107725982Y-91725982D01*
X107678327Y-91749810D01*
X107654499Y-91773638D01*
X107630672Y-91821293D01*
X107606844Y-91916603D01*
X107606844Y-92035741D01*
X107630672Y-92131052D01*
X107654499Y-92178707D01*
X107678327Y-92202535D01*
X107725982Y-92226362D01*
X107773637Y-92226362D01*
X107821293Y-92202535D01*
X107845120Y-92178707D01*
X107868948Y-92131052D01*
X107892776Y-92035741D01*
X107892776Y-91916603D01*
X107868948Y-91821293D01*
X107845120Y-91773638D01*
X107821293Y-91749810D01*
X107773637Y-91725982D01*
X107392396Y-91892776D02*
X107392396Y-92226362D01*
X107392396Y-91940431D02*
X107368568Y-91916603D01*
X107320913Y-91892776D01*
X107249430Y-91892776D01*
X107201775Y-91916603D01*
X107177947Y-91964259D01*
X107177947Y-92226362D01*
X110976362Y-88540052D02*
X110976362Y-88254120D01*
X110976362Y-88397086D02*
X110475982Y-88397086D01*
X110547465Y-88349431D01*
X110595120Y-88301776D01*
X110618948Y-88254120D01*
X110475982Y-88849811D02*
X110475982Y-88897466D01*
X110499810Y-88945121D01*
X110523638Y-88968949D01*
X110571293Y-88992776D01*
X110666603Y-89016604D01*
X110785741Y-89016604D01*
X110881052Y-88992776D01*
X110928707Y-88968949D01*
X110952535Y-88945121D01*
X110976362Y-88897466D01*
X110976362Y-88849811D01*
X110952535Y-88802155D01*
X110928707Y-88778328D01*
X110881052Y-88754500D01*
X110785741Y-88730672D01*
X110666603Y-88730672D01*
X110571293Y-88754500D01*
X110523638Y-88778328D01*
X110499810Y-88802155D01*
X110475982Y-88849811D01*
X110475982Y-89326363D02*
X110475982Y-89374018D01*
X110499810Y-89421673D01*
X110523638Y-89445501D01*
X110571293Y-89469328D01*
X110666603Y-89493156D01*
X110785741Y-89493156D01*
X110881052Y-89469328D01*
X110928707Y-89445501D01*
X110952535Y-89421673D01*
X110976362Y-89374018D01*
X110976362Y-89326363D01*
X110952535Y-89278707D01*
X110928707Y-89254880D01*
X110881052Y-89231052D01*
X110785741Y-89207224D01*
X110666603Y-89207224D01*
X110571293Y-89231052D01*
X110523638Y-89254880D01*
X110499810Y-89278707D01*
X110475982Y-89326363D01*
X110642776Y-89707604D02*
X110976362Y-89707604D01*
X110690431Y-89707604D02*
X110666603Y-89731432D01*
X110642776Y-89779087D01*
X110642776Y-89850570D01*
X110666603Y-89898225D01*
X110714259Y-89922053D01*
X110976362Y-89922053D01*
X103021672Y-100526362D02*
X103307604Y-100526362D01*
X103164638Y-100526362D02*
X103164638Y-100025982D01*
X103212293Y-100097465D01*
X103259948Y-100145120D01*
X103307604Y-100168948D01*
X102711913Y-100025982D02*
X102664258Y-100025982D01*
X102616603Y-100049810D01*
X102592775Y-100073638D01*
X102568948Y-100121293D01*
X102545120Y-100216603D01*
X102545120Y-100335741D01*
X102568948Y-100431052D01*
X102592775Y-100478707D01*
X102616603Y-100502535D01*
X102664258Y-100526362D01*
X102711913Y-100526362D01*
X102759569Y-100502535D01*
X102783396Y-100478707D01*
X102807224Y-100431052D01*
X102831052Y-100335741D01*
X102831052Y-100216603D01*
X102807224Y-100121293D01*
X102783396Y-100073638D01*
X102759569Y-100049810D01*
X102711913Y-100025982D01*
X102116223Y-100192776D02*
X102116223Y-100526362D01*
X102330672Y-100192776D02*
X102330672Y-100454880D01*
X102306844Y-100502535D01*
X102259189Y-100526362D01*
X102187706Y-100526362D01*
X102140051Y-100502535D01*
X102116223Y-100478707D01*
X105871672Y-100426362D02*
X106157604Y-100426362D01*
X106014638Y-100426362D02*
X106014638Y-99925982D01*
X106062293Y-99997465D01*
X106109948Y-100045120D01*
X106157604Y-100068948D01*
X105561913Y-99925982D02*
X105514258Y-99925982D01*
X105466603Y-99949810D01*
X105442775Y-99973638D01*
X105418948Y-100021293D01*
X105395120Y-100116603D01*
X105395120Y-100235741D01*
X105418948Y-100331052D01*
X105442775Y-100378707D01*
X105466603Y-100402535D01*
X105514258Y-100426362D01*
X105561913Y-100426362D01*
X105609569Y-100402535D01*
X105633396Y-100378707D01*
X105657224Y-100331052D01*
X105681052Y-100235741D01*
X105681052Y-100116603D01*
X105657224Y-100021293D01*
X105633396Y-99973638D01*
X105609569Y-99949810D01*
X105561913Y-99925982D01*
X104966223Y-100092776D02*
X104966223Y-100426362D01*
X105180672Y-100092776D02*
X105180672Y-100354880D01*
X105156844Y-100402535D01*
X105109189Y-100426362D01*
X105037706Y-100426362D01*
X104990051Y-100402535D01*
X104966223Y-100378707D01*
D10*
X98136481Y-89030405D02*
X97136481Y-89030405D01*
X97136481Y-89411358D01*
X97184100Y-89506596D01*
X97231719Y-89554215D01*
X97326957Y-89601834D01*
X97469814Y-89601834D01*
X97565052Y-89554215D01*
X97612671Y-89506596D01*
X97660290Y-89411358D01*
X97660290Y-89030405D01*
X97136481Y-89935167D02*
X97136481Y-90554215D01*
X97517433Y-90220881D01*
X97517433Y-90363739D01*
X97565052Y-90458977D01*
X97612671Y-90506596D01*
X97707910Y-90554215D01*
X97946005Y-90554215D01*
X98041243Y-90506596D01*
X98088862Y-90458977D01*
X98136481Y-90363739D01*
X98136481Y-90078024D01*
X98088862Y-89982786D01*
X98041243Y-89935167D01*
X97536471Y-92561053D02*
X97584090Y-92703910D01*
X97631710Y-92751529D01*
X97726948Y-92799148D01*
X97869805Y-92799148D01*
X97965043Y-92751529D01*
X98012662Y-92703910D01*
X98060281Y-92608672D01*
X98060281Y-92227719D01*
X97060281Y-92227719D01*
X97060281Y-92561053D01*
X97107900Y-92656291D01*
X97155519Y-92703910D01*
X97250757Y-92751529D01*
X97345995Y-92751529D01*
X97441233Y-92703910D01*
X97488852Y-92656291D01*
X97536471Y-92561053D01*
X97536471Y-92227719D01*
X97774567Y-93180100D02*
X97774567Y-93656291D01*
X98060281Y-93084862D02*
X97060281Y-93418195D01*
X98060281Y-93751529D01*
X97060281Y-93942005D02*
X97060281Y-94513434D01*
X98060281Y-94227719D02*
X97060281Y-94227719D01*
X97060281Y-94703910D02*
X97060281Y-95275339D01*
X98060281Y-94989624D02*
X97060281Y-94989624D01*
D14*
X110421777Y-91764638D02*
X110397949Y-91740810D01*
X110350294Y-91716982D01*
X110231156Y-91716982D01*
X110183500Y-91740810D01*
X110159673Y-91764638D01*
X110135845Y-91812293D01*
X110135845Y-91859948D01*
X110159673Y-91931431D01*
X110445604Y-92217362D01*
X110135845Y-92217362D01*
X109945225Y-91764638D02*
X109921397Y-91740810D01*
X109873742Y-91716982D01*
X109754604Y-91716982D01*
X109706948Y-91740810D01*
X109683121Y-91764638D01*
X109659293Y-91812293D01*
X109659293Y-91859948D01*
X109683121Y-91931431D01*
X109969052Y-92217362D01*
X109659293Y-92217362D01*
X109444845Y-92217362D02*
X109444845Y-91716982D01*
X109397190Y-92026741D02*
X109254224Y-92217362D01*
X109254224Y-91883776D02*
X109444845Y-92074397D01*
D15*
X117371519Y-87114805D02*
X118193995Y-87114805D01*
X118290757Y-87163186D01*
X118339138Y-87211567D01*
X118387519Y-87308329D01*
X118387519Y-87501852D01*
X118339138Y-87598614D01*
X118290757Y-87646995D01*
X118193995Y-87695376D01*
X117371519Y-87695376D01*
X117371519Y-88082424D02*
X117371519Y-88711376D01*
X117758567Y-88372710D01*
X117758567Y-88517852D01*
X117806948Y-88614614D01*
X117855329Y-88662995D01*
X117952090Y-88711376D01*
X118193995Y-88711376D01*
X118290757Y-88662995D01*
X118339138Y-88614614D01*
X118387519Y-88517852D01*
X118387519Y-88227567D01*
X118339138Y-88130805D01*
X118290757Y-88082424D01*
X116084586Y-87181329D02*
X116761919Y-87181329D01*
X116181348Y-87181329D02*
X116132967Y-87229710D01*
X116084586Y-87326472D01*
X116084586Y-87471614D01*
X116132967Y-87568376D01*
X116229729Y-87616757D01*
X116761919Y-87616757D01*
X116761919Y-88681138D02*
X116278110Y-88342472D01*
X116761919Y-88100567D02*
X115745919Y-88100567D01*
X115745919Y-88487614D01*
X115794300Y-88584376D01*
X115842681Y-88632757D01*
X115939443Y-88681138D01*
X116084586Y-88681138D01*
X116181348Y-88632757D01*
X116229729Y-88584376D01*
X116278110Y-88487614D01*
X116278110Y-88100567D01*
X116229729Y-89455233D02*
X116229729Y-89116567D01*
X116761919Y-89116567D02*
X115745919Y-89116567D01*
X115745919Y-89600376D01*
X115842681Y-89939043D02*
X115794300Y-89987424D01*
X115745919Y-90084186D01*
X115745919Y-90326090D01*
X115794300Y-90422852D01*
X115842681Y-90471233D01*
X115939443Y-90519614D01*
X116036205Y-90519614D01*
X116181348Y-90471233D01*
X116761919Y-89890662D01*
X116761919Y-90519614D01*
X116084586Y-91390471D02*
X116761919Y-91390471D01*
X115697538Y-91148567D02*
X116423252Y-90906662D01*
X116423252Y-91535614D01*
X116761919Y-92406471D02*
X116761919Y-91922662D01*
X115745919Y-91922662D01*
X115745919Y-92938662D02*
X115745919Y-93035423D01*
X115794300Y-93132185D01*
X115842681Y-93180566D01*
X115939443Y-93228947D01*
X116132967Y-93277328D01*
X116374871Y-93277328D01*
X116568395Y-93228947D01*
X116665157Y-93180566D01*
X116713538Y-93132185D01*
X116761919Y-93035423D01*
X116761919Y-92938662D01*
X116713538Y-92841900D01*
X116665157Y-92793519D01*
X116568395Y-92745138D01*
X116374871Y-92696757D01*
X116132967Y-92696757D01*
X115939443Y-92745138D01*
X115842681Y-92793519D01*
X115794300Y-92841900D01*
X115745919Y-92938662D01*
X116761919Y-94244947D02*
X116761919Y-93664376D01*
X116761919Y-93954662D02*
X115745919Y-93954662D01*
X115891062Y-93857900D01*
X115987824Y-93761138D01*
X116036205Y-93664376D01*
X116374871Y-94680376D02*
X116374871Y-95454471D01*
X116761919Y-95067423D02*
X115987824Y-95067423D01*
D10*
X122761757Y-88569881D02*
X123237948Y-88569881D01*
X123237948Y-87569881D01*
X122428424Y-88046071D02*
X122095090Y-88046071D01*
X121952233Y-88569881D02*
X122428424Y-88569881D01*
X122428424Y-87569881D01*
X121952233Y-87569881D01*
X121523662Y-88569881D02*
X121523662Y-87569881D01*
X121285567Y-87569881D01*
X121142709Y-87617500D01*
X121047471Y-87712738D01*
X120999852Y-87807976D01*
X120952233Y-87998452D01*
X120952233Y-88141310D01*
X120999852Y-88331786D01*
X121047471Y-88427024D01*
X121142709Y-88522262D01*
X121285567Y-88569881D01*
X121523662Y-88569881D01*
M02*
