G04 #@! TF.FileFunction,Legend,Top*
%FSLAX46Y46*%
G04 Gerber Fmt 4.6, Leading zero omitted, Abs format (unit mm)*
G04 Created by KiCad (PCBNEW (2015-01-02 BZR 5348)-product) date 1/14/2015 2:26:51 AM*
%MOMM*%
G01*
G04 APERTURE LIST*
%ADD10C,0.150000*%
%ADD11C,0.152400*%
%ADD12C,0.190500*%
%ADD13C,0.300000*%
%ADD14C,0.100000*%
%ADD15C,0.099060*%
%ADD16C,0.203200*%
%ADD17C,0.109220*%
%ADD18C,0.200000*%
G04 APERTURE END LIST*
D10*
D11*
X93926714Y-82353514D02*
X93491286Y-82353514D01*
X93709000Y-82353514D02*
X93709000Y-81591514D01*
X93636429Y-81700371D01*
X93563857Y-81772943D01*
X93491286Y-81809229D01*
D12*
X108460958Y-99601929D02*
X108533529Y-99638214D01*
X108678672Y-99638214D01*
X108751244Y-99601929D01*
X108787529Y-99529357D01*
X108787529Y-99493071D01*
X108751244Y-99420500D01*
X108678672Y-99384214D01*
X108569815Y-99384214D01*
X108497244Y-99347929D01*
X108460958Y-99275357D01*
X108460958Y-99239071D01*
X108497244Y-99166500D01*
X108569815Y-99130214D01*
X108678672Y-99130214D01*
X108751244Y-99166500D01*
X109440672Y-99601929D02*
X109368101Y-99638214D01*
X109222958Y-99638214D01*
X109150386Y-99601929D01*
X109114101Y-99565643D01*
X109077815Y-99493071D01*
X109077815Y-99275357D01*
X109114101Y-99202786D01*
X109150386Y-99166500D01*
X109222958Y-99130214D01*
X109368101Y-99130214D01*
X109440672Y-99166500D01*
X109767244Y-99638214D02*
X109767244Y-98876214D01*
X109839815Y-99347929D02*
X110057529Y-99638214D01*
X110057529Y-99130214D02*
X109767244Y-99420500D01*
X110964672Y-99638214D02*
X110964672Y-99130214D01*
X110964672Y-99202786D02*
X111000957Y-99166500D01*
X111073529Y-99130214D01*
X111182386Y-99130214D01*
X111254957Y-99166500D01*
X111291243Y-99239071D01*
X111291243Y-99638214D01*
X111291243Y-99239071D02*
X111327529Y-99166500D01*
X111400100Y-99130214D01*
X111508957Y-99130214D01*
X111581529Y-99166500D01*
X111617814Y-99239071D01*
X111617814Y-99638214D01*
X112089529Y-99638214D02*
X112016957Y-99601929D01*
X111980672Y-99565643D01*
X111944386Y-99493071D01*
X111944386Y-99275357D01*
X111980672Y-99202786D01*
X112016957Y-99166500D01*
X112089529Y-99130214D01*
X112198386Y-99130214D01*
X112270957Y-99166500D01*
X112307243Y-99202786D01*
X112343529Y-99275357D01*
X112343529Y-99493071D01*
X112307243Y-99565643D01*
X112270957Y-99601929D01*
X112198386Y-99638214D01*
X112089529Y-99638214D01*
X112633815Y-99601929D02*
X112706386Y-99638214D01*
X112851529Y-99638214D01*
X112924101Y-99601929D01*
X112960386Y-99529357D01*
X112960386Y-99493071D01*
X112924101Y-99420500D01*
X112851529Y-99384214D01*
X112742672Y-99384214D01*
X112670101Y-99347929D01*
X112633815Y-99275357D01*
X112633815Y-99239071D01*
X112670101Y-99166500D01*
X112742672Y-99130214D01*
X112851529Y-99130214D01*
X112924101Y-99166500D01*
X113286958Y-99638214D02*
X113286958Y-99130214D01*
X113286958Y-98876214D02*
X113250672Y-98912500D01*
X113286958Y-98948786D01*
X113323243Y-98912500D01*
X113286958Y-98876214D01*
X113286958Y-98948786D01*
X114230386Y-99638214D02*
X114230386Y-99130214D01*
X114230386Y-99202786D02*
X114266671Y-99166500D01*
X114339243Y-99130214D01*
X114448100Y-99130214D01*
X114520671Y-99166500D01*
X114556957Y-99239071D01*
X114556957Y-99638214D01*
X114556957Y-99239071D02*
X114593243Y-99166500D01*
X114665814Y-99130214D01*
X114774671Y-99130214D01*
X114847243Y-99166500D01*
X114883528Y-99239071D01*
X114883528Y-99638214D01*
X115246386Y-99638214D02*
X115246386Y-99130214D01*
X115246386Y-98876214D02*
X115210100Y-98912500D01*
X115246386Y-98948786D01*
X115282671Y-98912500D01*
X115246386Y-98876214D01*
X115246386Y-98948786D01*
X115572957Y-99601929D02*
X115645528Y-99638214D01*
X115790671Y-99638214D01*
X115863243Y-99601929D01*
X115899528Y-99529357D01*
X115899528Y-99493071D01*
X115863243Y-99420500D01*
X115790671Y-99384214D01*
X115681814Y-99384214D01*
X115609243Y-99347929D01*
X115572957Y-99275357D01*
X115572957Y-99239071D01*
X115609243Y-99166500D01*
X115681814Y-99130214D01*
X115790671Y-99130214D01*
X115863243Y-99166500D01*
X116334957Y-99638214D02*
X116262385Y-99601929D01*
X116226100Y-99565643D01*
X116189814Y-99493071D01*
X116189814Y-99275357D01*
X116226100Y-99202786D01*
X116262385Y-99166500D01*
X116334957Y-99130214D01*
X116443814Y-99130214D01*
X116516385Y-99166500D01*
X116552671Y-99202786D01*
X116588957Y-99275357D01*
X116588957Y-99493071D01*
X116552671Y-99565643D01*
X116516385Y-99601929D01*
X116443814Y-99638214D01*
X116334957Y-99638214D01*
X117459814Y-99601929D02*
X117532385Y-99638214D01*
X117677528Y-99638214D01*
X117750100Y-99601929D01*
X117786385Y-99529357D01*
X117786385Y-99493071D01*
X117750100Y-99420500D01*
X117677528Y-99384214D01*
X117568671Y-99384214D01*
X117496100Y-99347929D01*
X117459814Y-99275357D01*
X117459814Y-99239071D01*
X117496100Y-99166500D01*
X117568671Y-99130214D01*
X117677528Y-99130214D01*
X117750100Y-99166500D01*
X118076671Y-99601929D02*
X118149242Y-99638214D01*
X118294385Y-99638214D01*
X118366957Y-99601929D01*
X118403242Y-99529357D01*
X118403242Y-99493071D01*
X118366957Y-99420500D01*
X118294385Y-99384214D01*
X118185528Y-99384214D01*
X118112957Y-99347929D01*
X118076671Y-99275357D01*
X118076671Y-99239071D01*
X118112957Y-99166500D01*
X118185528Y-99130214D01*
X118294385Y-99130214D01*
X118366957Y-99166500D01*
X102583884Y-85373090D02*
X102661294Y-85411795D01*
X102816113Y-85411795D01*
X102893522Y-85373090D01*
X102932227Y-85295681D01*
X102932227Y-85256976D01*
X102893522Y-85179567D01*
X102816113Y-85140862D01*
X102699998Y-85140862D01*
X102622589Y-85102157D01*
X102583884Y-85024748D01*
X102583884Y-84986043D01*
X102622589Y-84908633D01*
X102699998Y-84869929D01*
X102816113Y-84869929D01*
X102893522Y-84908633D01*
X103628913Y-85411795D02*
X103628913Y-84598995D01*
X103628913Y-85373090D02*
X103551503Y-85411795D01*
X103396684Y-85411795D01*
X103319275Y-85373090D01*
X103280570Y-85334386D01*
X103241865Y-85256976D01*
X103241865Y-85024748D01*
X103280570Y-84947338D01*
X103319275Y-84908633D01*
X103396684Y-84869929D01*
X103551503Y-84869929D01*
X103628913Y-84908633D01*
X104364303Y-85411795D02*
X104364303Y-84986043D01*
X104325598Y-84908633D01*
X104248188Y-84869929D01*
X104093369Y-84869929D01*
X104015960Y-84908633D01*
X104364303Y-85373090D02*
X104286893Y-85411795D01*
X104093369Y-85411795D01*
X104015960Y-85373090D01*
X103977255Y-85295681D01*
X103977255Y-85218271D01*
X104015960Y-85140862D01*
X104093369Y-85102157D01*
X104286893Y-85102157D01*
X104364303Y-85063452D01*
X105331921Y-85373090D02*
X105409331Y-85411795D01*
X105564150Y-85411795D01*
X105641559Y-85373090D01*
X105680264Y-85295681D01*
X105680264Y-85256976D01*
X105641559Y-85179567D01*
X105564150Y-85140862D01*
X105448035Y-85140862D01*
X105370626Y-85102157D01*
X105331921Y-85024748D01*
X105331921Y-84986043D01*
X105370626Y-84908633D01*
X105448035Y-84869929D01*
X105564150Y-84869929D01*
X105641559Y-84908633D01*
X106376950Y-85373090D02*
X106299540Y-85411795D01*
X106144721Y-85411795D01*
X106067312Y-85373090D01*
X106028607Y-85334386D01*
X105989902Y-85256976D01*
X105989902Y-85024748D01*
X106028607Y-84947338D01*
X106067312Y-84908633D01*
X106144721Y-84869929D01*
X106299540Y-84869929D01*
X106376950Y-84908633D01*
X106841407Y-85411795D02*
X106763998Y-85373090D01*
X106725293Y-85295681D01*
X106725293Y-84598995D01*
X107770321Y-85411795D02*
X107770321Y-84869929D01*
X107770321Y-85024748D02*
X107809026Y-84947338D01*
X107847730Y-84908633D01*
X107925140Y-84869929D01*
X108002549Y-84869929D01*
X108196073Y-85411795D02*
X108621826Y-84869929D01*
X108196073Y-84869929D02*
X108621826Y-85411795D01*
X109279807Y-85411795D02*
X109279807Y-84598995D01*
X109279807Y-85373090D02*
X109202397Y-85411795D01*
X109047578Y-85411795D01*
X108970169Y-85373090D01*
X108931464Y-85334386D01*
X108892759Y-85256976D01*
X108892759Y-85024748D01*
X108931464Y-84947338D01*
X108970169Y-84908633D01*
X109047578Y-84869929D01*
X109202397Y-84869929D01*
X109279807Y-84908633D01*
X110170016Y-84869929D02*
X110479654Y-84869929D01*
X110286130Y-84598995D02*
X110286130Y-85295681D01*
X110324835Y-85373090D01*
X110402244Y-85411795D01*
X110479654Y-85411795D01*
X110673177Y-85411795D02*
X111098930Y-84869929D01*
X110673177Y-84869929D02*
X111098930Y-85411795D01*
X111756911Y-85411795D02*
X111756911Y-84598995D01*
X111756911Y-85373090D02*
X111679501Y-85411795D01*
X111524682Y-85411795D01*
X111447273Y-85373090D01*
X111408568Y-85334386D01*
X111369863Y-85256976D01*
X111369863Y-85024748D01*
X111408568Y-84947338D01*
X111447273Y-84908633D01*
X111524682Y-84869929D01*
X111679501Y-84869929D01*
X111756911Y-84908633D01*
X113111577Y-85411795D02*
X113111577Y-84986043D01*
X113072872Y-84908633D01*
X112995462Y-84869929D01*
X112840643Y-84869929D01*
X112763234Y-84908633D01*
X113111577Y-85373090D02*
X113034167Y-85411795D01*
X112840643Y-85411795D01*
X112763234Y-85373090D01*
X112724529Y-85295681D01*
X112724529Y-85218271D01*
X112763234Y-85140862D01*
X112840643Y-85102157D01*
X113034167Y-85102157D01*
X113111577Y-85063452D01*
X113846967Y-85411795D02*
X113846967Y-84598995D01*
X113846967Y-85373090D02*
X113769557Y-85411795D01*
X113614738Y-85411795D01*
X113537329Y-85373090D01*
X113498624Y-85334386D01*
X113459919Y-85256976D01*
X113459919Y-85024748D01*
X113498624Y-84947338D01*
X113537329Y-84908633D01*
X113614738Y-84869929D01*
X113769557Y-84869929D01*
X113846967Y-84908633D01*
X114388833Y-84598995D02*
X114466242Y-84598995D01*
X114543652Y-84637700D01*
X114582357Y-84676405D01*
X114621061Y-84753814D01*
X114659766Y-84908633D01*
X114659766Y-85102157D01*
X114621061Y-85256976D01*
X114582357Y-85334386D01*
X114543652Y-85373090D01*
X114466242Y-85411795D01*
X114388833Y-85411795D01*
X114311423Y-85373090D01*
X114272719Y-85334386D01*
X114234014Y-85256976D01*
X114195309Y-85102157D01*
X114195309Y-84908633D01*
X114234014Y-84753814D01*
X114272719Y-84676405D01*
X114311423Y-84637700D01*
X114388833Y-84598995D01*
X115975728Y-85411795D02*
X115975728Y-84986043D01*
X115937023Y-84908633D01*
X115859613Y-84869929D01*
X115704794Y-84869929D01*
X115627385Y-84908633D01*
X115975728Y-85373090D02*
X115898318Y-85411795D01*
X115704794Y-85411795D01*
X115627385Y-85373090D01*
X115588680Y-85295681D01*
X115588680Y-85218271D01*
X115627385Y-85140862D01*
X115704794Y-85102157D01*
X115898318Y-85102157D01*
X115975728Y-85063452D01*
X116711118Y-85411795D02*
X116711118Y-84598995D01*
X116711118Y-85373090D02*
X116633708Y-85411795D01*
X116478889Y-85411795D01*
X116401480Y-85373090D01*
X116362775Y-85334386D01*
X116324070Y-85256976D01*
X116324070Y-85024748D01*
X116362775Y-84947338D01*
X116401480Y-84908633D01*
X116478889Y-84869929D01*
X116633708Y-84869929D01*
X116711118Y-84908633D01*
X117523917Y-85411795D02*
X117059460Y-85411795D01*
X117291689Y-85411795D02*
X117291689Y-84598995D01*
X117214279Y-84715110D01*
X117136870Y-84792519D01*
X117059460Y-84831224D01*
D13*
X130028571Y-85785715D02*
X130100000Y-85857144D01*
X130171429Y-86000001D01*
X130171429Y-86357144D01*
X130100000Y-86500001D01*
X130028571Y-86571430D01*
X129885714Y-86642858D01*
X129742857Y-86642858D01*
X129528571Y-86571430D01*
X128671429Y-85714287D01*
X128671429Y-86642858D01*
X130028571Y-87214286D02*
X130100000Y-87285715D01*
X130171429Y-87428572D01*
X130171429Y-87785715D01*
X130100000Y-87928572D01*
X130028571Y-88000001D01*
X129885714Y-88071429D01*
X129742857Y-88071429D01*
X129528571Y-88000001D01*
X128671429Y-87142858D01*
X128671429Y-88071429D01*
X128814286Y-88714286D02*
X128742857Y-88785714D01*
X128671429Y-88714286D01*
X128742857Y-88642857D01*
X128814286Y-88714286D01*
X128671429Y-88714286D01*
X130171429Y-89714286D02*
X130171429Y-89857143D01*
X130100000Y-90000000D01*
X130028571Y-90071429D01*
X129885714Y-90142858D01*
X129600000Y-90214286D01*
X129242857Y-90214286D01*
X128957143Y-90142858D01*
X128814286Y-90071429D01*
X128742857Y-90000000D01*
X128671429Y-89857143D01*
X128671429Y-89714286D01*
X128742857Y-89571429D01*
X128814286Y-89500000D01*
X128957143Y-89428572D01*
X129242857Y-89357143D01*
X129600000Y-89357143D01*
X129885714Y-89428572D01*
X130028571Y-89500000D01*
X130100000Y-89571429D01*
X130171429Y-89714286D01*
X130171429Y-91142857D02*
X130171429Y-91285714D01*
X130100000Y-91428571D01*
X130028571Y-91500000D01*
X129885714Y-91571429D01*
X129600000Y-91642857D01*
X129242857Y-91642857D01*
X128957143Y-91571429D01*
X128814286Y-91500000D01*
X128742857Y-91428571D01*
X128671429Y-91285714D01*
X128671429Y-91142857D01*
X128742857Y-91000000D01*
X128814286Y-90928571D01*
X128957143Y-90857143D01*
X129242857Y-90785714D01*
X129600000Y-90785714D01*
X129885714Y-90857143D01*
X130028571Y-90928571D01*
X130100000Y-91000000D01*
X130171429Y-91142857D01*
X130171429Y-92571428D02*
X130171429Y-92714285D01*
X130100000Y-92857142D01*
X130028571Y-92928571D01*
X129885714Y-93000000D01*
X129600000Y-93071428D01*
X129242857Y-93071428D01*
X128957143Y-93000000D01*
X128814286Y-92928571D01*
X128742857Y-92857142D01*
X128671429Y-92714285D01*
X128671429Y-92571428D01*
X128742857Y-92428571D01*
X128814286Y-92357142D01*
X128957143Y-92285714D01*
X129242857Y-92214285D01*
X129600000Y-92214285D01*
X129885714Y-92285714D01*
X130028571Y-92357142D01*
X130100000Y-92428571D01*
X130171429Y-92571428D01*
X128671429Y-94857142D02*
X129671429Y-94857142D01*
X129528571Y-94857142D02*
X129600000Y-94928570D01*
X129671429Y-95071428D01*
X129671429Y-95285713D01*
X129600000Y-95428570D01*
X129457143Y-95499999D01*
X128671429Y-95499999D01*
X129457143Y-95499999D02*
X129600000Y-95571428D01*
X129671429Y-95714285D01*
X129671429Y-95928570D01*
X129600000Y-96071428D01*
X129457143Y-96142856D01*
X128671429Y-96142856D01*
X128671429Y-96857142D02*
X129671429Y-96857142D01*
X129528571Y-96857142D02*
X129600000Y-96928570D01*
X129671429Y-97071428D01*
X129671429Y-97285713D01*
X129600000Y-97428570D01*
X129457143Y-97499999D01*
X128671429Y-97499999D01*
X129457143Y-97499999D02*
X129600000Y-97571428D01*
X129671429Y-97714285D01*
X129671429Y-97928570D01*
X129600000Y-98071428D01*
X129457143Y-98142856D01*
X128671429Y-98142856D01*
X128000000Y-81000000D02*
X128000000Y-103000000D01*
X124000000Y-81000000D02*
X130700000Y-81000000D01*
X124000000Y-103000000D02*
X130700000Y-103000000D01*
X128000000Y-103000000D02*
X127413579Y-101873496D01*
X128000000Y-103000000D02*
X128586421Y-101873496D01*
X128000000Y-81000000D02*
X127413579Y-82126504D01*
X128000000Y-81000000D02*
X128586421Y-82126504D01*
X93571430Y-73828572D02*
X92857144Y-73828572D01*
X92785715Y-74542858D01*
X92857144Y-74471430D01*
X93000001Y-74400001D01*
X93357144Y-74400001D01*
X93500001Y-74471430D01*
X93571430Y-74542858D01*
X93642858Y-74685715D01*
X93642858Y-75042858D01*
X93571430Y-75185715D01*
X93500001Y-75257144D01*
X93357144Y-75328572D01*
X93000001Y-75328572D01*
X92857144Y-75257144D01*
X92785715Y-75185715D01*
X94571429Y-73828572D02*
X94714286Y-73828572D01*
X94857143Y-73900001D01*
X94928572Y-73971430D01*
X95000001Y-74114287D01*
X95071429Y-74400001D01*
X95071429Y-74757144D01*
X95000001Y-75042858D01*
X94928572Y-75185715D01*
X94857143Y-75257144D01*
X94714286Y-75328572D01*
X94571429Y-75328572D01*
X94428572Y-75257144D01*
X94357143Y-75185715D01*
X94285715Y-75042858D01*
X94214286Y-74757144D01*
X94214286Y-74400001D01*
X94285715Y-74114287D01*
X94357143Y-73971430D01*
X94428572Y-73900001D01*
X94571429Y-73828572D01*
X95714286Y-75185715D02*
X95785714Y-75257144D01*
X95714286Y-75328572D01*
X95642857Y-75257144D01*
X95714286Y-75185715D01*
X95714286Y-75328572D01*
X96714286Y-73828572D02*
X96857143Y-73828572D01*
X97000000Y-73900001D01*
X97071429Y-73971430D01*
X97142858Y-74114287D01*
X97214286Y-74400001D01*
X97214286Y-74757144D01*
X97142858Y-75042858D01*
X97071429Y-75185715D01*
X97000000Y-75257144D01*
X96857143Y-75328572D01*
X96714286Y-75328572D01*
X96571429Y-75257144D01*
X96500000Y-75185715D01*
X96428572Y-75042858D01*
X96357143Y-74757144D01*
X96357143Y-74400001D01*
X96428572Y-74114287D01*
X96500000Y-73971430D01*
X96571429Y-73900001D01*
X96714286Y-73828572D01*
X98142857Y-73828572D02*
X98285714Y-73828572D01*
X98428571Y-73900001D01*
X98500000Y-73971430D01*
X98571429Y-74114287D01*
X98642857Y-74400001D01*
X98642857Y-74757144D01*
X98571429Y-75042858D01*
X98500000Y-75185715D01*
X98428571Y-75257144D01*
X98285714Y-75328572D01*
X98142857Y-75328572D01*
X98000000Y-75257144D01*
X97928571Y-75185715D01*
X97857143Y-75042858D01*
X97785714Y-74757144D01*
X97785714Y-74400001D01*
X97857143Y-74114287D01*
X97928571Y-73971430D01*
X98000000Y-73900001D01*
X98142857Y-73828572D01*
X99571428Y-73828572D02*
X99714285Y-73828572D01*
X99857142Y-73900001D01*
X99928571Y-73971430D01*
X100000000Y-74114287D01*
X100071428Y-74400001D01*
X100071428Y-74757144D01*
X100000000Y-75042858D01*
X99928571Y-75185715D01*
X99857142Y-75257144D01*
X99714285Y-75328572D01*
X99571428Y-75328572D01*
X99428571Y-75257144D01*
X99357142Y-75185715D01*
X99285714Y-75042858D01*
X99214285Y-74757144D01*
X99214285Y-74400001D01*
X99285714Y-74114287D01*
X99357142Y-73971430D01*
X99428571Y-73900001D01*
X99571428Y-73828572D01*
X101857142Y-75328572D02*
X101857142Y-74328572D01*
X101857142Y-74471430D02*
X101928570Y-74400001D01*
X102071428Y-74328572D01*
X102285713Y-74328572D01*
X102428570Y-74400001D01*
X102499999Y-74542858D01*
X102499999Y-75328572D01*
X102499999Y-74542858D02*
X102571428Y-74400001D01*
X102714285Y-74328572D01*
X102928570Y-74328572D01*
X103071428Y-74400001D01*
X103142856Y-74542858D01*
X103142856Y-75328572D01*
X103857142Y-75328572D02*
X103857142Y-74328572D01*
X103857142Y-74471430D02*
X103928570Y-74400001D01*
X104071428Y-74328572D01*
X104285713Y-74328572D01*
X104428570Y-74400001D01*
X104499999Y-74542858D01*
X104499999Y-75328572D01*
X104499999Y-74542858D02*
X104571428Y-74400001D01*
X104714285Y-74328572D01*
X104928570Y-74328572D01*
X105071428Y-74400001D01*
X105142856Y-74542858D01*
X105142856Y-75328572D01*
X74000000Y-76000001D02*
X124000000Y-76000001D01*
X74000000Y-78000000D02*
X74000000Y-73300001D01*
X124000000Y-78000000D02*
X124000000Y-73300001D01*
X124000000Y-76000001D02*
X122873496Y-76586422D01*
X124000000Y-76000001D02*
X122873496Y-75413580D01*
X74000000Y-76000001D02*
X75126504Y-76586422D01*
X74000000Y-76000001D02*
X75126504Y-75413580D01*
D10*
X93100000Y-83200000D02*
X93100000Y-81500000D01*
X93100000Y-81500000D02*
X91400000Y-81500000D01*
X92270000Y-81476000D02*
X92524000Y-81095000D01*
X92524000Y-81095000D02*
X92143000Y-81095000D01*
X92143000Y-81095000D02*
X92016000Y-81095000D01*
X92016000Y-81095000D02*
X92270000Y-81476000D01*
X101659200Y-94170320D02*
X101659200Y-85569880D01*
X101659200Y-85569880D02*
X98458800Y-85569880D01*
X98458800Y-85569880D02*
X98458800Y-94170320D01*
X99208100Y-94170320D02*
X98458800Y-94170320D01*
X100958160Y-94170320D02*
X101659200Y-94170320D01*
X99759280Y-94170320D02*
X99660220Y-94470040D01*
X100358720Y-94170320D02*
X100457780Y-94470040D01*
X100958160Y-94170320D02*
X99159840Y-94170320D01*
X104399340Y-98550080D02*
X104699060Y-98799000D01*
X104699060Y-98799000D02*
X104848920Y-98900600D01*
X104848920Y-98900600D02*
X104000560Y-98900600D01*
X105900480Y-98199560D02*
X104099620Y-98199560D01*
X105900480Y-98199560D02*
X105900480Y-98849800D01*
X105900480Y-102700440D02*
X104099620Y-102700440D01*
X105900480Y-102700440D02*
X105900480Y-102050200D01*
X91100000Y-88700000D02*
X97100000Y-88700000D01*
X97100000Y-88700000D02*
X97100000Y-95700000D01*
X97100000Y-95700000D02*
X91100000Y-95700000D01*
X91100000Y-95700000D02*
X91100000Y-88700000D01*
X94877605Y-102609000D02*
G75*
G03X94877605Y-102609000I-179605J0D01*
G01*
X99524000Y-102482000D02*
X101175000Y-102482000D01*
X101175000Y-102482000D02*
X101175000Y-98418000D01*
X101175000Y-98418000D02*
X99524000Y-98418000D01*
X96476000Y-98418000D02*
X94825000Y-98418000D01*
X94825000Y-98418000D02*
X94825000Y-102482000D01*
X94825000Y-102482000D02*
X96476000Y-102482000D01*
D14*
X113850000Y-95550000D02*
X114300000Y-95550000D01*
X114300000Y-95550000D02*
X114300000Y-95100000D01*
X107200000Y-95100000D02*
X107200000Y-95550000D01*
X107200000Y-95550000D02*
X107650000Y-95550000D01*
X107650000Y-88450000D02*
X107200000Y-88450000D01*
X107200000Y-88450000D02*
X107200000Y-88900000D01*
X113850000Y-88450000D02*
X114300000Y-88450000D01*
X114300000Y-88450000D02*
X114300000Y-88900000D01*
X106250000Y-88900000D02*
X106250000Y-87500000D01*
X106250000Y-87500000D02*
X107650000Y-87500000D01*
X107650000Y-96500000D02*
X106250000Y-96500000D01*
X106250000Y-96500000D02*
X106250000Y-95100000D01*
X115250000Y-95100000D02*
X115250000Y-96500000D01*
X115250000Y-96500000D02*
X113850000Y-96500000D01*
X113850000Y-87500000D02*
X115250000Y-87500000D01*
X115250000Y-87500000D02*
X115250000Y-88900000D01*
D15*
X106952700Y-88002040D02*
G75*
G03X106952700Y-88002040I-200660J0D01*
G01*
D16*
X122850000Y-83900000D02*
X122400000Y-84650000D01*
X122400000Y-84650000D02*
X123300000Y-84650000D01*
X123300000Y-84650000D02*
X122850000Y-83900000D01*
X118700000Y-83900000D02*
X118700000Y-85900000D01*
X120700000Y-87400000D02*
X121700000Y-87400000D01*
X123700000Y-83900000D02*
X123700000Y-85900000D01*
X120700000Y-82400000D02*
X121700000Y-82400000D01*
D10*
X86000000Y-86000000D02*
X75000000Y-86000000D01*
X75000000Y-98000000D02*
X86000000Y-98000000D01*
X74000000Y-87000000D02*
X74000000Y-97000000D01*
X74000000Y-97000000D02*
G75*
G03X75000000Y-98000000I1000000J0D01*
G01*
X75000000Y-86000000D02*
G75*
G03X74000000Y-87000000I0J-1000000D01*
G01*
X82650000Y-87150000D02*
X75500000Y-87150000D01*
X75500000Y-96850000D02*
X82650000Y-96850000D01*
X86000000Y-98000000D02*
X86000000Y-86000000D01*
D11*
X123720000Y-102570000D02*
X108480000Y-102570000D01*
X108480000Y-102570000D02*
X108480000Y-100030000D01*
X108480000Y-100030000D02*
X123720000Y-100030000D01*
X123720000Y-100030000D02*
X123720000Y-102570000D01*
X121180000Y-102570000D02*
X121180000Y-100030000D01*
X102480000Y-81430000D02*
X117720000Y-81430000D01*
X117720000Y-81430000D02*
X117720000Y-83970000D01*
X117720000Y-83970000D02*
X102480000Y-83970000D01*
X102480000Y-83970000D02*
X102480000Y-81430000D01*
X105020000Y-81430000D02*
X105020000Y-83970000D01*
X86590000Y-102270000D02*
X86590000Y-99730000D01*
X86590000Y-99730000D02*
X94210000Y-99730000D01*
X94210000Y-99730000D02*
X94210000Y-102270000D01*
X94210000Y-102270000D02*
X86590000Y-102270000D01*
X89130000Y-99730000D02*
X89130000Y-102270000D01*
D10*
X91994500Y-96982100D02*
X91994500Y-99522100D01*
X91994500Y-99522100D02*
X94534500Y-99522100D01*
X94534500Y-99522100D02*
X94534500Y-96982100D01*
X94534500Y-96982100D02*
X91994500Y-96982100D01*
D14*
X97506300Y-83812200D02*
X94966300Y-83812200D01*
X97506300Y-81272200D02*
X94966300Y-81272200D01*
D11*
X100046300Y-81272200D02*
X97506300Y-81272200D01*
X100046300Y-83812200D02*
X97506300Y-83812200D01*
D14*
X94966300Y-83812200D02*
X94966300Y-81272200D01*
D11*
X100046300Y-81272200D02*
X100046300Y-83812200D01*
X97506300Y-83812200D02*
X97506300Y-81272200D01*
D16*
X89955243Y-85645838D02*
X90100386Y-85694219D01*
X90342290Y-85694219D01*
X90439052Y-85645838D01*
X90487433Y-85597457D01*
X90535814Y-85500695D01*
X90535814Y-85403933D01*
X90487433Y-85307171D01*
X90439052Y-85258790D01*
X90342290Y-85210410D01*
X90148767Y-85162029D01*
X90052005Y-85113648D01*
X90003624Y-85065267D01*
X89955243Y-84968505D01*
X89955243Y-84871743D01*
X90003624Y-84774981D01*
X90052005Y-84726600D01*
X90148767Y-84678219D01*
X90390671Y-84678219D01*
X90535814Y-84726600D01*
X90874481Y-84678219D02*
X91116386Y-85694219D01*
X91309909Y-84968505D01*
X91503433Y-85694219D01*
X91745338Y-84678219D01*
X92132386Y-85694219D02*
X92132386Y-84678219D01*
X92374291Y-84678219D01*
X92519433Y-84726600D01*
X92616195Y-84823362D01*
X92664576Y-84920124D01*
X92712957Y-85113648D01*
X92712957Y-85258790D01*
X92664576Y-85452314D01*
X92616195Y-85549076D01*
X92519433Y-85645838D01*
X92374291Y-85694219D01*
X92132386Y-85694219D01*
D10*
X101911381Y-88929524D02*
X102911381Y-88262857D01*
X101911381Y-88262857D02*
X102911381Y-88929524D01*
X102911381Y-87358095D02*
X102911381Y-87929524D01*
X102911381Y-87643810D02*
X101911381Y-87643810D01*
X102054238Y-87739048D01*
X102149476Y-87834286D01*
X102197095Y-87929524D01*
X106252381Y-98961905D02*
X107061905Y-98961905D01*
X107157143Y-98914286D01*
X107204762Y-98866667D01*
X107252381Y-98771429D01*
X107252381Y-98580952D01*
X107204762Y-98485714D01*
X107157143Y-98438095D01*
X107061905Y-98390476D01*
X106252381Y-98390476D01*
X106347619Y-97961905D02*
X106300000Y-97914286D01*
X106252381Y-97819048D01*
X106252381Y-97580952D01*
X106300000Y-97485714D01*
X106347619Y-97438095D01*
X106442857Y-97390476D01*
X106538095Y-97390476D01*
X106680952Y-97438095D01*
X107252381Y-98009524D01*
X107252381Y-97390476D01*
X92731267Y-92573562D02*
X92874124Y-92621181D01*
X93112220Y-92621181D01*
X93207458Y-92573562D01*
X93255077Y-92525943D01*
X93302696Y-92430705D01*
X93302696Y-92335467D01*
X93255077Y-92240229D01*
X93207458Y-92192610D01*
X93112220Y-92144990D01*
X92921743Y-92097371D01*
X92826505Y-92049752D01*
X92778886Y-92002133D01*
X92731267Y-91906895D01*
X92731267Y-91811657D01*
X92778886Y-91716419D01*
X92826505Y-91668800D01*
X92921743Y-91621181D01*
X93159839Y-91621181D01*
X93302696Y-91668800D01*
X93636029Y-91621181D02*
X93874124Y-92621181D01*
X94064601Y-91906895D01*
X94255077Y-92621181D01*
X94493172Y-91621181D01*
X94826505Y-91716419D02*
X94874124Y-91668800D01*
X94969362Y-91621181D01*
X95207458Y-91621181D01*
X95302696Y-91668800D01*
X95350315Y-91716419D01*
X95397934Y-91811657D01*
X95397934Y-91906895D01*
X95350315Y-92049752D01*
X94778886Y-92621181D01*
X95397934Y-92621181D01*
D17*
X102392396Y-91308638D02*
X102416224Y-91284810D01*
X102463879Y-91260982D01*
X102583017Y-91260982D01*
X102630673Y-91284810D01*
X102654500Y-91308638D01*
X102678328Y-91356293D01*
X102678328Y-91403948D01*
X102654500Y-91475431D01*
X102368569Y-91761362D01*
X102678328Y-91761362D01*
X102868948Y-91308638D02*
X102892776Y-91284810D01*
X102940431Y-91260982D01*
X103059569Y-91260982D01*
X103107225Y-91284810D01*
X103131052Y-91308638D01*
X103154880Y-91356293D01*
X103154880Y-91403948D01*
X103131052Y-91475431D01*
X102845121Y-91761362D01*
X103154880Y-91761362D01*
X103369328Y-91427776D02*
X103369328Y-91928156D01*
X103369328Y-91451603D02*
X103416983Y-91427776D01*
X103512294Y-91427776D01*
X103559949Y-91451603D01*
X103583777Y-91475431D01*
X103607604Y-91523086D01*
X103607604Y-91666052D01*
X103583777Y-91713707D01*
X103559949Y-91737535D01*
X103512294Y-91761362D01*
X103416983Y-91761362D01*
X103369328Y-91737535D01*
X102392396Y-94808638D02*
X102416224Y-94784810D01*
X102463879Y-94760982D01*
X102583017Y-94760982D01*
X102630673Y-94784810D01*
X102654500Y-94808638D01*
X102678328Y-94856293D01*
X102678328Y-94903948D01*
X102654500Y-94975431D01*
X102368569Y-95261362D01*
X102678328Y-95261362D01*
X102868948Y-94808638D02*
X102892776Y-94784810D01*
X102940431Y-94760982D01*
X103059569Y-94760982D01*
X103107225Y-94784810D01*
X103131052Y-94808638D01*
X103154880Y-94856293D01*
X103154880Y-94903948D01*
X103131052Y-94975431D01*
X102845121Y-95261362D01*
X103154880Y-95261362D01*
X103369328Y-94927776D02*
X103369328Y-95428156D01*
X103369328Y-94951603D02*
X103416983Y-94927776D01*
X103512294Y-94927776D01*
X103559949Y-94951603D01*
X103583777Y-94975431D01*
X103607604Y-95023086D01*
X103607604Y-95166052D01*
X103583777Y-95213707D01*
X103559949Y-95237535D01*
X103512294Y-95261362D01*
X103416983Y-95261362D01*
X103369328Y-95237535D01*
X86730673Y-95792776D02*
X86730673Y-96126362D01*
X86611535Y-95602155D02*
X86492396Y-95959569D01*
X86802156Y-95959569D01*
X86945121Y-95625982D02*
X87278708Y-95625982D01*
X87064259Y-96126362D01*
X87469328Y-95792776D02*
X87469328Y-96293156D01*
X87469328Y-95816603D02*
X87516983Y-95792776D01*
X87612294Y-95792776D01*
X87659949Y-95816603D01*
X87683777Y-95840431D01*
X87707604Y-95888086D01*
X87707604Y-96031052D01*
X87683777Y-96078707D01*
X87659949Y-96102535D01*
X87612294Y-96126362D01*
X87516983Y-96126362D01*
X87469328Y-96102535D01*
X89364573Y-88022976D02*
X89364573Y-88356562D01*
X89245435Y-87832355D02*
X89126296Y-88189769D01*
X89436056Y-88189769D01*
X89579021Y-87856182D02*
X89912608Y-87856182D01*
X89698159Y-88356562D01*
X90103228Y-88022976D02*
X90103228Y-88523356D01*
X90103228Y-88046803D02*
X90150883Y-88022976D01*
X90246194Y-88022976D01*
X90293849Y-88046803D01*
X90317677Y-88070631D01*
X90341504Y-88118286D01*
X90341504Y-88261252D01*
X90317677Y-88308907D01*
X90293849Y-88332735D01*
X90246194Y-88356562D01*
X90150883Y-88356562D01*
X90103228Y-88332735D01*
D10*
X97181811Y-100783333D02*
X97181811Y-101116667D01*
X97705621Y-101116667D02*
X96705621Y-101116667D01*
X96705621Y-100640476D01*
X97705621Y-99735714D02*
X97705621Y-100307143D01*
X97705621Y-100021429D02*
X96705621Y-100021429D01*
X96848478Y-100116667D01*
X96943716Y-100211905D01*
X96991335Y-100307143D01*
X98690571Y-101759523D02*
X98690571Y-102092857D01*
X99214381Y-102092857D02*
X98214381Y-102092857D01*
X98214381Y-101616666D01*
X98214381Y-101235714D02*
X99023905Y-101235714D01*
X99119143Y-101188095D01*
X99166762Y-101140476D01*
X99214381Y-101045238D01*
X99214381Y-100854761D01*
X99166762Y-100759523D01*
X99119143Y-100711904D01*
X99023905Y-100664285D01*
X98214381Y-100664285D01*
X99166762Y-100235714D02*
X99214381Y-100092857D01*
X99214381Y-99854761D01*
X99166762Y-99759523D01*
X99119143Y-99711904D01*
X99023905Y-99664285D01*
X98928667Y-99664285D01*
X98833429Y-99711904D01*
X98785810Y-99759523D01*
X98738190Y-99854761D01*
X98690571Y-100045238D01*
X98642952Y-100140476D01*
X98595333Y-100188095D01*
X98500095Y-100235714D01*
X98404857Y-100235714D01*
X98309619Y-100188095D01*
X98262000Y-100140476D01*
X98214381Y-100045238D01*
X98214381Y-99807142D01*
X98262000Y-99664285D01*
X98690571Y-99235714D02*
X98690571Y-98902380D01*
X99214381Y-98759523D02*
X99214381Y-99235714D01*
X98214381Y-99235714D01*
X98214381Y-98759523D01*
D18*
X120174234Y-85636181D02*
X119698043Y-85636181D01*
X119698043Y-84636181D01*
X121031377Y-85636181D02*
X120459948Y-85636181D01*
X120745662Y-85636181D02*
X120745662Y-84636181D01*
X120650424Y-84779038D01*
X120555186Y-84874276D01*
X120459948Y-84921895D01*
D10*
X83941181Y-93189405D02*
X84750705Y-93189405D01*
X84845943Y-93141786D01*
X84893562Y-93094167D01*
X84941181Y-92998929D01*
X84941181Y-92808452D01*
X84893562Y-92713214D01*
X84845943Y-92665595D01*
X84750705Y-92617976D01*
X83941181Y-92617976D01*
X84893562Y-92189405D02*
X84941181Y-92046548D01*
X84941181Y-91808452D01*
X84893562Y-91713214D01*
X84845943Y-91665595D01*
X84750705Y-91617976D01*
X84655467Y-91617976D01*
X84560229Y-91665595D01*
X84512610Y-91713214D01*
X84464990Y-91808452D01*
X84417371Y-91998929D01*
X84369752Y-92094167D01*
X84322133Y-92141786D01*
X84226895Y-92189405D01*
X84131657Y-92189405D01*
X84036419Y-92141786D01*
X83988800Y-92094167D01*
X83941181Y-91998929D01*
X83941181Y-91760833D01*
X83988800Y-91617976D01*
X84417371Y-90856071D02*
X84464990Y-90713214D01*
X84512610Y-90665595D01*
X84607848Y-90617976D01*
X84750705Y-90617976D01*
X84845943Y-90665595D01*
X84893562Y-90713214D01*
X84941181Y-90808452D01*
X84941181Y-91189405D01*
X83941181Y-91189405D01*
X83941181Y-90856071D01*
X83988800Y-90760833D01*
X84036419Y-90713214D01*
X84131657Y-90665595D01*
X84226895Y-90665595D01*
X84322133Y-90713214D01*
X84369752Y-90760833D01*
X84417371Y-90856071D01*
X84417371Y-91189405D01*
D17*
X88779223Y-96078162D02*
X88493291Y-96078162D01*
X88636257Y-96078162D02*
X88636257Y-95577782D01*
X88588602Y-95649265D01*
X88540947Y-95696920D01*
X88493291Y-95720748D01*
X88993671Y-96078162D02*
X88993671Y-95577782D01*
X89041326Y-95887541D02*
X89184292Y-96078162D01*
X89184292Y-95744576D02*
X88993671Y-95935197D01*
X89637017Y-95577782D02*
X89398741Y-95577782D01*
X89374913Y-95816059D01*
X89398741Y-95792231D01*
X89446396Y-95768403D01*
X89565534Y-95768403D01*
X89613190Y-95792231D01*
X89637017Y-95816059D01*
X89660845Y-95863714D01*
X89660845Y-95982852D01*
X89637017Y-96030507D01*
X89613190Y-96054335D01*
X89565534Y-96078162D01*
X89446396Y-96078162D01*
X89398741Y-96054335D01*
X89374913Y-96030507D01*
X90494811Y-96078162D02*
X90256535Y-96078162D01*
X90256535Y-95577782D01*
X90637777Y-96054335D02*
X90709260Y-96078162D01*
X90828398Y-96078162D01*
X90876054Y-96054335D01*
X90899881Y-96030507D01*
X90923709Y-95982852D01*
X90923709Y-95935197D01*
X90899881Y-95887541D01*
X90876054Y-95863714D01*
X90828398Y-95839886D01*
X90733088Y-95816059D01*
X90685433Y-95792231D01*
X90661605Y-95768403D01*
X90637777Y-95720748D01*
X90637777Y-95673093D01*
X90661605Y-95625438D01*
X90685433Y-95601610D01*
X90733088Y-95577782D01*
X90852226Y-95577782D01*
X90923709Y-95601610D01*
X86392410Y-88432762D02*
X86106478Y-88432762D01*
X86249444Y-88432762D02*
X86249444Y-87932382D01*
X86201789Y-88003865D01*
X86154134Y-88051520D01*
X86106478Y-88075348D01*
X86606858Y-88432762D02*
X86606858Y-87932382D01*
X86654513Y-88242141D02*
X86797479Y-88432762D01*
X86797479Y-88099176D02*
X86606858Y-88289797D01*
X87250204Y-87932382D02*
X87011928Y-87932382D01*
X86988100Y-88170659D01*
X87011928Y-88146831D01*
X87059583Y-88123003D01*
X87178721Y-88123003D01*
X87226377Y-88146831D01*
X87250204Y-88170659D01*
X87274032Y-88218314D01*
X87274032Y-88337452D01*
X87250204Y-88385107D01*
X87226377Y-88408935D01*
X87178721Y-88432762D01*
X87059583Y-88432762D01*
X87011928Y-88408935D01*
X86988100Y-88385107D01*
X88036515Y-88170659D02*
X87869722Y-88170659D01*
X87869722Y-88432762D02*
X87869722Y-87932382D01*
X88107998Y-87932382D01*
X88274791Y-88408935D02*
X88346274Y-88432762D01*
X88465412Y-88432762D01*
X88513068Y-88408935D01*
X88536895Y-88385107D01*
X88560723Y-88337452D01*
X88560723Y-88289797D01*
X88536895Y-88242141D01*
X88513068Y-88218314D01*
X88465412Y-88194486D01*
X88370102Y-88170659D01*
X88322447Y-88146831D01*
X88298619Y-88123003D01*
X88274791Y-88075348D01*
X88274791Y-88027693D01*
X88298619Y-87980038D01*
X88322447Y-87956210D01*
X88370102Y-87932382D01*
X88489240Y-87932382D01*
X88560723Y-87956210D01*
X87525982Y-93655259D02*
X87525982Y-93345500D01*
X87716603Y-93512293D01*
X87716603Y-93440811D01*
X87740431Y-93393155D01*
X87764259Y-93369328D01*
X87811914Y-93345500D01*
X87931052Y-93345500D01*
X87978707Y-93369328D01*
X88002535Y-93393155D01*
X88026362Y-93440811D01*
X88026362Y-93583776D01*
X88002535Y-93631432D01*
X87978707Y-93655259D01*
X87525982Y-93178707D02*
X87525982Y-92868948D01*
X87716603Y-93035741D01*
X87716603Y-92964259D01*
X87740431Y-92916603D01*
X87764259Y-92892776D01*
X87811914Y-92868948D01*
X87931052Y-92868948D01*
X87978707Y-92892776D01*
X88002535Y-92916603D01*
X88026362Y-92964259D01*
X88026362Y-93107224D01*
X88002535Y-93154880D01*
X87978707Y-93178707D01*
X88026362Y-92368568D02*
X87788086Y-92535362D01*
X88026362Y-92654500D02*
X87525982Y-92654500D01*
X87525982Y-92463879D01*
X87549810Y-92416224D01*
X87573638Y-92392396D01*
X87621293Y-92368568D01*
X87692776Y-92368568D01*
X87740431Y-92392396D01*
X87764259Y-92416224D01*
X87788086Y-92463879D01*
X87788086Y-92654500D01*
X87525982Y-91655259D02*
X87525982Y-91345500D01*
X87716603Y-91512293D01*
X87716603Y-91440811D01*
X87740431Y-91393155D01*
X87764259Y-91369328D01*
X87811914Y-91345500D01*
X87931052Y-91345500D01*
X87978707Y-91369328D01*
X88002535Y-91393155D01*
X88026362Y-91440811D01*
X88026362Y-91583776D01*
X88002535Y-91631432D01*
X87978707Y-91655259D01*
X87525982Y-91178707D02*
X87525982Y-90868948D01*
X87716603Y-91035741D01*
X87716603Y-90964259D01*
X87740431Y-90916603D01*
X87764259Y-90892776D01*
X87811914Y-90868948D01*
X87931052Y-90868948D01*
X87978707Y-90892776D01*
X88002535Y-90916603D01*
X88026362Y-90964259D01*
X88026362Y-91107224D01*
X88002535Y-91154880D01*
X87978707Y-91178707D01*
X88026362Y-90368568D02*
X87788086Y-90535362D01*
X88026362Y-90654500D02*
X87525982Y-90654500D01*
X87525982Y-90463879D01*
X87549810Y-90416224D01*
X87573638Y-90392396D01*
X87621293Y-90368568D01*
X87692776Y-90368568D01*
X87740431Y-90392396D01*
X87764259Y-90416224D01*
X87788086Y-90463879D01*
X87788086Y-90654500D01*
D11*
X114371296Y-98711719D02*
X114371296Y-97695719D01*
X114758343Y-97695719D01*
X114855105Y-97744100D01*
X114903486Y-97792481D01*
X114951867Y-97889243D01*
X114951867Y-98034386D01*
X114903486Y-98131148D01*
X114855105Y-98179529D01*
X114758343Y-98227910D01*
X114371296Y-98227910D01*
X115822724Y-98034386D02*
X115822724Y-98711719D01*
X115580820Y-97647338D02*
X115338915Y-98373052D01*
X115967867Y-98373052D01*
X102182319Y-83241304D02*
X101166319Y-83241304D01*
X101166319Y-82854257D01*
X101214700Y-82757495D01*
X101263081Y-82709114D01*
X101359843Y-82660733D01*
X101504986Y-82660733D01*
X101601748Y-82709114D01*
X101650129Y-82757495D01*
X101698510Y-82854257D01*
X101698510Y-83241304D01*
X101166319Y-81789876D02*
X101166319Y-81983399D01*
X101214700Y-82080161D01*
X101263081Y-82128542D01*
X101408224Y-82225304D01*
X101601748Y-82273685D01*
X101988795Y-82273685D01*
X102085557Y-82225304D01*
X102133938Y-82176923D01*
X102182319Y-82080161D01*
X102182319Y-81886638D01*
X102133938Y-81789876D01*
X102085557Y-81741495D01*
X101988795Y-81693114D01*
X101746890Y-81693114D01*
X101650129Y-81741495D01*
X101601748Y-81789876D01*
X101553367Y-81886638D01*
X101553367Y-82080161D01*
X101601748Y-82176923D01*
X101650129Y-82225304D01*
X101746890Y-82273685D01*
X87236234Y-99323738D02*
X87381377Y-99372119D01*
X87623281Y-99372119D01*
X87720043Y-99323738D01*
X87768424Y-99275357D01*
X87816805Y-99178595D01*
X87816805Y-99081833D01*
X87768424Y-98985071D01*
X87720043Y-98936690D01*
X87623281Y-98888310D01*
X87429758Y-98839929D01*
X87332996Y-98791548D01*
X87284615Y-98743167D01*
X87236234Y-98646405D01*
X87236234Y-98549643D01*
X87284615Y-98452881D01*
X87332996Y-98404500D01*
X87429758Y-98356119D01*
X87671662Y-98356119D01*
X87816805Y-98404500D01*
X88155472Y-98356119D02*
X88397377Y-99372119D01*
X88590900Y-98646405D01*
X88784424Y-99372119D01*
X89026329Y-98356119D01*
X89945567Y-99372119D02*
X89364996Y-99372119D01*
X89655282Y-99372119D02*
X89655282Y-98356119D01*
X89558520Y-98501262D01*
X89461758Y-98598024D01*
X89364996Y-98646405D01*
D10*
X93450324Y-95650214D02*
X93450324Y-96459738D01*
X93402705Y-96554976D01*
X93355086Y-96602595D01*
X93259847Y-96650214D01*
X93116990Y-96650214D01*
X93021752Y-96602595D01*
X93450324Y-96269262D02*
X93355086Y-96316881D01*
X93164609Y-96316881D01*
X93069371Y-96269262D01*
X93021752Y-96221643D01*
X92974133Y-96126405D01*
X92974133Y-95840690D01*
X93021752Y-95745452D01*
X93069371Y-95697833D01*
X93164609Y-95650214D01*
X93355086Y-95650214D01*
X93450324Y-95697833D01*
X93926514Y-95650214D02*
X93926514Y-96316881D01*
X93926514Y-95745452D02*
X93974133Y-95697833D01*
X94069371Y-95650214D01*
X94212229Y-95650214D01*
X94307467Y-95697833D01*
X94355086Y-95793071D01*
X94355086Y-96316881D01*
X95259848Y-96316881D02*
X95259848Y-95316881D01*
X95259848Y-96269262D02*
X95164610Y-96316881D01*
X94974133Y-96316881D01*
X94878895Y-96269262D01*
X94831276Y-96221643D01*
X94783657Y-96126405D01*
X94783657Y-95840690D01*
X94831276Y-95745452D01*
X94878895Y-95697833D01*
X94974133Y-95650214D01*
X95164610Y-95650214D01*
X95259848Y-95697833D01*
D11*
X95135633Y-84144819D02*
X95135633Y-84870533D01*
X95087253Y-85015676D01*
X94990491Y-85112438D01*
X94845348Y-85160819D01*
X94748586Y-85160819D01*
X95619443Y-85160819D02*
X95619443Y-84144819D01*
X96006490Y-84144819D01*
X96103252Y-84193200D01*
X96151633Y-84241581D01*
X96200014Y-84338343D01*
X96200014Y-84483486D01*
X96151633Y-84580248D01*
X96103252Y-84628629D01*
X96006490Y-84677010D01*
X95619443Y-84677010D01*
X97167633Y-85160819D02*
X96587062Y-85160819D01*
X96877348Y-85160819D02*
X96877348Y-84144819D01*
X96780586Y-84289962D01*
X96683824Y-84386724D01*
X96587062Y-84435105D01*
M02*
